<?xml version="1.0" encoding="UTF-8"?>
<!DOCTYPE svg PUBLIC "-//W3C//DTD SVG 1.1//EN" "http://www.w3.org/Graphics/SVG/1.1/DTD/svg11.dtd">
<!-- Creator: CorelDRAW -->
<svg xmlns="http://www.w3.org/2000/svg" xml:space="preserve" width="238.139mm" height="80.0442mm" version="1.1" style="shape-rendering:geometricPrecision; text-rendering:geometricPrecision; image-rendering:optimizeQuality; fill-rule:evenodd; clip-rule:evenodd"
viewBox="0 0 36499.82 12268.43"
 xmlns:xlink="http://www.w3.org/1999/xlink"
 xmlns:xodm="http://www.corel.com/coreldraw/odm/2003">
 <defs>
  <style type="text/css">
   <![CDATA[
    .fil1 {fill:#000205}
    .fil0 {fill:#000205;fill-rule:nonzero}
   ]]>
  </style>
 </defs>
 <g id="Camada_x0020_1">
  <metadata id="CorelCorpID_0Corel-Layer"/>
  <g id="_2586793748960">
   <path class="fil0" d="M1970.51 12261.66l0 -4571.44 1970.51 0 3500.92 4571.44 2520.66 0 -3520.92 -4581.6c1960.52,-152.38 3520.92,-1818.43 3520.92,-3840.03 0,-2102.87 -1700.45,-3840.03 -3780.99,-3840.03l-4211.1 0 -1970.51 0 0 7690.22 0 4571.44 1970.51 0zm0 -6582.89l0 -3667.32 4211.1 0c980.26,0 1800.47,822.86 1800.47,1828.58 0,1005.72 -810.22,1838.74 -1800.47,1838.74l-1280.33 0 -1030.27 0 -1900.5 0z"/>
   <path class="fil1" d="M19925.2 7657.07l0 -7657.07 2158.71 0 0 3058.46 2439.41 0 0 2064.68 -2439.41 0 0 2533.93c0,1340.12 1067.12,2434.49 2439.41,2536.54l0 2068.07c-901.26,-37.78 -1737.54,-317.33 -2439.41,-767.21 -1293.56,-829.16 -2158.71,-2231.53 -2158.71,-3837.39z"/>
   <path class="fil0" d="M14571.14 10206.3c-1405.98,0 -2541.18,-1135.2 -2541.18,-2541.2 0,-1395.59 1135.2,-2530.79 2541.18,-2530.79 1395.59,0 2530.81,1135.2 2530.81,2530.79 0,1406 -1135.22,2541.2 -2530.81,2541.2zm-2541.18 1291.43c729.03,489.52 1603.87,770.71 2541.18,770.71 937.34,0 1801.77,-281.19 2530.81,-770.71l0 770.71 2062.12 0 0 -4603.33 0 -4592.91 -2062.12 0 0 760.27c-729.03,-479.09 -1593.46,-760.27 -2530.81,-760.27 -937.31,0 -1812.15,281.18 -2541.18,760.27 -1239.36,822.76 -2062.14,2239.18 -2062.14,3832.64 0,1603.87 822.77,3009.87 2062.14,3832.63z"/>
   <path class="fil1" d="M26843.39 7610.47c42.69,-820.2 485.39,-1587.01 1252.53,-2023.36 758.28,-431.3 1653.67,-425.59 2385.7,-69.46 5.13,8.77 14.07,3.68 19.24,12.46l-26.79 15.24 -3630.68 2065.12zm6601.29 1544c174.07,-479.23 266.8,-984.47 274.88,-1491.75l-2045.44 0c-8.71,801.96 -402.6,1579.07 -1122.78,2047.7 -442.11,287.67 -946.05,419.32 -1441.56,406.46 -560.37,-21.34 -1106.84,-225.84 -1537.9,-588.99l5904.3 -3357.47c-50.15,-123.14 -114.91,-260.12 -190.1,-403.16l0.86 -0.57c-93.17,-194.64 -206.27,-400.62 -330.88,-586.97 -99.81,-149.29 -208.88,-292.53 -325.26,-428.13 -119.14,-150.6 -239.1,-284.23 -353.2,-388.17 -315.48,-287.43 -668.89,-532.51 -1040.06,-719.36 -173.5,-83.58 -351.94,-156.26 -534.04,-217.91 -13.58,-4.58 -27.13,-9.24 -40.74,-13.72 -1293.04,-433.2 -2764.51,-302.39 -3991.35,495.89 -772.82,502.85 -1341.18,1200.88 -1673.13,1976.01 -404.1,943.66 -474.94,1998.68 -194.64,3007.54 129.21,414.34 323.98,834.62 578.87,1215.77 124.59,186.35 272.04,369.98 408.16,536.68 798.42,863.71 1868.89,1364.91 2985.91,1458.11 48.2,4.23 96.47,7.8 144.86,10.53 857.29,62.49 1745.52,-126.71 2548.39,-583.36 972.64,-553.23 1653.88,-1410.18 2006.73,-2375.13l-31.85 0z"/>
   <polygon class="fil1" points="36499.82,1.53 36499.82,12248.16 34485.92,12248.16 34485.92,1.53 "/>
  </g>
 </g>
</svg>
