<?xml version="1.0" encoding="UTF-8"?>
<!DOCTYPE svg PUBLIC "-//W3C//DTD SVG 1.1//EN" "http://www.w3.org/Graphics/SVG/1.1/DTD/svg11.dtd">
<!-- Creator: CorelDRAW -->
<svg xmlns="http://www.w3.org/2000/svg" xml:space="preserve" width="59.5807mm" height="60mm" version="1.1" style="shape-rendering:geometricPrecision; text-rendering:geometricPrecision; image-rendering:optimizeQuality; fill-rule:evenodd; clip-rule:evenodd"
viewBox="0 0 202.82 204.25"
 xmlns:xlink="http://www.w3.org/1999/xlink"
 xmlns:xodm="http://www.corel.com/coreldraw/odm/2003">
 <defs>
  <style type="text/css">
   <![CDATA[
    .fil1 {fill:black}
    .fil2 {fill:#000A08}
    .fil3 {fill:#CED8DB}
    .fil0 {fill:#DFEAED}
    .fil4 {fill:#E33E1D}
   ]]>
  </style>
 </defs>
 <g id="Camada_x0020_1">
  <metadata id="CorelCorpID_0Corel-Layer"/>
  <path class="fil0" d="M81.72 192.89l-4.28 -2.28 0.04 7.97 -9.65 -4.69c-3.05,-1.48 -6.09,-3.09 -9.26,-4.28 -3.36,-1.27 -6.9,-2.14 -10.35,-3.11 -7.45,-2.11 -14.91,-5.49 -21.38,-9.74 -6.53,-4.29 -11.74,-8.97 -16.32,-15.33 -5.16,-7.18 -10.08,-14.08 -9.61,-23.4l0.34 -6.73c-2.12,-9.78 -1.56,-19.09 2.08,-28.6l1.25 -3.27c-0.18,-0.92 -0.36,-1.85 -0.51,-2.77 -1.65,-9.82 -0.83,-18.34 1.97,-27.86 6.18,-20.99 21.21,-36.65 38.8,-48.85 9.16,-6.36 19.08,-11.34 29.97,-13.95 0.59,-0.14 1.19,-0.28 1.78,-0.4l4.23 -2.42c6.12,-3.49 21.24,-3.43 28.4,-2.95 7.98,0.53 15.69,2.68 23.12,5.54 20.36,7.82 36.23,15.88 49.28,34.05 12.84,17.88 20.32,38.69 20.91,60.76l0.3 11.1 -5.05 -2.51c-0.12,2.01 -0.29,4.03 -0.47,6.04 -0.44,4.72 -1.04,9.43 -1.76,14.11 -0.54,3.49 -1.12,6.99 -1.94,10.43 -3.34,14.07 -10.35,25.42 -19.44,36.47 -15.02,18.27 -35.33,26.41 -58.55,27.91 -5.37,0.35 -10.47,-0.1 -15.57,-1.88 -2.74,-0.96 -5.35,-2.45 -8.1,-3.27l-13.25 -3.99 3.03 -2.11zm19.8 -68.81c0.68,1.76 1.12,3.57 1.59,5.4 0.3,1.15 0.64,2.57 1.19,3.61 0.24,0.36 1.12,1.02 1.48,1.28 1.56,1.15 3.14,2.16 4.57,3.49 6.25,5.79 4.71,12.8 -0.58,18.54 -5.73,6.23 -17.01,8.05 -25.61,7.39 2.69,2.56 4.96,5.61 6.58,8.86 0.72,1.44 1.33,3 1.76,4.6 0.46,-0.24 0.91,-0.48 1.37,-0.72 3.05,-1.6 6.05,-3.3 9.01,-5.06 1.62,-0.96 3.23,-1.94 4.82,-2.95l2.15 -3.47c1.09,-1.76 2.44,-3.17 4.14,-4.35 0.8,-0.56 1.69,-1.03 2.47,-1.61l0.47 -0.35 0.53 -0.26c15.94,-7.95 22.1,-21.51 18.81,-38.85 -1.49,-7.83 -4.78,-15.55 -9.02,-22.28 -3.55,-5.64 -8.36,-11.52 -13.86,-15.36 -2.94,-2.06 -7.21,-3.28 -10.23,-0.69 -3,2.58 -2.89,7.17 -1.96,10.93 0.6,-0.32 1.22,-0.57 1.89,-0.73l9.91 -2.4 -0.02 0.13 1.87 -0.62 0.79 8.32c0.12,1.21 0.19,2.44 0.19,3.67l1.16 -0.37 -3.2 11.83c-1.38,5.1 -5.46,9.09 -10.19,11.21 -0.68,0.31 -1.38,0.57 -2.09,0.81z"/>
  <path class="fil1" d="M96.59 121.86c0.56,0.94 1.08,1.92 1.54,3 0.78,1.83 1.24,3.77 1.74,5.69 0.37,1.45 0.79,3.07 1.5,4.39 0.48,0.91 1.64,1.8 2.45,2.4 1.46,1.08 2.99,2.05 4.32,3.28 4.84,4.48 3.34,9.48 -0.77,13.94 -5.51,5.99 -17.67,7.23 -25.39,6.12 -4.1,-0.59 -8.13,-1.64 -12.17,-2.54 -1.03,-0.23 -2.09,-0.46 -3.16,-0.67 0.42,0.28 0.86,0.58 1.33,0.92 1.33,0.96 2.82,1.66 4.3,2.34 1.88,0.87 3.71,1.71 5.45,2.85 4.13,2.69 7.71,6.73 9.91,11.15 1.19,2.39 2.17,5.36 2.08,8.18 1.92,-0.82 3.86,-1.83 5.66,-2.78 3.12,-1.64 6.2,-3.38 9.23,-5.18 1.88,-1.12 3.75,-2.26 5.6,-3.45l2.57 -4.15c0.86,-1.39 1.9,-2.46 3.24,-3.4 0.84,-0.59 1.75,-1.07 2.57,-1.68l0.24 -0.18 0.27 -0.13c17.58,-8.77 24.35,-23.98 20.77,-42.81 -1.58,-8.31 -5.06,-16.5 -9.55,-23.63 -3.81,-6.05 -8.99,-12.32 -14.89,-16.45 -4.3,-3.01 -10.16,-4.16 -14.44,-0.49 -4.85,4.16 -4.24,11.45 -2.29,16.94 1.95,2.21 2.83,-0.26 5.2,-0.83l4.99 -1.21 -0.1 0.6 3.22 -1.06 0.4 4.2c0.25,2.65 0.31,5.51 -0.31,8.15l0.17 -0.05 -1.62 5.97c-1.12,4.16 -4.56,7.39 -8.4,9.11 -1.81,0.81 -3.72,1.31 -5.66,1.48zm-12.59 67.3l0.06 1.99 -10.44 -5.56c0.17,0.96 0.25,1.96 0.25,2.98l0.03 5.41 -4.87 -2.36c-3.12,-1.51 -6.38,-3.22 -9.62,-4.44 -3.42,-1.29 -7.19,-2.23 -10.71,-3.23 -7.15,-2.02 -14.43,-5.32 -20.63,-9.39 -6.29,-4.13 -11.17,-8.49 -15.57,-14.61 -4.69,-6.53 -9.49,-12.92 -9.06,-21.46l0.33 -6.44 0.28 0.21c-2.3,-9.42 -2.12,-18.6 1.62,-28.35l1.6 -4.19c-0.23,-1.23 -0.48,-2.45 -0.68,-3.66 -1.58,-9.42 -0.81,-17.4 1.9,-26.58 6.01,-20.38 20.71,-35.58 37.8,-47.44 8.91,-6.18 18.5,-11.02 29.08,-13.55 0.74,-0.18 1.48,-0.34 2.22,-0.49l4.73 -2.7c5.36,-3.06 20.37,-2.96 26.74,-2.54 7.7,0.51 15.15,2.61 22.33,5.36 19.95,7.66 35.42,15.41 48.16,33.15 12.55,17.47 19.87,37.79 20.45,59.38l0.15 5.6 -4.75 -2.36c-0.05,4.23 -0.4,8.39 -0.66,11.11 -0.44,4.69 -1.03,9.37 -1.75,14.02 -0.53,3.41 -1.11,6.9 -1.9,10.26 -3.25,13.71 -10.09,24.67 -18.93,35.41 -14.52,17.65 -34.12,25.46 -56.65,26.92 -4.97,0.32 -9.65,-0.06 -14.37,-1.71 -2.81,-0.98 -5.5,-2.5 -8.3,-3.35l-6.68 -2.01 2.56 -1.78c-1.24,-0.68 -2.44,-1.5 -3.64,-2.62l-1.07 -0.99z"/>
  <path class="fil2" d="M84.05 8.22l7 0.74c-5.3,2.15 -20,0.05 -42.78,15.85 -16.63,11.54 -30.76,26.15 -36.49,45.62 -6.85,23.24 2.49,30.01 -1.37,40.81l-1.53 -6.13c-4.48,11.69 -3.48,22.47 1.01,34.28 0.67,1.78 1.26,3.31 1.97,4.93 0.78,1.75 2.12,3.17 2.51,4.67 -2.68,-2.72 -4.74,-8.21 -7.49,-10.33 -0.4,7.85 4.87,14.37 8.43,19.32 4.13,5.74 8.58,9.75 14.68,13.76 5.46,3.59 12.53,6.94 19.7,8.97 11.61,3.29 10.7,2.93 20.89,7.88 -0.03,-5.59 -2.61,-7.04 -4.5,-9.84 2.43,0.72 5.01,1.82 7.49,2.96l7.03 3.74c-0.09,-3.12 -0.75,-3.34 -1.3,-5.41 1.1,0.92 2.08,1.27 3.18,2.24 1.98,1.75 1,2.22 3.24,3.22 2.58,-4.29 -2.02,-14.06 -9.74,-19.1 -3.33,-2.17 -6.76,-3.02 -9.88,-5.28 -3.8,-2.75 -5.71,-3.44 -7.36,-7.93 7.62,-0.02 16.15,3.05 23.81,4.15 8.05,1.16 18.34,-0.62 22.43,-5.06 8.29,-9.01 -3.56,-10.24 -6.5,-15.76 -1.64,-3.08 -2,-7.16 -3.36,-10.35 -1.44,-3.37 -3.59,-5.86 -5.38,-8.7 7.81,3.28 16.21,-1.37 17.76,-7.09l-3.25 1.04c1.27,-2.12 2.98,-2.07 4.28,-5.53 0.92,-2.46 0.9,-5.53 0.63,-8.37 -1.94,0.64 -0.87,3.97 -5.23,5.38l0.87 -4.96c-0.9,0.22 -4.95,4.47 -8.96,-0.75 -7.28,-19.26 8.23,-30.26 21.62,-20.9 22.14,15.49 45.62,67.51 3.25,88.67 -1.88,1.4 -3.54,1.86 -4.96,4.15l5.21 -1.38c-4.15,4.53 -24.22,16.14 -31.07,18.77 -0.72,0.28 -0.6,0.18 -1.28,0.5 -1.28,0.6 -0.61,0.25 -1.16,0.66 2.75,2.54 5.33,3.22 9.34,4.75 -1.03,0.19 -1.47,-0.09 -2.89,0.9 5.7,1.72 9.65,5.69 21.49,4.92 23.03,-1.49 41.1,-9.68 54.26,-25.69 7.44,-9.05 14.87,-19.78 18.25,-34.05 2.12,-8.93 6.52,-39.16 2.72,-46.25 0.73,0.56 2.09,3.21 2.72,4.31 0.44,0.77 0.84,1.48 1.31,2.14 1.04,1.5 0.7,1.36 2.07,2.04 -0.57,-21.33 -7.91,-40.93 -19.82,-57.51 -11.92,-16.59 -26.12,-24.09 -46.63,-31.97 -6.38,-2.45 -13.65,-4.64 -21.34,-5.15 -5.95,-0.39 -20.44,-0.41 -24.85,2.1z"/>
  <path class="fil0" d="M68.34 94.37l-0.92 -1.2c-0.18,-0.32 -0.39,-0.94 -0.51,-1.3 -0.31,-0.9 -0.5,-1.68 -0.79,-2.6 -0.54,-1.71 -0.37,-3.67 -0.64,-5.58 -3.64,-25.81 13.88,-48.96 40.21,-53.38 15.26,-2.57 31.68,1.86 41.86,11.45 6.51,9.68 15.9,22.21 14.05,31.94 -3.52,-8.39 -2.72,-15.63 -12.18,-20.51 0.96,3.18 10.05,17.21 7.42,20.75 -0.82,-2.4 -3.91,-4 -5.71,-5.93 0.31,3.85 6.3,12.44 9.36,28.05 2.23,-2.06 4.19,-8.07 4.73,-10.81 0.36,-1.83 0.77,-6.4 0.94,-6.72 1.05,1.8 1.64,3.6 2.27,6 3.08,11.86 1.89,25.38 1.7,37.46 0.58,-0.69 0.41,-0.06 1.25,-1.64 0.07,-0.13 0.31,-0.37 0.37,-0.51l1.22 -4.51c0.29,2.5 -2.22,12.01 -2.73,14.1 -2.12,9.67 -4.22,15.79 -9.11,23.15 -8.64,13.02 -11.25,15.16 -24.41,24.84 -3.48,2.56 -6.06,4.19 -10.48,6.42l-16.91 8.22c-2.15,0.85 -5.05,0.81 -6.9,1.79 11.36,4.69 35.61,-0.42 44.92,-5.77 15.08,-8.67 17.44,-13.81 27.59,-26.3 5.73,-7.05 12.75,-28.07 14.09,-39.18 4.11,-34.02 -3.98,-36.64 -4.8,-45.67 2.17,1.74 4.97,7.31 6.62,9.73 0.07,-0.15 0.13,-0.53 0.15,-0.46 0.02,0.08 0.11,-0.35 0.13,-0.46 0.54,-3.33 -0.09,2.74 0.16,-0.98 0.06,-0.83 -0.06,-1.69 -0.2,-2.5 -0.25,-1.49 -0.6,-2.68 -1.1,-4.03l-9.62 -21.38c-4.4,-7.73 -12.03,-18.24 -18.96,-23.26 -10.13,-7.34 -12.04,-10.93 -26.71,-15.85 -10.17,-3.41 -24.85,-6.19 -36.51,-6.35 -13.22,-0.19 -25.11,2.29 -35.77,7.09 -12.93,5.82 -16.09,7.77 -25.62,16.91 -15.76,15.12 -17.86,33.98 -11.35,53.65l2.24 5.79c0.59,3.24 0.63,0.72 -0.44,2.07 -1.59,-4.05 -4.44,-7.64 -6.18,-12.87 -1.69,-5.1 -2.18,-11.21 -1.9,-17.33 -5.39,9.03 -2.16,26.5 2.82,36.34 2.68,5.3 6.32,9.88 9.75,13.31 2.4,2.4 10.17,9.03 12.82,10.07 -2.41,-2.04 -5.84,-4.8 -7.14,-7.99 1.63,0.78 0.19,-0.08 1.68,1.03 8.8,6.55 10.84,8.63 25.2,10.41 24.89,3.09 27.05,6.43 31.48,7.08 0.64,-9.63 -4.88,-17.49 -11.78,-23.45 -2.05,-1.77 -2.8,-2.76 -4.57,-4.13 -5.63,-4.38 -8.08,-7.33 -11.09,-15.01z"/>
  <path class="fil3" d="M68.34 94.37c-2.46,-14.9 -1.95,-20.5 4.55,-33.13 5.05,-9.82 11.51,-14.23 23.15,-18.1 13.55,-4.49 30.71,-0.29 41.71,6.78 4.57,2.93 15.14,9.98 16.48,14.89 -2.75,-1.82 -3.91,-3.38 -6.14,-5.51 -5.72,-5.46 -15.09,-11.96 -24.1,-12.74l4.07 2.95c6.74,3.75 12.68,8.73 17.24,14.73 8.59,11.31 14.64,36.43 14.19,49.45 2.58,-1.26 4.43,-7.71 5.17,-10.33 1.54,-5.46 0.44,-9.51 1.37,-14.49 1.88,3.61 3.47,35.33 -1.71,45.05 1.59,-0.39 2.04,-1.15 3.15,-2.46 0.27,-0.32 0.97,-1.33 1.31,-1.7 1.31,-1.42 0.28,-2.07 1.47,-0.33 1.19,-1.54 3.48,-13.68 3.19,-16.18l-1.84 6.36c-0.07,0.14 -0.14,0.28 -0.21,0.41 -0.84,1.57 -0.19,0.46 -0.77,1.15 0.61,-11.91 1.97,-26.66 -1.1,-38.52 -0.62,-2.4 -2.56,-8.25 -3.61,-10.05 -0.17,0.32 -0.99,9.51 -1.36,11.34 -0.54,2.74 -1.37,8.58 -3.6,10.64 -3.06,-15.61 -9.51,-22.73 -9.81,-26.59 1.8,1.93 6.22,8.72 7.05,11.12 2.63,-3.54 -5.88,-20.98 -6.85,-24.16 3.16,1.63 5.92,7.56 7.31,10.79 1.82,4.22 3.16,10.45 4.29,13.13 2.27,-9.98 -6.35,-29.38 -15.12,-37.64 -10.18,-9.59 -26.72,-14.01 -41.99,-11.45 -26.33,4.43 -44.56,28.15 -40.93,53.97 0.27,1.91 0.68,3.81 1.22,5.52 0.29,0.92 0.48,1.69 0.79,2.6 0.12,0.36 0.34,0.99 0.51,1.3l0.92 1.2z"/>
  <path class="fil4" d="M87.63 141.26c0,0.31 -0.53,1.05 -1.28,1.72 -0.75,0.67 -1.16,0.88 -2.17,1.17 -1.01,0.3 -2.05,0.11 -3.01,-0.22 -1.12,-0.38 -2.28,-1.46 -3.39,-2.7 -0.23,-0.26 -2.31,-2.51 -0.51,-2.51 1.8,0 2.91,-0.02 4.59,0.32 2.28,0.47 2.96,0.75 5.09,1.57 0.28,0.16 0.69,0.34 0.69,0.65z"/>
 </g>
</svg>
