<?xml version="1.0" encoding="UTF-8"?>
<!DOCTYPE svg PUBLIC "-//W3C//DTD SVG 1.1//EN" "http://www.w3.org/Graphics/SVG/1.1/DTD/svg11.dtd">
<!-- Creator: CorelDRAW -->
<svg xmlns="http://www.w3.org/2000/svg" xml:space="preserve" width="120mm" height="120mm" version="1.1" style="shape-rendering:geometricPrecision; text-rendering:geometricPrecision; image-rendering:optimizeQuality; fill-rule:evenodd; clip-rule:evenodd"
viewBox="0 0 3311.81 3311.81"
 xmlns:xlink="http://www.w3.org/1999/xlink"
 xmlns:xodm="http://www.corel.com/coreldraw/odm/2003">
 <defs>
  <style type="text/css">
   <![CDATA[
    .fil0 {fill:#000205}
    .fil2 {fill:#C6D4D4}
    .fil4 {fill:#CF0C3D}
    .fil3 {fill:#EBECE5}
    .fil1 {fill:#FEFEFE}
   ]]>
  </style>
 </defs>
 <g id="Camada_x0020_1">
  <metadata id="CorelCorpID_0Corel-Layer"/>
  <g id="_2586793511056">
   <path class="fil0" d="M1606.91 2347.87l384.27 -0.19c-4.11,6.33 -11.82,9.89 -18.45,12.91 -7.81,3.55 -13.51,7.27 -21.78,11.24 -53.75,25.82 -83.47,40.79 -151.5,46.32 -35.84,2.92 -90.74,-1.5 -118.36,-13.59 -15.7,-6.87 -27.6,-15.15 -40.87,-24.88 -6.67,-4.89 -12.22,-9.82 -18.05,-14.78 -6.7,-5.7 -11.78,-8.32 -15.25,-17.01zm295.81 -570.86l86.05 65.98c21.92,19.4 69.19,45.31 114.03,40.57 26.83,-2.84 63.19,-15.29 83.42,-31.99l75.51 -59.75c13.02,-13.72 15.56,-13.59 33.06,-24.7 3.94,-4.98 23.3,-20.69 30.77,-23.69 11.32,10.89 20.11,17.56 31.01,27.99l195.74 172.86c19.97,19.08 84.15,72.11 97.12,86.16l192.31 175.49c7.38,4.07 17.49,14.09 23.05,22.53 -1.95,6.02 -1.8,9.03 -8.05,13.76 -16.33,12.35 -35.52,9.05 -55.48,8.78 -139.95,-1.89 -291.3,0.3 -432.88,0.04 -28.33,-0.05 -157.2,-1.35 -174.42,1.19 3.29,-27.6 4.37,-48.72 4.79,-77l0.56 -25.87c-6.34,4.16 -10.39,9.49 -15.68,15.06l-14.99 17.29 -53.26 56.17c-1.44,4.41 -4.23,8.15 -8.69,12.89l-550.26 -0.01c-16.51,-49.32 -8.91,-35.89 -33.25,-87.45 -6.7,-14.2 -10.86,-28.52 -17.42,-43.67 -5.41,-12.49 -15.91,-29.56 -19.55,-42.29l79.78 -73.26c5.34,-4.1 7.3,-6.36 12.35,-10.77l34.46 -31.2c6.59,-6.15 7.43,-6.01 13.08,-10.04 9.31,-6.64 15.48,-13.79 23.44,-20.99 9.03,-8.19 16.37,-11.69 24.2,-20.19 8.46,-9.19 13.55,-12.58 23.6,-20.8l165.57 -145.17 40.05 32.06zm-516.22 335.01c-8.24,-5.83 -29.89,-45.85 -43.93,-64.29 -10.47,-13.76 -24.88,-31.21 -38.23,-42.58 -4.15,-3.53 -9.09,-9.71 -12.93,-14.04 -9.91,-11.16 -17.28,-16.17 -27.98,-26.02 -63.27,-58.25 -88.3,-70.4 -166,-106.94 -90.65,-42.62 -171.35,-50.23 -275.67,-54.61 15.57,-7.24 74.6,-14.96 96.7,-15.95 38.98,-1.75 72.81,0.59 109.83,4.87 36.63,4.23 97.9,23.08 130.69,38.61 20.97,9.93 20.01,7.66 37.57,20.69 25.4,18.84 33.46,16.33 64.17,47.95 4.74,4.88 8.27,7.96 13.65,13.3 5.38,5.34 8.09,9.93 13.71,15.21 23.35,21.92 57.7,73.3 67.21,101.78 8.4,25.16 26.49,56.3 31.2,82.02zm1527.61 -498.14c6.01,-8.72 38.73,-26.48 50.94,-36.51 15.33,-12.6 40.06,-31.6 64.29,-11.77 -0.16,18.34 -27.82,32.16 -42.7,38.16 -19.1,7.7 -48.86,14.89 -72.53,10.12zm-31.43 -90.97l7.42 -6.3c20.77,-14.36 51.17,-30.5 66.4,-47.57 5.82,-6.53 7.19,-6.69 13.98,-11.23 20.28,-13.57 91.75,13.69 4.21,53.31 -25.88,11.72 -58.72,14.12 -92.01,11.8zm-11.57 -103.47c6.31,-3.67 10.39,-5 16.56,-8.72 13.83,-8.35 61.06,-52.02 69.05,-56.65 19.16,-11.11 66.29,2.8 28.93,37.23 -8.75,8.06 -19.03,14.19 -31.81,18.68 -18.78,6.58 -58.61,18 -82.73,9.46zm-2051.29 -176.19c15.4,23.01 15.8,58.38 69.03,127.61 24.6,31.99 46.74,56.38 77.3,82.6 3.99,3.42 5.98,5.51 10.04,9.17l34.46 27.48c8.5,7.51 14.28,10.15 23.61,16.88l102.13 59.67c-16.74,-0.23 -57.93,-14.61 -74.94,-21.46 -11.25,-4.53 -22.62,-9.58 -34.07,-14.57 -30.86,-13.44 -95.43,-54.79 -114.82,-78.62 -6.95,-8.54 -15.82,-19.42 -25.14,-24.28 -1.31,53.73 9.34,48.63 8.77,65.32 -29.54,-25.58 -50.55,-68.44 -61.86,-103.84 -12.22,-38.25 -8.81,-26.51 -14.49,-67.38 -1.69,-12.14 -3.65,-71.07 -0.02,-78.59zm1607.9 492.53l-46.22 -39.89 23.2 -18.01c8.29,-6.92 10.48,-6.71 22.21,-18.37 5.11,-5.08 10.03,-7.53 16.73,-12.3l174.61 -140.17c23.76,-17.21 57.15,-47.04 85.14,-67.51 5.74,-4.2 8.61,-8.33 14.35,-12.67l77.09 -60.07c21.32,-20.5 11.17,-10.03 31.11,-24.95 2.71,-2.03 5.41,-3.87 7.67,-5.91 19.74,-17.82 18.42,-14.17 31.21,-24.8 6.17,-5.12 1.49,-3.99 8.71,-6.68 2.92,-4.47 17.37,-17.57 25.32,-17.86 -8.28,58.03 13.16,54.64 -29.86,94.73 -10.44,9.73 -23.8,20.42 -36.24,27.49 -8.77,4.98 -38.09,18.42 -42.4,22.66 5.38,5.26 36.85,15.95 46.62,18.46 21.62,5.55 36.68,6.06 60.68,6.65 1.52,15.39 -8.39,18.72 -16.78,24.89 -29.76,21.89 -17.64,11.43 -39.79,24.12 -21.39,12.26 -30.02,12.42 -45.09,20.3 4.83,5.03 12.89,8.89 20.3,11.97 21.21,8.84 41.05,18.6 65.68,19.53 4.78,0.18 13.44,-0.12 15.9,2.88 10.15,23.76 -9.39,29.6 -23.04,38.13l-42.88 21.49c-0.34,0.16 -1,0.44 -1.44,0.74l33.5 13.14c8.43,2.99 28.63,10.07 34.84,13.55l-0.05 504.4c-6.16,-1.2 -33.72,-29.98 -41.7,-37.33 -5.74,-5.28 -9.64,-8.26 -15.46,-13.53l-43.72 -39.18c-42.52,-37.61 -90.66,-82.97 -132.37,-118.45 -9.67,-8.23 -19.01,-16.42 -29.52,-24.6 -10.27,-7.99 -18.44,-19.32 -28.83,-27.09l-149.64 -130.22c-5.64,-4.73 -8.04,-6.87 -14.4,-12.62 -5.11,-4.62 -10.39,-8 -15.44,-12.96zm-1111.81 -538.48c-5.72,-20.87 10.61,-35.48 26.5,-40.41 12.4,-3.84 466.63,-1.5 490.75,-1.5 138,-0.04 284.13,1.97 421.07,0.45 18.43,-0.21 53.13,-2.09 68.9,1.88 48.81,12.3 54.91,19.79 120.28,11.8 21.94,-2.68 38.01,-13.43 56.68,-14.1 45.96,-1.65 95.32,0.38 141.76,0.16 46.56,-0.21 93.13,0.04 139.7,-0.12 21.02,-0.07 50.22,-2.99 67.75,3.21 16.86,5.97 27.71,22.48 17.92,45.23 -9.74,22.63 -20.34,21.26 -32.62,34.89l-153.22 123.05c-22.7,18.62 -27.99,18.91 -58.14,46.08 -4.91,4.42 -13.88,10.1 -20.01,14.8 -12.99,9.94 -25.67,20.98 -38.86,30.77 -5.89,4.37 -9.35,9.36 -17.31,15.46l-58.92 45.44c-10.47,9.65 -19.66,14.64 -28.51,21.77l-104.15 85.07c-7.79,5.6 -12.22,8.82 -19.47,15.26l-173.67 137.38c-23.89,14.56 -36.08,33.26 -73.4,31.2 -41.68,-2.3 -92.36,-56.21 -126.13,-80.65l-182.67 -145.76c-4.2,-3.56 -5.75,-4.52 -9.74,-7.66 -20.13,-15.79 -19.87,-13.37 -37.42,-30.17 -6.52,-6.25 -12.07,-9.02 -20.01,-14.82 -7.07,-5.16 -10.58,-10.29 -18.61,-16.08l-135.7 -105.82c-21.59,-16.65 -10.84,-12.47 -38.88,-30.74l-191.88 -153.87c-3.43,-4.13 -10.42,-16.4 -12.01,-22.2zm469.09 -138.25c3.4,-10.64 11.55,-17.55 17.27,-25.53 10.27,-14.33 36.13,-33.86 51.58,-44.81 35.23,-24.98 86.85,-39.12 140.7,-36.74 61.32,2.72 119.64,39.74 162.9,71.93 6.37,4.74 39.87,28.29 44.22,34.38l-416.66 0.77zm738.14 -32.32c8.03,-5.44 18.72,-14.94 25.71,-18.58 -4.53,15.66 -7.03,35.84 -16.05,50.3 -4.23,6.78 -9.13,17 -17.87,22.69 -15.01,9.77 -78.6,14.22 -94.57,3.93 -1.6,-8.89 19.55,-28.13 26.36,-32.38 5.2,6.85 3.73,11.62 5.09,21.02 4.9,-5.26 7.39,-7.35 11.48,-14.37l25.09 2.72c7.13,10.01 1.59,16.48 11.81,21.09l1.46 -3.17c4.94,-13.06 -1.86,7.08 1.12,-3.17l1.54 -15.6c-0.91,-17.3 -3.63,-6.12 -7.46,-16.73l26.3 -17.76zm-169.04 25.15c6.5,-10.27 32.91,-27.1 45.69,-35.86 30.08,-20.62 30.87,-29.42 41.25,-37.66 2.01,27.46 -13.12,64.97 -25.2,83.21 -11.49,17.36 -17.63,21.33 -32.46,15.55 -21.5,-8.37 -19.59,-5.8 -29.28,-25.26zm-1013.79 274.88l175.49 139.15c5.91,4.62 7.75,6.31 13.82,11.33 3.33,2.75 4.27,2.9 7.66,5.9l123.37 98.75c9.03,6.75 21.15,15.27 29.06,23.15 8.73,8.7 18.05,14.9 29.26,22.8l86.81 69.37 -3.55 3.06c-0.3,0.25 -0.81,0.65 -1.14,0.92 -2.46,2.06 -1.72,1.35 -4.08,3.53l-28.77 22.37c-3.53,4.8 -5.24,4.71 -9.92,8.43 -4.27,3.39 -5.45,5.54 -9.69,9.51l-140.36 122.16c-7.26,5.84 -13.01,11.96 -20.45,18.14 -26.16,21.74 -116.73,105.27 -138.35,121.48 -9.81,-8.96 -25.61,-37.78 -34.79,-50.87 -18.84,-26.84 -26.43,-32.16 -37.48,-47.13 -11.18,-15.14 -72.63,-74.97 -89.71,-81.77 0.25,-26.62 4.54,-91.8 -1.68,-112.95 17.64,6.41 22.47,14.84 36.9,22.3 32.48,16.78 52.4,39.63 68.92,71.71 1.58,3.07 2.75,5.84 4.14,9.11l4.62 9.5c6.24,-17.06 14.73,-34.16 15.68,-55.22 1.08,-24.09 -7.45,-36.96 -11.63,-56.71 6.33,-3.7 7.9,-4.05 14.14,-0.79 14.96,7.83 24.9,16.41 36.65,27.36 24.73,23.04 29.54,43.21 37.76,47.23 6,-26.54 8.22,-50.17 0.03,-77.79 -14.81,-49.91 -29.86,-44.82 -16.09,-61.87 15.06,3.98 26.44,16.12 38.72,26.86 10.84,9.47 19.54,24.3 25.76,36.42 8.38,-22.88 2.62,-76.46 -10.52,-94.44 -3.48,-4.77 -4.54,-3.84 -8.79,-10.45 -3.36,-5.23 -3.3,-4.48 -7.71,-9.61 -28.57,-33.2 -23.83,-66.34 -53.9,-95.52 -20.92,-20.31 -55.17,-45.83 -92.27,-58.76 -29.84,-10.4 -85.17,-41.61 -109.43,-61.21 -5.29,-4.27 -6.14,-4.47 -11.2,-8.14 -8.95,-6.49 -12.08,-11.77 -18.77,-17.84l-36.35 -38.82c-48.76,-65.34 -67.88,-154.32 -50.96,-236.4 3.69,-17.91 12.71,-37.38 19.77,-54.52 7.01,-17.03 13.81,-36.73 26.84,-48.33 -7.73,32.08 -19.99,76.41 -19.05,111.5 1.06,39.11 2.81,77.89 16.1,111.97 5.98,15.34 12.71,31.46 18.82,46.31 10.56,25.66 64.52,101.08 85.17,107.67l-0.61 -70.59 51.77 41.75zm942.82 -336.96c14.96,4.12 35.06,-5.98 48.96,-5.29 0.6,14.12 -1.59,25.85 -2.67,39.18 -1.95,24.03 -9.86,7.65 -38.75,-21.87l-47.89 -57.98c-7.24,-10.17 -36.11,-59.4 -38.41,-69.81l36.06 2.04 -3.42 56.37 48.32 -3.2c0.31,19.86 -8.01,41.65 -2.21,60.57zm322.29 -133.17c-1.61,-16.03 -1.4,-31.39 1.57,-45.87 26.75,-0.63 62.62,9.95 127.88,6.79 -7.37,33.77 -47.55,72.54 -75.39,90.22 1.46,-7.68 4.07,-14.55 5.61,-24.21 5.34,-33.27 30.69,-14.08 38.2,-55.38 -8.61,5.91 -13.19,22.78 -27.84,25.99l-0.73 -20.58c-8.13,8.41 -8.75,12.81 -29.57,20.85l-2.11 -24.65c-0.01,0.02 -27.81,27.94 -37.62,26.83zm-94.23 44.16c4.71,-32.36 18.54,-33.53 14.97,-113.32 5.4,0.3 60.21,17.87 66.73,20.79 -1.62,6.06 -4.63,10.7 -7.18,16.07l-16.22 25.92c-2.52,3.75 -1.44,2.64 -4.99,6.55l-4.87 4.78c-12.22,12.15 -28.89,32.17 -48.44,39.22zm-197.75 -156.52c37.77,-9.3 60.5,-15.81 101.68,-3.42 18.58,5.59 67.46,24.5 83.23,33.41 -2.91,7.04 -3.72,6.48 -8.63,10.74l-28.88 22.8c-6.06,-8.03 -13.28,-41.99 -21.3,-55.87 -4.71,5.77 -40.04,28.88 -45.6,30.82 -10.19,-10.51 -13.16,-24.31 -17.82,-34.88l-3.54 -7.64c-0.16,-0.29 -0.57,-0.89 -0.71,-1.12 -0.13,-0.22 -0.66,-0.48 -0.76,-1.07 -0.1,-0.59 -0.48,-0.74 -0.78,-1.05 -17.41,13.63 -9.32,13.58 -39.35,31.23 -6.95,-4.66 -13.06,-14.4 -17.53,-23.96zm401.54 -71.99c7.72,-12.67 33.49,-16.3 52.75,-16.96 19.35,-0.67 51.09,0.87 49.37,20.6 -2.38,27.31 -82.28,15.74 -102.12,-3.64zm-996.53 -302.33c21.45,-1.96 33.74,-6.06 59.36,-3.31 -3.82,3.69 -13.63,8.04 -18.56,11.97 -31.39,25.01 -43.65,64.65 -31.73,102.46 7.51,23.81 15,34.35 17.09,40.86 -10.14,-5.79 -19.03,-19.22 -26.28,-28.44 -13.95,-17.73 -28.46,-53.29 -30.85,-76.2 -1.16,-11.14 -0.61,-26.14 2,-37.4l4.83 -9.7c-0.9,-14.4 18.4,-43.14 25.99,-51.74 26.4,-29.91 65.68,-45.14 109.16,-47.62 24.44,-1.39 51.21,7.51 70.16,6.04 -39.83,-30.75 -106.01,-50.26 -158.8,-33.23 -38.87,12.54 -29.46,13.72 -41.87,18.34 -4.27,1.59 -1.58,0.87 -5.83,1.49 -7.18,9.65 -31.67,23.96 -49.42,54.96 -16.13,28.16 0.68,22.26 -64.63,32.58 -17.93,2.83 -34.2,6.75 -52.28,10.28 -31.58,6.17 -68.68,15.58 -98.71,24.25l-94.07 30.42c-31.18,11.89 -60.2,23.21 -87.48,35.08l-84.47 39.89c-28.08,13.79 -36.24,16.79 -60.47,32.67l-48.08 27.53c-10.1,5.29 -7.51,5.67 -13.63,9.43l-51.32 33.85c-4.66,3.36 -5.24,2.56 -9.85,5.73l-8.74 6.68c-9.29,6.63 -25.98,20.15 -36.05,24.25 -16.1,16.32 -35.78,24.48 -53.02,41.23 -11.14,10.83 -27.09,21.41 -38.37,31.21 -5.19,4.51 -8.77,5.69 -10.99,11.57l41.83 -17.89c53.8,-21.77 131.08,-40.57 190.53,-47.57 35.47,-4.18 145.5,-14.91 169.23,-5.35 -4.27,4.09 -59.09,19.34 -69.98,23.17 -11.94,4.19 -23.83,9.23 -34,12.77 -19.05,6.63 -30.37,13.45 -48.02,19.92l-31.49 15.28c-25.26,11.18 -48,26.84 -71.57,40.74 -28.05,16.53 -105.4,74.58 -127.56,100.44 -3.46,4.04 -2.62,2.83 -5.63,5.91 -3.3,3.39 -1.9,2.3 -5.92,5.65 -27.69,23.13 -75.22,81.93 -92.23,109.81 -4.29,7.04 -5.37,8.74 -9.42,13.6 -8.77,10.52 -52.57,87.56 -58.22,99.03 -39.04,79.37 -45.42,116.46 -70.45,198.74 -13.06,42.92 -12.25,127.05 -21.44,156.69 -10.02,-11.85 -22.1,-111.96 -25.55,-135.28 -7.19,-48.54 -2.9,-101.58 3.03,-150.23 -2.06,2.03 -1.13,0.95 -3.15,3.86 -1.29,1.86 -1.07,1.66 -2.3,3.88 -9.22,16.71 -16.25,34.53 -21.2,53.19 -6.08,22.9 -13.7,45.2 -19.28,66.5 -25.59,97.63 -34.04,208.01 -23.34,309.57 3.39,32.21 7.08,79.17 17.01,110.26 8.71,27.27 16.47,68 27.46,100.07 14.17,41.31 31.97,82.2 50.71,121.34 25.72,53.72 62.66,113.19 97.96,160.84 13.49,18.21 41.23,56.76 56.65,72.23 4.38,4.39 17.58,17.72 19.16,22.3 -12.79,-1.62 -86.75,-50.59 -104.11,-67.36 -14.07,-13.59 -18.24,-13.86 -25.61,-20.72 -17.3,-16.12 -32.36,-27.55 -47.6,-44.92 -7.66,-8.73 -21.91,-20.85 -30.61,-31.04l-55.48 -67.66c3.44,22.78 38.49,81.64 51.3,101.93 28.76,45.57 48.71,69.66 80.37,109.77 12.05,15.27 40.22,43.21 55.12,58.5l30.64 27.31c3.87,3.28 6.01,6 9.82,9.35 20.36,17.92 44.39,34.24 63.26,50.76 7.26,6.36 13.37,9.25 22.85,15.81 77.3,53.54 163.47,97.48 253.58,128.8 9.26,3.22 110.4,33.86 116.63,38.02 -39.12,-0.06 -72.76,0.54 -111.04,-3.35 -32.51,-3.3 -66.16,-8.7 -96.95,-15.6 2.6,5.44 -0.17,2.2 5.89,6.23l22.49 12.39c10.15,5.23 20.99,9.99 31.59,15.03 7.29,3.47 8.35,6.06 14.48,8.7l50.22 17.99c72.72,26.07 145.29,44.39 222.79,56.37 188.73,29.17 385.96,3.73 553.45,-72.47 11.9,-5.41 18.47,-10.47 30.64,-15.91 49.71,-22.26 96.27,-57.4 137.53,-90.91l48.45 -40.62c-0.19,3.24 -0.54,6.55 -1.44,10.51 -2.25,9.85 0.02,2.55 -3.57,7.76 -9.31,13.51 -14.76,32.1 -22.43,46.17 -16.59,30.42 -35.23,58.19 -58.15,84.06 -7.53,8.51 -14.5,15.41 -22.06,24.17 -10.68,12.36 -44.23,37.08 -49.19,46.15 17.27,-3.07 38.29,-12.97 53.63,-19.28 54.66,-22.47 93.61,-37.02 146.41,-65.31 8.9,-4.77 16.18,-7.39 25.02,-11.81l66.53 -38.1c8.48,-5.18 12.59,-10.18 21.74,-15.02l42.74 -26.98c6.42,-4.77 13.72,-9.31 20.6,-14.25l41.63 -29.91c20.68,-14.49 16.33,-21.84 48.26,-21.62l287.29 0.01c47.35,-0.07 97.39,1.5 144.36,-0.18 -2.93,7.03 0.49,0.92 -4.4,6.09 -4.76,5.03 -22.5,27.44 -25.63,28.1 -3.09,7.8 -8.37,15.02 -13.68,20.94 -6.17,6.88 -12,9.87 -17.14,17.49l-15.78 18.98c-25.24,22.04 -50.12,53.35 -86.66,84.83l-156.45 120 -153.42 86.93 -172.58 70.41c-15.9,5.38 -39.26,11.99 -51.07,17.96 116.86,15.04 218.74,-19.14 249.86,-17.33 -0.45,0.36 -1.22,0.19 -1.49,0.9 -0.27,0.7 -1.12,0.67 -1.49,0.86l-42.93 18.23c-9.52,2.88 -7.47,3.65 -15.95,7.18 -17.53,7.31 -48.27,15.81 -65.88,23.45 -18.34,7.95 -45.3,14.27 -66.16,21.51 -45.29,15.72 -177.63,42.95 -221.65,46.82 -25.11,2.21 -51.97,6.39 -78.75,8.38 -141.28,10.48 -281.34,7.98 -419.44,-16.22 -67.51,-11.83 -148.23,-30.98 -214.65,-51.1 -16.42,-4.98 -58.45,-20.31 -67.31,-20.47l83.15 61.68c7.07,4.69 7.31,3.88 12.38,9.4 12.92,5.3 35.88,19.11 49.98,27.18 14.61,8.36 33.88,17.49 51.54,25.04 -32.36,-2.39 -149.77,-45.53 -180.55,-56.05 -8.46,-2.9 -15.47,-5.7 -22.19,-8.88 -6.37,-3.02 -13.55,-4.87 -20.69,-8.46 -11.01,-5.54 -28,-13.77 -39.48,-18.75 -56.9,-24.68 -121.62,-59.45 -173.76,-93.91l-35.65 -22.51c-6.29,-4.33 -10.34,-8.57 -16.85,-12.16l-69.06 -48.84c-10.93,-9.78 -21.62,-16.63 -32.95,-25.04l-48.17 -40.63c-23.79,-18.05 -13.96,-11.88 -30.15,-27.72 -12.55,-12.28 -31.63,-27.2 -46.19,-42.57l-28.05 -29.75c-36.93,-32.78 -35.74,-39.31 -56.38,-61.11l-80.59 -96.33 -94.58 -139.68c-9.33,-17.79 -58.07,-105.01 -62.7,-109.21l-0.98 14.97c4.05,5.99 2.67,18.54 3.08,26.36l9.27 75.94c9.62,50.99 15.53,92.81 26.7,146.21 3.59,17.19 8.31,29.63 12.5,46.68 7.88,32.04 14.55,61.57 24.37,91.49l16.21 41.25c3.05,7.67 4.6,14.69 6.61,21.81 3.1,11 4.58,11.54 9.28,19.55 7.92,13.5 9.23,28.37 15.89,41.4 6.61,12.93 12.48,27.65 18.64,40.59 12.95,27.2 33.94,69.59 49.97,95.61l21.28 36.04c3.94,5.54 10.06,11.35 10.17,18.26l-72.79 -81c-10.16,-13.33 -19.16,-21.71 -23.98,-29.85 -9.5,-16.05 -19.32,-24.89 -32.92,-43.94 -3.81,-5.34 -7.4,-11.05 -10.85,-16.09 -8.43,-12.33 -11.82,-13.71 -21.44,-30.34l-30.2 -48.5c-12.82,-18.19 -38.65,-71.17 -50.94,-92.72l-73.92 -176.36c-5.73,-25.29 -17.28,-52.85 -24.87,-78.48 -7.79,-26.32 -34.17,-145.54 -36.19,-170.62 -2.5,-31.04 -7.75,-62.94 -10.65,-93.93 -8.44,-90.31 -6.42,-203.58 3.33,-294.99 1.64,-15.42 4.28,-30.62 6.19,-45.39 1.63,-12.63 5.9,-34.42 5.09,-45.66 -0.52,4.56 -25.95,22.95 -41.47,46.47 -4.43,6.71 -7.32,14.36 -14.85,18.46 -3.15,9.28 -20.31,30.42 -27.09,41.48l-25.46 43.45c-3.92,-8.42 15.63,-144.22 20.24,-161.9 6.25,-23.94 11.07,-51.97 17.6,-75.38 3.73,-13.37 4.76,-24.08 8.98,-36.91l21.65 -71.58c2.78,-11.56 7.72,-22.44 11.33,-34.61l25.28 -68.2c34.57,-86.15 75.74,-169.4 125.47,-247.87 67.66,-97.36 117.03,-165.38 193.75,-252.17 20.41,-18.27 38.44,-38.06 57.78,-57.47 -17.42,-0.79 -94.67,25.52 -114.54,33.26l-101.57 43.73c3.46,-8.84 19.93,-27.65 29.19,-35.86l82.54 -81.26c51.37,-53.68 137.27,-115.67 200.73,-160.51 4.6,-2.9 4.96,-3.68 10.09,-7.26 28.93,-18.63 61.11,-39.9 90.63,-56.66 21.17,-12.02 42.05,-23.86 63.9,-34.95 15.69,-7.97 67.22,-30.11 79.04,-37.44 16.62,-10.31 37.59,-16.27 54.53,-25.37 -24.52,-5.49 -94.89,3.47 -121.22,6.2 -20.77,2.15 -38.17,3.79 -57.77,7.26 -11.48,2.03 -16.11,4.77 -24.49,6.8l-23.26 2.38c-0.34,-0.04 -1.23,0.14 -1.47,-0.39 -0.24,-0.53 -1,-0.23 -1.45,-0.44 20.66,-6.75 43.05,-22.23 61.24,-32.06 14.38,-7.76 41.79,-17.64 51.61,-26.01 12.67,-10.82 71.96,-38.21 91.81,-47.87 7.06,-3.43 14.17,-5.62 21.9,-9.24 5.98,-2.8 13.29,-7.38 20.28,-10.79 34.37,-16.8 73.86,-32.94 109.89,-45.63l8.79 -3.12c0.39,-0.19 0.89,-0.46 1.27,-0.66 0.36,-0.2 0.82,-0.52 1.17,-0.72l10.18 -5.06c48.15,-14.84 91.14,-32.83 140.16,-46.85 15.72,-4.49 31.49,-11.14 47.29,-15 49.34,-12.07 98.47,-25.88 149.84,-37.32 105.53,-23.49 230.88,-36.89 341.59,-35.76 171.73,1.74 313.76,31.74 466.48,97.05 13.37,5.72 26.89,17.12 41.31,19.78l-10.59 -55.95c7.84,2.03 13.27,7.25 21.04,11.02 6.67,3.23 11.13,6.6 18.38,10.67 17,9.54 54.48,35.77 69.59,48.44l90.27 85.17c19.19,20.65 34.94,41.11 52.04,65.29 10.26,14.5 18.24,32.76 27.9,46.89 20.46,29.94 36.42,81.71 54.97,103.94 5.24,6.28 8.32,11.03 14.08,16.71l46.52 40.34c10.5,8.94 56.24,47.67 62.61,55.9 -26.39,2.28 -51.21,10.06 -69.4,20.05 -16.59,9.1 -24.96,-2.48 -41.88,-12.34 -6.36,-3.71 -7.32,-3.56 -14.24,-6.95 -9.04,-4.44 -17.67,-10.99 -27.86,-16.73l-41.94 -25.9c-39.36,-32.84 -46.25,-35.75 -72.69,-79.45 -5.83,-9.63 -11.68,-17.65 -17.82,-26.22 -21.28,-29.74 -46.72,-55.91 -77.16,-77.09 -4.38,-3.05 -8.32,-5.12 -13.49,-7.9 -4.34,-2.34 -9.37,-5.02 -13.69,-7.58 -6.92,-4.08 -6.84,-6.64 -12.66,-7.19 9.06,24.41 43.86,68.38 43.83,94.79 -7.72,-8.17 -32.69,-25.14 -45.22,-32.53 -8.59,-5.07 -16.17,-11.37 -24.77,-15.89 -4.39,-2.3 -8.32,-3.41 -13.26,-6.18 -21.91,-12.31 -44.01,-22.18 -67.36,-31.74 -19.28,-7.9 -38.08,-15.25 -58.4,-21.43 -110.15,-33.5 -155.3,-40.21 -277.09,-42.35 6.84,10.77 28.38,21.15 31.01,28.95 -5.35,-3.82 -41.87,-14.43 -52.78,-16.95 -56.06,-12.97 -129.99,-8.14 -165.09,36.89zm-1255.45 133.09c25.84,-3.31 48.87,-10.05 74.22,-15.37 27.53,-5.78 49.5,-7.66 78.37,-9.78 -39.94,37.7 -123.21,92.12 -175.32,138.03 -56.08,53.9 -103.38,99.78 -154.58,161.3 -8.98,10.79 -18.99,24.3 -27.82,35.58 -34.86,44.54 -73.87,103.27 -100.88,150.65 -6.42,11.27 -18.23,29.15 -21.34,40.92l38.79 -24.22c17.78,-12.52 80.29,-50.59 100.77,-58.19 8.89,-3.3 14.84,-5.82 22.32,-9.04 -7.83,4.34 -11.82,14.97 -19.6,24.87l-28.87 42.24c-3.31,4.87 -6.94,9.86 -10.14,14.81l-35.3 58.62c-35.26,57.44 -86.84,166.52 -106.42,226.32 -16.16,49.35 -31.48,93.66 -46.37,144.43 -14.69,50.12 -22.1,104.27 -32.7,155.41 -10.71,51.69 -15.74,117.34 -17.41,171.13 -1.97,63.13 0.29,119.69 5.01,181.22 3.75,48.92 9.22,98.82 17.23,147.31 1.01,6.14 1.07,15.18 5.88,18.95 3.23,-6.14 3.39,-20.29 5.93,-28.49 8.17,-26.35 12.91,-55.81 23.31,-81.38 6.2,-15.23 12.73,-36.53 18.12,-52.35 2.99,-8.79 6.03,-16.31 9.05,-25.49 1.66,-5.05 2.59,-8.8 4.13,-12.94l6.74 -13.54c0.77,40.89 -1.57,80.85 0.9,121.53 4.01,65.82 14.85,153.14 31.87,215.67 4.52,16.59 8.49,33.92 12.42,50.3 2.26,9.45 5.77,14.54 7.55,22.95 11,52.18 36.18,113.35 57.23,162.32 3.14,7.31 6.52,13.88 9.55,21.12l75.31 144.96c8.31,14.27 16.58,24.99 24.5,38.67 7.17,12.38 16.18,25.41 24.49,36.93 8.77,12.15 17.45,24.02 26.44,36.91 25.36,36.36 53.88,70.05 83.55,103.11l110.09 111.42c3.4,2.75 5.73,4.09 8.81,6.73 3.78,3.26 4.59,4.55 8.03,7.31l34.64 29.1c10.27,9.86 23.78,18.73 35.25,28.46l109.73 79.8c19.63,12.06 38.33,25.56 59.19,35.69 7.72,3.75 13.96,8.93 21.68,11.87l-48.52 -74.82c-4.56,-7.47 -11.09,-18.46 -15.23,-26.85 -13.55,-27.53 -29.46,-53.88 -41.77,-82.6 -3.95,-9.21 -7.13,-19.75 -11.47,-29.48 4.69,0.93 30.39,20.92 35.62,25.06 12.27,9.74 23.27,18.82 35.85,27.9 12.06,8.71 22.91,18.74 36.23,27.48l157.34 96.41c13.37,7.77 27.88,15.84 42.17,21.86 28.67,12.07 57.27,27.59 85.96,40.14 29.82,13.05 60.54,25.23 92.07,36.44 31.18,11.08 62.3,21.35 95.14,31.31 69,20.93 192.16,48.85 265.2,54.92 19.48,1.62 38.04,4.99 58.34,6.79 181.99,16.22 297.39,8.39 475.22,-20.51 67.54,-10.98 143.72,-29.58 206.07,-52.16 -12.02,-5.87 -229.89,-31.11 -249.38,-42.95 7.42,-4.11 108.61,-21.76 127.67,-26.24 57.48,-13.48 120.08,-31.73 176.27,-53.46 37.03,-14.32 72.82,-27.62 108.82,-44.7l102.27 -51.02c37.11,-16.11 130.41,-77.1 165.01,-102.31l65.86 -50.09c7.5,-6.21 13.57,-10.96 20,-16.69 6.26,-5.58 14.52,-13.47 20.72,-17.86 17.85,-12.65 64.61,-58.87 79.42,-73.01 8.54,-8.15 12.64,-12.59 18.8,-19.73l36.88 -38.23c60.23,-69.34 96.53,-117.54 146.76,-195.3 65.45,-101.31 104.41,-193.3 143.9,-309.42 6.49,-19.1 10.89,-38.91 17.15,-58.98 7.38,-23.68 28.19,-100.13 25.94,-124.14 -4.79,5.66 -10.58,12.15 -15.13,19.14 -9.47,14.56 -22.06,28.76 -32.88,42.1 -5.75,7.09 -11.48,13.05 -17.43,21.03 -15.89,21.29 -36.81,37.64 -54.47,57.25 -6.2,6.88 -11.62,12.18 -18.08,19.29 1.15,-7.3 6.01,-19.38 8.43,-28.48 2.83,-10.64 4.16,-20.81 6.83,-31.06 33.21,-127.8 43.7,-280.55 18.5,-410.87l-15.55 -60.97c-6.53,16.58 -8.19,34.79 -13.48,51.74 -13.74,44.01 -28.9,84.28 -50.89,124.92 -4.98,9.2 -7.87,17.35 -12.19,24.18l-115.6 168.09c-3.96,-6.15 -6,-340.39 -0.47,-353.12 25.1,-3.02 44.46,-12.47 60.91,-22.88 49.18,-31.14 83.76,-97.2 88.29,-158.03 5.61,-75.23 -14.94,-162.48 -71.99,-212.89l-23.55 -18.92c-8.53,-7.15 -14.34,-8.78 -25.27,-15.45 -38.95,-23.78 -26.23,-1.77 -34.15,-48.26 -2.06,-12.09 -6.09,-20.56 -11.17,-31.02 -47.11,-97.08 -153.3,-84.13 -249.91,-84.17 -28.23,-0.01 -153.71,2.82 -170.75,-0.94 0.66,-4.66 5.58,-14.53 7.54,-20.58 8.14,-25.11 7.56,-53.57 1.74,-78.83 -5.53,3.61 -37.15,31.83 -55.5,44.31l-21.1 13.96c-32.11,-17.14 -25.23,-46.42 -32.8,-80.27 -7.66,-0.59 -17.64,8.98 -22.29,12.3 -6.69,-6.87 -10.82,-26.14 -11.39,-38.21 -1.66,-34.85 10.83,-44.55 34.8,-64.25 8.77,-7.2 20.22,-15.66 31.24,-19.96 2.94,28.5 -6.7,57.97 -12.75,85.29 -2.24,10.12 -6.08,17.73 -6.64,27.82 35.88,-5.63 65.08,-16.86 89.45,-39.37 7.73,-7.14 16.17,-15.69 20.34,-22.19 3.63,4.17 1.94,6.95 4.49,12.27 5.18,-0.47 16.52,-2.4 22.07,-3.79 2.45,-0.62 2.52,-0.76 4.32,-1.44l19.25 -2.39c-1.11,20.99 -10.07,52.95 -16.8,68.3 41.47,-3.27 74.07,-24.72 97.93,-48.8 36.49,-36.82 42.29,-62.14 49.84,-67.29l8.24 -5.32c4.11,-3.23 4.16,-3.2 9.14,-6.33 11.04,-6.95 21.41,-14.53 31.81,-26.15 15.33,-17.14 37.25,-49.3 47.41,-69.74 14.44,-29.05 21.44,-59.28 -0.66,-85.65 -42.81,-51.09 -146.28,-103.79 -182.23,-168.73 -16.69,-30.14 -30.13,-65.21 -47.57,-96.1 -3.25,-5.75 -6.41,-11.95 -10.09,-18.63 -10.79,-19.56 -32.78,-53.11 -47.02,-70.03l-25.93 -31.73c-35.22,-40 -75.21,-81.05 -120.23,-113.2 -11.6,-8.29 -23.77,-15.61 -34.2,-23.79 -10.14,-7.95 -25.46,-15.26 -37.09,-22.95l-77.2 -41.07c-13.31,-5.03 -27.58,-11.09 -41.22,-17.17l-32.51 -11.89c-3.97,-1.46 -5.79,-3.32 -10.7,-5.15 2.13,10.26 6.55,15.48 9.31,28.8 2.57,12.41 7.34,17.77 8.74,30.32 -15.88,-1.2 -55.56,-23.94 -79.04,-28.85 -12.54,-2.62 -16.58,-5.3 -28.83,-8.3 -19.3,-4.74 -38.92,-9.11 -57.62,-14.38 -47.22,-13.32 -145.62,-23.15 -195.03,-26.12 -132.27,-7.95 -274.45,7.35 -401.41,33.77 -69.22,14.41 -108.93,25.34 -175.36,43.19 -20.43,5.49 -36.26,11.83 -56.34,17.36 -8.46,2.33 -18.54,6.34 -26.14,9.18 -8.37,3.13 -19.3,5.75 -28.23,8.87 -17.97,6.28 -35.38,12.54 -52.83,19.08l-64.57 24.74c-5.01,1.98 -8.02,3.46 -13.78,5.88 -9.27,3.91 -17.74,6.52 -26.56,10.42 -49.69,21.99 -98.81,44.86 -147.28,70.07l-70.91 37.77c-8.3,4.81 -14.19,7.24 -23.52,13.14 -3.99,2.53 -7.15,3.96 -11.27,6.39l-143.73 92.24c-28.97,18.87 -58.07,38.19 -85.66,59.52 -12.66,9.79 -56.35,39.15 -62.22,49.32z"/>
   <path class="fil1" d="M144.35 1656.18c-1.54,-2.84 1.8,-3.08 -3.5,-1.85 -0.74,9.33 -7.05,11.79 -18,22.31 -6.13,5.89 -1.53,-1.88 -5.47,6.84 -8.62,-16.99 39.09,-114.46 48.75,-131.58l46.79 -79.45c8.35,-13.24 15.07,-27.49 24.21,-39.35 10.77,-13.98 43.97,-64.42 55.37,-74.47 1.49,2.77 1.23,-4 1.55,6.28 0.03,1 -0.58,4.98 -0.87,6.45 -1.14,5.67 -2.08,8.37 -3.09,14.16l-13.61 83.47c-2.18,19.46 -5.69,37.79 -7.28,57 -13.84,166.35 -10.29,237.21 16.66,403.04 8.43,51.87 26.25,102.01 39.52,154.63 6.55,25.97 9.62,24.14 9.01,56.06l2.2 109.21c0.01,0.12 -0.04,0.6 -0.04,0.69 0.07,1.51 -1.18,1.79 2.01,0.68l1.02 -61.48c-0.02,-11.74 -1.03,-56.32 0.11,-58.24 6.28,6.18 6.95,11.71 10.84,20.8 -0.67,-7.61 -1.61,-5.95 0.31,-13.42l0.98 -14.97c4.63,4.2 53.37,91.42 62.7,109.21l94.58 139.68 80.59 96.33c20.64,21.8 19.45,28.33 56.38,61.11l28.05 29.75c14.56,15.36 33.64,30.29 46.19,42.57 16.18,15.84 6.36,9.67 30.15,27.72l48.17 40.63c11.32,8.41 22.02,15.26 32.95,25.04l69.06 48.84c6.51,3.59 10.56,7.83 16.85,12.16l35.65 22.51c52.14,34.46 116.86,69.23 173.76,93.91 11.48,4.98 28.47,13.2 39.48,18.75 7.14,3.6 14.32,5.45 20.69,8.46 6.72,3.18 13.72,5.99 22.19,8.88 30.78,10.52 148.19,53.66 180.55,56.05 -17.66,-7.55 -36.93,-16.68 -51.54,-25.04 -14.1,-8.07 -37.06,-21.88 -49.98,-27.18l-6.06 7.88c-2.1,-1.33 -2.48,-1.76 -4.77,-3.66 -5.89,-4.88 -0.14,2.34 -17.12,-7.89 -16.84,-10.15 -4.48,-5.43 -25.41,-13.17 -14.02,-5.18 -15.54,-3.26 -18.86,-10.49 -6.89,-15.01 -9.82,-3.27 -43.49,-30.07 -27.01,-21.5 -35.45,-24.68 -70.62,-54.88l-33.49 -30.22c-21.95,-17.2 -30.64,-28.48 -45.27,-47.18 -5.31,-6.79 -11.68,-11.37 -14.5,-17.81 15.57,4.25 82.04,34.86 114.09,44.88 33.64,10.52 96.18,30.41 124.71,37.11 32.31,7.6 55.94,12.51 91.36,17.54 8.7,1.24 13.22,1.22 19.29,2.79 96.17,24.84 289.42,13.36 378.41,0.32 102.08,-14.96 249.7,-50.75 341.23,-91.42 33.58,-14.92 79.49,-31.57 111.18,-49.95l69.65 -36.8c10.18,-5.5 22.13,-14.43 33.33,-21.01 12.75,-7.49 22.06,-12.76 34.22,-19.96 10.61,-6.28 24.01,-17.38 34.89,-19.74l-80.98 114.31c50.86,-10.14 178.26,-72.63 218.38,-95.56 11.13,-6.36 24.34,-11.1 34.88,-17.55 5.56,-3.4 10.8,-7.27 16.87,-10.19 23.93,-11.53 87.55,-54.6 110.74,-73.05 14.7,-11.7 19.59,-13.14 30.85,-21.26l28.77 -23.44c4.47,-4.08 9.7,-7.48 13.74,-11.36 19.03,-18.28 -3.03,-0.46 27.22,-24.87 8.75,-7.06 35.8,-35.45 43.53,-36.86 -2.11,3.36 -1.83,-2.25 -1.75,6.97 0.08,9.64 -1.2,3.65 2.1,5.76 3.13,-0.67 20.87,-23.08 25.63,-28.1 4.89,-5.17 1.46,0.95 4.4,-6.09 -46.97,1.68 -97.02,0.12 -144.36,0.18l-287.29 -0.01c-31.93,-0.22 -27.58,7.13 -48.26,21.62l-41.63 29.91c-6.88,4.94 -14.18,9.48 -20.6,14.25l-42.74 26.98c-9.15,4.83 -13.26,9.84 -21.74,15.02l-66.53 38.1c-8.84,4.43 -16.12,7.05 -25.02,11.81 -52.8,28.29 -91.76,42.84 -146.41,65.31 -15.35,6.31 -36.37,16.21 -53.63,19.28 4.96,-9.07 38.52,-33.79 49.19,-46.15 7.56,-8.75 14.53,-15.66 22.06,-24.17 22.92,-25.88 41.55,-53.64 58.15,-84.06 7.68,-14.07 13.12,-32.65 22.43,-46.17 3.59,-5.21 1.31,2.09 3.57,-7.76 0.91,-3.96 1.25,-7.27 1.44,-10.51l-48.45 40.62c-41.26,33.52 -87.82,68.65 -137.53,90.91 -12.17,5.45 -18.74,10.5 -30.64,15.91 -167.49,76.2 -364.71,101.64 -553.45,72.47 -77.5,-11.97 -150.07,-30.29 -222.79,-56.37l-50.22 -17.99c-6.13,-2.64 -7.19,-5.23 -14.48,-8.7 -10.6,-5.04 -21.44,-9.79 -31.59,-15.03l-22.49 -12.39c-6.06,-4.03 -3.29,-0.79 -5.89,-6.23 30.79,6.89 64.44,12.3 96.95,15.6 38.28,3.89 71.92,3.29 111.04,3.35 -6.23,-4.16 -107.36,-34.8 -116.63,-38.02 -90.11,-31.32 -176.28,-75.26 -253.58,-128.8 -9.48,-6.57 -15.6,-9.46 -22.85,-15.81 -18.86,-16.53 -42.89,-32.85 -63.26,-50.76 -3.81,-3.35 -5.95,-6.08 -9.82,-9.35l-30.64 -27.31c-14.9,-15.3 -43.07,-43.23 -55.12,-58.5 -31.65,-40.12 -51.61,-64.2 -80.37,-109.77 -12.8,-20.28 -47.86,-79.15 -51.3,-101.93l55.48 67.66c8.7,10.19 22.95,22.31 30.61,31.04 15.24,17.38 30.3,28.81 47.6,44.92 7.37,6.87 11.54,7.13 25.61,20.72 17.36,16.77 91.33,65.74 104.11,67.36 -1.57,-4.58 -14.78,-17.91 -19.16,-22.3 -15.42,-15.47 -43.16,-54.02 -56.65,-72.23 -35.3,-47.65 -72.24,-107.12 -97.96,-160.84 -18.74,-39.14 -36.54,-80.03 -50.71,-121.34 -11,-32.07 -18.75,-72.79 -27.46,-100.07 -9.92,-31.09 -13.61,-78.05 -17.01,-110.26 -10.7,-101.56 -2.25,-211.94 23.34,-309.57 5.58,-21.3 13.2,-43.61 19.28,-66.5 4.95,-18.66 11.98,-36.48 21.2,-53.19 1.23,-2.23 1,-2.02 2.3,-3.88 2.01,-2.91 1.08,-1.83 3.15,-3.86 -5.93,48.65 -10.22,101.68 -3.03,150.23 3.45,23.32 15.54,123.43 25.55,135.28 9.2,-29.64 8.38,-113.78 21.44,-156.69 25.03,-82.28 31.41,-119.37 70.45,-198.74 5.64,-11.47 49.45,-88.52 58.22,-99.03 4.05,-4.86 5.13,-6.56 9.42,-13.6 17.01,-27.88 64.53,-86.67 92.23,-109.81 4.02,-3.36 2.62,-2.26 5.92,-5.65 3.01,-3.09 2.17,-1.88 5.63,-5.91 22.16,-25.87 99.51,-83.91 127.56,-100.44 23.57,-13.89 46.31,-29.55 71.57,-40.74l31.49 -15.28c17.65,-6.47 28.97,-13.3 48.02,-19.92 10.18,-3.54 22.06,-8.58 34,-12.77 10.89,-3.83 65.71,-19.08 69.98,-23.17 -23.74,-9.55 -133.76,1.18 -169.23,5.35 -59.45,6.99 -136.73,25.8 -190.53,47.57l-41.83 17.89c2.22,-5.88 5.8,-7.05 10.99,-11.57 11.27,-9.8 27.23,-20.38 38.37,-31.21 17.24,-16.75 36.92,-24.91 53.02,-41.23 -0.92,-5.81 -1.2,-3.02 0.34,-6.22 2.88,-5.99 0.5,-0.81 2.39,-1.28 6,-1.46 3.74,-2.71 11.92,-8.81 0.33,-0.24 0.8,-0.56 1.13,-0.81 6.46,-4.77 7.66,-4.12 9.02,-14.18 9.08,4 3.12,2.29 10.08,-3.24 0.34,-0.27 0.76,-0.65 1.11,-0.93l73.46 -60.09c17.34,-9.4 14.35,-10.17 29.07,-21.31l102.32 -67.9c66.89,-37.06 129.93,-74.63 200.81,-103.88l99.18 -36.95 106.39 -30.09c22.18,-5.71 96.69,-26.34 114.44,-18.86 3.52,12.04 -4.73,-4.27 -2.45,6.96 4.26,-0.62 1.56,0.1 5.83,-1.49 12.41,-4.62 2.99,-5.8 41.87,-18.34 52.79,-17.03 118.97,2.48 158.8,33.23 -18.95,1.47 -45.73,-7.44 -70.16,-6.04 -43.48,2.48 -82.76,17.72 -109.16,47.62 -7.6,8.6 -26.89,37.34 -25.99,51.74l1.12 3.75c11.15,-22.18 17.66,5.43 23.03,-3.99 35.1,-45.04 109.02,-49.86 165.09,-36.89 10.9,2.52 47.42,13.13 52.78,16.95 -2.63,-7.8 -24.16,-18.18 -31.01,-28.95 121.78,2.14 166.93,8.86 277.09,42.35 20.32,6.18 39.12,13.53 58.4,21.43 23.35,9.56 45.45,19.42 67.36,31.74 4.94,2.78 8.87,3.88 13.26,6.18 8.6,4.52 16.18,10.82 24.77,15.89 12.53,7.39 37.5,24.36 45.22,32.53 0.02,-26.42 -34.78,-70.39 -43.83,-94.79 5.82,0.54 5.74,3.1 12.66,7.19 4.33,2.56 9.36,5.24 13.69,7.58 5.17,2.78 9.11,4.85 13.49,7.9 30.44,21.18 55.88,47.36 77.16,77.09 6.14,8.57 11.99,16.59 17.82,26.22 26.44,43.7 33.33,46.61 72.69,79.45l41.94 25.9c10.19,5.73 18.82,12.29 27.86,16.73 6.92,3.39 7.88,3.24 14.24,6.95 16.92,9.87 25.29,21.45 41.88,12.34 18.19,-9.99 43.01,-17.77 69.4,-20.05 -6.37,-8.23 -52.11,-46.97 -62.61,-55.9l-46.52 -40.34c-5.77,-5.68 -8.84,-10.43 -14.08,-16.71 -18.55,-22.22 -34.51,-74 -54.97,-103.94 -9.66,-14.14 -17.65,-32.39 -27.9,-46.89 -17.1,-24.18 -32.85,-44.64 -52.04,-65.29l-90.27 -85.17c-15.1,-12.67 -52.59,-38.91 -69.59,-48.44 -7.25,-4.07 -11.71,-7.44 -18.38,-10.67 -7.77,-3.76 -13.2,-8.98 -21.04,-11.02l10.59 55.95c-14.42,-2.66 -27.94,-14.06 -41.31,-19.78 -152.72,-65.31 -294.74,-95.31 -466.48,-97.05 -110.71,-1.12 -236.05,12.27 -341.59,35.76 -51.37,11.43 -100.5,25.25 -149.84,37.32 -15.8,3.86 -31.58,10.51 -47.29,15 -65.44,18.71 -206.79,70.43 -271.47,102.03 -6.99,3.41 -14.29,8 -20.28,10.79 -7.72,3.61 -14.84,5.8 -21.9,9.24 -19.85,9.66 -79.14,37.06 -91.81,47.87 -9.81,8.37 -37.23,18.25 -51.61,26.01 -18.19,9.82 -40.58,25.31 -61.24,32.06 0.46,0.22 1.21,-0.09 1.45,0.44 0.24,0.53 1.13,0.34 1.47,0.39l23.26 -2.38c8.37,-2.02 13.01,-4.77 24.49,-6.8 19.61,-3.47 37,-5.11 57.77,-7.26 26.33,-2.73 96.7,-11.69 121.22,-6.2 -16.95,9.1 -37.91,15.05 -54.53,25.37 -11.82,7.33 -63.34,29.47 -79.04,37.44 -14.25,7.24 -30.81,13.43 -42.62,23.3 -7.53,6.28 -12.36,6.59 -21.28,11.65 -19.47,11.06 -41.54,27.73 -61.2,37.7l-29.43 18.96c-5.13,3.58 -5.49,4.36 -10.09,7.26l-57.8 40.85c-12.02,9.23 -14.04,12.97 -27.49,20.87l-18.01 14.76c-31.91,27.53 -68.95,54.29 -97.43,84.04l-82.54 81.26c-9.26,8.21 -25.73,27.02 -29.19,35.86l101.57 -43.73c19.87,-7.74 97.12,-34.05 114.54,-33.26 -19.34,19.41 -37.36,39.2 -57.78,57.47l-21.67 24.52c-5.27,6.67 -5.85,6.59 -12.07,12.9l-43.12 51.21c-6.86,8.83 -15.19,17.04 -20.85,25.32l-96.05 138.22c-49.74,78.47 -90.91,161.72 -125.47,247.87l-25.28 68.2c-3.61,12.17 -8.54,23.05 -11.33,34.61l-21.65 71.58c-4.23,12.83 -5.25,23.54 -8.98,36.91 -6.53,23.41 -11.35,51.45 -17.6,75.38 -4.61,17.68 -24.16,153.48 -20.24,161.9l25.46 -43.45c6.79,-11.06 23.95,-32.2 27.09,-41.48z"/>
   <path class="fil1" d="M2623.26 1407.92c30.15,-27.16 35.44,-27.46 58.14,-46.08l153.22 -123.05c12.28,-13.63 22.87,-12.26 32.62,-34.89 9.79,-22.75 -1.07,-39.26 -17.92,-45.23 -17.53,-6.21 -46.73,-3.28 -67.75,-3.21 -46.58,0.16 -93.15,-0.09 -139.7,0.12 -46.44,0.21 -95.8,-1.81 -141.76,-0.16 -18.67,0.67 -34.74,11.42 -56.68,14.1 -65.37,7.99 -71.47,0.5 -120.28,-11.8 -15.77,-3.97 -50.47,-2.09 -68.9,-1.88 -136.95,1.52 -283.07,-0.49 -421.07,-0.45 -24.12,0.01 -478.34,-2.34 -490.75,1.5 -15.89,4.93 -32.22,19.54 -26.5,40.41 1.59,5.8 8.58,18.07 12.01,22.2l191.88 153.87c28.04,18.27 17.29,14.08 38.88,30.74l135.7 105.82c8.03,5.8 11.54,10.92 18.61,16.08 7.95,5.8 13.49,8.57 20.01,14.82 17.54,16.8 17.29,14.38 37.42,30.17 3.99,3.13 5.54,4.09 9.74,7.66l182.67 145.76c33.77,24.44 84.45,78.35 126.13,80.65 37.32,2.06 49.51,-16.64 73.4,-31.2l173.67 -137.38c7.26,-6.44 11.68,-9.66 19.47,-15.26l104.15 -85.07c8.86,-7.13 18.04,-12.12 28.51,-21.77l58.92 -45.44c7.95,-6.11 11.42,-11.09 17.31,-15.46 13.19,-9.79 25.87,-20.84 38.86,-30.77 6.13,-4.69 15.1,-10.37 20.01,-14.8z"/>
   <path class="fil1" d="M2294.78 1767.12c8.26,-2.25 7.73,-4.8 13.88,-9.68 4.75,-3.76 8.01,-6.09 14.44,-8.62 3.97,2.1 23.64,13.51 24.61,20.65l-0.39 2.82c-0.09,0.46 -2.88,10.94 3.82,15.67 3.05,2.15 0.59,-0.97 3.39,2.88 -8.98,1.67 -60.74,46.04 -75.08,55.79l-56.86 43.66c-28.46,18.17 -49.62,44.88 -91.55,59.5 -20.44,7.12 -48.97,5.66 -70.2,1.4l-20.65 -8.42c-27.77,-11.9 -51.93,-33.29 -77.92,-51.79l-37.65 -29.78c-0.32,-0.26 -0.77,-0.62 -1.08,-0.88l-30.47 -23.68c-2.61,-1.99 -5.61,-4.21 -7.72,-5.8l-30.79 -25.09c-9.14,-7.02 -25.71,-13.84 -29.74,-24.89l2.57 -1.24c8.67,-6.22 8.14,-15.21 26.69,-22.54 10.35,-4.09 2.2,1.16 8.49,-8.83 0.3,0.4 0.41,1.11 0.51,1.39l1.24 3.66c0.08,0.18 -1.9,1.42 5.23,3.86l10.37 8.72c2.89,11.69 -2.12,-1.05 11.69,5.33 3.9,1.8 4.98,3.5 11.09,5.8l-40.05 -32.06 -165.57 145.17c-10.05,8.22 -15.15,11.61 -23.6,20.8 -7.83,8.51 -15.17,12.01 -24.2,20.19 -7.96,7.21 -14.12,14.35 -23.44,20.99 -5.65,4.03 -6.49,3.89 -13.08,10.04l-34.46 31.2c-5.05,4.41 -7.01,6.67 -12.35,10.77l-79.78 73.26c3.64,12.73 14.14,29.79 19.55,42.29 6.56,15.15 10.72,29.48 17.42,43.67 24.33,51.56 16.74,38.12 33.25,87.45l550.26 0.01c4.46,-4.75 7.24,-8.49 8.69,-12.89 -9.89,-7.36 1.95,-0.96 -12.62,-4.77 -6.25,14.59 -6.25,9.79 -27.36,11.46l-347.36 0.61c-9.99,0.14 -17.83,0.52 -30.05,0.3 -27.32,-0.49 -58.22,0.76 -86.34,-2l-52.69 0.63c3.2,-20.07 0.84,-40.32 1.11,-60.71 22.56,-2.35 482.1,-1.05 536.78,-0.67l54.79 0.59c0.3,-0.01 13.77,-1.55 16.99,-1.6l14.99 -17.29c5.3,-5.57 9.34,-10.89 15.68,-15.06l-0.56 25.87c13.12,4.77 -3.97,8.97 31.9,8.09 86.32,-2.13 188.22,-0.25 275.47,-0.42l298.39 1.02c2.35,-0.3 -1.63,-1.04 5.31,-0.73 7.5,13.96 7.08,0.44 10.28,17.79 16.87,-0.39 16.77,8.51 21.66,4.95l-192.31 -175.49c-12.97,-14.05 -77.14,-67.08 -97.12,-86.16l-195.74 -172.86c-10.9,-10.43 -19.68,-17.1 -31.01,-27.99 -7.46,3 -26.83,18.71 -30.77,23.69z"/>
   <path class="fil2" d="M1288.27 2912.33c-5.07,-5.51 -5.31,-4.71 -12.38,-9.4l-83.15 -61.68c8.86,0.15 50.89,15.49 67.31,20.47 66.42,20.13 147.14,39.27 214.65,51.1 138.1,24.2 278.16,26.7 419.44,16.22 26.77,-1.98 53.64,-6.17 78.75,-8.38 44.01,-3.86 176.35,-31.09 221.65,-46.82 20.87,-7.24 47.83,-13.56 66.16,-21.51 17.62,-7.64 48.36,-16.15 65.88,-23.45 8.48,-3.53 6.44,-4.31 15.95,-7.18l42.93 -18.23c0.38,-0.19 1.22,-0.16 1.49,-0.86 0.27,-0.71 1.04,-0.54 1.49,-0.9 -31.12,-1.8 -132.99,32.37 -249.86,17.33 11.81,-5.98 35.17,-12.59 51.07,-17.96l172.58 -70.41 153.42 -86.93 156.45 -120c36.55,-31.49 61.42,-62.79 86.66,-84.83l15.78 -18.98c5.14,-7.62 10.97,-10.6 17.14,-17.49 5.31,-5.93 10.6,-13.15 13.68,-20.94 -3.29,-2.1 -2.01,3.88 -2.1,-5.76 -0.08,-9.22 -0.35,-3.6 1.75,-6.97 -7.73,1.41 -34.78,29.8 -43.53,36.86 -30.25,24.41 -8.19,6.59 -27.22,24.87 -4.04,3.88 -9.26,7.28 -13.74,11.36l-28.77 23.44c-11.26,8.12 -16.15,9.56 -30.85,21.26 -23.19,18.44 -86.81,61.52 -110.74,73.05 -6.06,2.92 -11.31,6.79 -16.87,10.19 -10.54,6.45 -23.75,11.19 -34.88,17.55 -40.11,22.93 -167.51,85.42 -218.38,95.56l80.98 -114.31c-10.88,2.36 -24.28,13.46 -34.89,19.74 -12.16,7.2 -21.47,12.47 -34.22,19.96 -11.2,6.58 -23.15,15.51 -33.33,21.01l-69.65 36.8c-31.69,18.38 -77.6,35.03 -111.18,49.95 -91.53,40.67 -239.15,76.46 -341.23,91.42 -89,13.04 -282.25,24.52 -378.41,-0.32 -6.07,-1.57 -10.59,-1.56 -19.29,-2.79 -35.43,-5.03 -59.05,-9.95 -91.36,-17.54 -28.53,-6.71 -91.07,-26.6 -124.71,-37.11 -32.05,-10.02 -98.52,-40.63 -114.09,-44.88 2.82,6.44 9.19,11.03 14.5,17.81 14.63,18.7 23.32,29.99 45.27,47.18l33.49 30.22c35.17,30.19 43.61,33.37 70.62,54.88 33.66,26.8 36.6,15.06 43.49,30.07 3.32,7.23 4.84,5.31 18.86,10.49 20.93,7.74 8.57,3.02 25.41,13.17 16.98,10.23 11.23,3.01 17.12,7.89 2.29,1.9 2.67,2.33 4.77,3.66l6.06 -7.88z"/>
   <path class="fil1" d="M2873.53 1304.45c5.34,-0.93 2.86,-0.38 8.62,-2.16 -1.54,8.24 1.11,1.86 -3.75,8.66l-37.61 37.64c-44.79,49.14 -35.6,39.25 -57.26,36.13 -3.41,3.26 -3.65,4.26 -7.3,7.11 8.65,5.52 7.44,-0.55 20.79,0.08l-13.46 11.12c-0.26,0.31 -0.62,0.75 -0.89,1.06l-12.5 14.52c-2.09,2.61 -3.02,3.16 -6.03,5.48 -6.09,4.7 -6.94,5.89 -12.07,11.22l-184.06 172.77c-3.49,3.29 -6.01,6.44 -10.33,10.77l-86.49 79.35c-7.17,6.47 -8.13,4.91 -18.64,16.14 -14.6,15.61 -20.77,13.36 -24.83,21.44 5.05,4.96 10.33,8.34 15.44,12.96 6.35,5.74 8.75,7.88 14.4,12.62l149.64 130.22c10.39,7.77 18.55,19.1 28.83,27.09 10.51,8.17 19.85,16.37 29.52,24.6 41.71,35.48 89.84,80.84 132.37,118.45l43.72 39.18c5.82,5.27 9.72,8.25 15.46,13.53 7.98,7.34 35.54,36.13 41.7,37.33l0.05 -504.4c-6.2,-3.47 -26.4,-10.55 -34.84,-13.55l-33.5 -13.14c0.44,-0.3 1.1,-0.58 1.44,-0.74l42.88 -21.49c13.65,-8.53 33.19,-14.36 23.04,-38.13 -2.46,-3 -11.12,-2.7 -15.9,-2.88 -24.63,-0.93 -44.46,-10.7 -65.68,-19.53 -7.41,-3.09 -15.47,-6.94 -20.3,-11.97 15.07,-7.89 23.7,-8.04 45.09,-20.3 22.15,-12.7 10.03,-2.24 39.79,-24.12 8.39,-6.17 18.3,-9.49 16.78,-24.89 -23.99,-0.59 -39.06,-1.1 -60.68,-6.65 -9.77,-2.51 -41.24,-13.2 -46.62,-18.46 4.31,-4.24 33.63,-17.69 42.4,-22.66 12.45,-7.07 25.81,-17.77 36.24,-27.49 43.02,-40.09 21.58,-36.7 29.86,-94.73 -7.94,0.29 -22.4,13.39 -25.32,17.86z"/>
   <path class="fil2" d="M144.35 1656.18c7.53,-4.1 10.42,-11.75 14.85,-18.46 15.52,-23.52 40.95,-41.91 41.47,-46.47 0.81,11.24 -3.46,33.02 -5.09,45.66 -1.91,14.77 -4.55,29.97 -6.19,45.39 -9.74,91.41 -11.77,204.68 -3.33,294.99 2.9,30.99 8.15,62.89 10.65,93.93 2.02,25.08 28.4,144.3 36.19,170.62 7.59,25.62 19.13,53.18 24.87,78.48l73.92 176.36c12.29,21.55 38.11,74.53 50.94,92.72l30.2 48.5c9.61,16.63 13,18 21.44,30.34 3.44,5.04 7.03,10.75 10.85,16.09 13.61,19.05 23.42,27.9 32.92,43.94 4.82,8.14 13.82,16.52 23.98,29.85l72.79 81c-0.11,-6.91 -6.23,-12.72 -10.17,-18.26l-21.28 -36.04c-16.03,-26.01 -37.02,-68.41 -49.97,-95.61 -6.16,-12.94 -12.03,-27.66 -18.64,-40.59 -6.66,-13.02 -7.96,-27.89 -15.89,-41.4 -4.7,-8.01 -6.18,-8.56 -9.28,-19.55 -2.01,-7.13 -3.56,-14.15 -6.61,-21.81l-16.21 -41.25c-9.83,-29.91 -16.49,-59.45 -24.37,-91.49 -4.19,-17.05 -8.91,-29.49 -12.5,-46.68 -11.17,-53.4 -17.08,-95.22 -26.7,-146.21l-9.27 -75.94c-0.42,-7.82 0.97,-20.37 -3.08,-26.36 -1.92,7.46 -0.97,5.8 -0.31,13.42 -3.89,-9.09 -4.55,-14.62 -10.84,-20.8 -1.15,1.92 -0.13,46.5 -0.11,58.24l-1.02 61.48c-3.19,1.11 -1.94,0.83 -2.01,-0.68 -0.01,-0.09 0.04,-0.58 0.04,-0.69l-2.2 -109.21c0.6,-31.91 -2.46,-30.08 -9.01,-56.06 -13.27,-52.62 -31.09,-102.76 -39.52,-154.63 -26.95,-165.83 -30.5,-236.69 -16.66,-403.04 1.6,-19.2 5.1,-37.54 7.28,-57l13.61 -83.47c1.01,-5.78 1.95,-8.49 3.09,-14.16 0.3,-1.47 0.91,-5.45 0.87,-6.45 -0.32,-10.28 -0.06,-3.51 -1.55,-6.28 -11.4,10.05 -44.6,60.5 -55.37,74.47 -9.14,11.86 -15.85,26.11 -24.21,39.35l-46.79 79.45c-9.66,17.12 -57.37,114.59 -48.75,131.58 3.94,-8.72 -0.66,-0.95 5.47,-6.84 10.95,-10.53 17.26,-12.98 18,-22.31 5.3,-1.23 1.97,-0.98 3.5,1.85z"/>
   <path class="fil1" d="M1768.23 1727.08c-20.29,8.9 -24.37,-1.99 -31.29,-8.86l-33.55 -28.13c-28.24,-29.42 -56.26,-51.17 -84.59,-79.31 -4.79,-4.76 -8,-7.1 -14.35,-12.85l-19.09 -17.47c-20.34,-19.3 -41.32,-42.26 -64.43,-62.65 -23.49,-20.72 -52.64,-51.85 -68.91,-66.1l-30.04 -25.89c-9.74,-9.87 -14.98,-17.62 -25.88,-28.22l-72.29 -81.16c1.18,0.96 1.89,1.91 2.71,3 5.17,6.86 -2.2,2.04 4.4,4.99 5.33,2.38 3.35,2.97 9.39,2.32l-51.77 -41.75 0.61 70.59c-20.66,-6.58 -74.61,-82.01 -85.17,-107.67 -6.11,-14.85 -12.84,-30.97 -18.82,-46.31 -13.29,-34.09 -15.04,-72.87 -16.1,-111.97 -0.94,-35.1 11.32,-79.43 19.05,-111.5 -13.03,11.61 -19.83,31.3 -26.84,48.33 -7.05,17.14 -16.07,36.61 -19.77,54.52 -16.92,82.07 2.2,171.05 50.96,236.4l36.35 38.82c6.69,6.07 9.83,11.34 18.77,17.84 5.06,3.67 5.91,3.87 11.2,8.14 24.27,19.6 79.59,50.81 109.43,61.21 37.1,12.93 71.35,38.46 92.27,58.76 30.06,29.18 25.33,62.32 53.9,95.52 4.42,5.13 4.35,4.39 7.71,9.61 4.25,6.61 5.31,5.68 8.79,10.45 13.15,17.98 18.91,71.56 10.52,94.44 -6.22,-12.12 -14.92,-26.95 -25.76,-36.42 -12.27,-10.74 -23.65,-22.87 -38.72,-26.86 -13.77,17.04 1.28,11.95 16.09,61.87 8.2,27.62 5.97,51.25 -0.03,77.79 -8.22,-4.02 -13.03,-24.18 -37.76,-47.23 -11.75,-10.95 -21.69,-19.53 -36.65,-27.36 -6.23,-3.26 -7.8,-2.91 -14.14,0.79 4.17,19.75 12.71,32.62 11.63,56.71 -0.95,21.06 -9.44,38.16 -15.68,55.22l-4.62 -9.5c-1.39,-3.27 -2.56,-6.04 -4.14,-9.11 -16.52,-32.08 -36.44,-54.93 -68.92,-71.71 -14.44,-7.46 -19.26,-15.89 -36.9,-22.3 6.22,21.15 1.93,86.32 1.68,112.95 17.08,6.8 78.52,66.63 89.71,81.77 11.06,14.97 18.65,20.29 37.48,47.13 9.18,13.09 24.98,41.9 34.79,50.87 21.62,-16.21 112.19,-99.74 138.35,-121.48 7.44,-6.18 13.19,-12.3 20.45,-18.14l140.36 -122.16c4.24,-3.97 5.42,-6.12 9.69,-9.51 4.68,-3.72 6.39,-3.64 9.92,-8.43z"/>
   <path class="fil2" d="M2841.72 2205.94c-4.88,3.57 -4.78,-5.34 -21.66,-4.95 -3.2,-17.35 -2.77,-3.83 -10.28,-17.79 -6.94,-0.31 -2.95,0.43 -5.31,0.73l-298.39 -1.02c-87.26,0.17 -189.15,-1.71 -275.47,0.42 -35.87,0.89 -18.78,-3.32 -31.9,-8.09 -0.41,28.27 -1.49,49.4 -4.79,77 17.22,-2.54 146.09,-1.24 174.42,-1.19 141.59,0.25 292.93,-1.94 432.88,-0.04 19.96,0.27 39.15,3.58 55.48,-8.78 6.25,-4.73 6.1,-7.74 8.05,-13.76 -5.55,-8.43 -15.67,-18.46 -23.05,-22.53z"/>
   <path class="fil2" d="M2115.35 2237.89l53.26 -56.17c-3.22,0.06 -16.69,1.6 -16.99,1.6l-54.79 -0.59c-54.68,-0.38 -514.22,-1.68 -536.78,0.67 -0.27,20.39 2.08,40.64 -1.11,60.71l52.69 -0.63c28.12,2.77 59.02,1.51 86.34,2 12.21,0.22 20.06,-0.16 30.05,-0.3l347.36 -0.61c21.11,-1.67 21.12,3.13 27.36,-11.46 14.58,3.82 2.73,-2.59 12.62,4.77z"/>
   <path class="fil2" d="M933.89 631.06c10.08,-4.1 26.76,-17.62 36.05,-24.25l8.74 -6.68c4.61,-3.17 5.19,-2.37 9.85,-5.73l51.32 -33.85c6.12,-3.76 3.53,-4.14 13.63,-9.43l48.08 -27.53c24.23,-15.88 32.39,-18.88 60.47,-32.67l84.47 -39.89c27.28,-11.87 56.31,-23.19 87.48,-35.08l94.07 -30.42c30.03,-8.67 67.14,-18.08 98.71,-24.25 18.07,-3.53 34.34,-7.44 52.28,-10.28 65.31,-10.32 48.51,-4.42 64.63,-32.58 17.75,-31 42.25,-45.31 49.42,-54.96 -2.28,-11.23 5.97,5.08 2.45,-6.96 -17.75,-7.48 -92.27,13.15 -114.44,18.86l-106.39 30.09 -99.18 36.95c-17.05,7.04 -31.24,13.3 -46.92,21.07 -4.27,2.12 -6.5,2.94 -10.77,4.85 -35.56,15.92 -107.02,57.96 -143.12,77.96l-102.32 67.9c-14.72,11.14 -11.73,11.91 -29.07,21.31l-73.46 60.09c-0.34,0.28 -0.77,0.66 -1.11,0.93 -6.96,5.53 -1,7.24 -10.08,3.24 -1.36,10.06 -2.56,9.4 -9.02,14.18 -0.33,0.25 -0.8,0.56 -1.13,0.81 -8.19,6.11 -5.92,7.36 -11.92,8.81 -1.9,0.46 0.48,-4.71 -2.39,1.28 -1.54,3.2 -1.26,0.41 -0.34,6.22z"/>
   <path class="fil2" d="M2294.78 1767.12c-17.5,11.11 -20.04,10.97 -33.06,24.7l-75.51 59.75c-20.22,16.71 -56.59,29.16 -83.42,31.99 -44.83,4.74 -92.1,-21.17 -114.03,-40.57l-86.05 -65.98c-6.12,-2.3 -7.19,-4 -11.09,-5.8 -13.81,-6.38 -8.8,6.36 -11.69,-5.33l-10.37 -8.72c-7.13,-2.43 -5.15,-3.68 -5.23,-3.86l-1.24 -3.66c-0.1,-0.28 -0.22,-0.99 -0.51,-1.39 -6.3,10 1.85,4.74 -8.49,8.83 -18.54,7.33 -18.02,16.32 -26.69,22.54l-2.57 1.24c4.03,11.05 20.61,17.86 29.74,24.89l30.79 25.09c2.11,1.59 5.11,3.81 7.72,5.8l30.47 23.68c0.31,0.26 0.76,0.62 1.08,0.88l37.65 29.78c25.99,18.5 50.15,39.88 77.92,51.79l20.65 8.42c21.23,4.26 49.76,5.72 70.2,-1.4 41.93,-14.62 63.09,-41.33 91.55,-59.5l56.86 -43.66c14.34,-9.75 66.1,-54.12 75.08,-55.79 -2.8,-3.85 -0.34,-0.73 -3.39,-2.88 -6.71,-4.73 -3.91,-15.21 -3.82,-15.67l0.39 -2.82c-0.97,-7.13 -20.64,-18.55 -24.61,-20.65 -6.42,2.53 -9.69,4.86 -14.44,8.62 -6.15,4.87 -5.62,7.43 -13.88,9.68z"/>
   <path class="fil1" d="M1785 1059.06l416.66 -0.77c-4.35,-6.09 -37.85,-29.64 -44.22,-34.38 -43.25,-32.18 -101.58,-69.21 -162.9,-71.93 -53.84,-2.38 -105.46,11.76 -140.7,36.74 -15.45,10.95 -41.3,30.48 -51.58,44.81 -5.72,7.98 -13.87,14.9 -17.27,25.53z"/>
   <path class="fil2" d="M2873.53 1304.45c-7.22,2.68 -2.55,1.55 -8.71,6.68 -12.79,10.63 -11.47,6.97 -31.21,24.8 -2.26,2.04 -4.96,3.88 -7.67,5.91 -19.94,14.92 -9.79,4.45 -31.11,24.95l-77.09 60.07c-5.74,4.33 -8.61,8.47 -14.35,12.67 -27.99,20.47 -61.38,50.3 -85.14,67.51l-174.61 140.17c-6.7,4.78 -11.62,7.23 -16.73,12.3 -11.73,11.66 -13.93,11.45 -22.21,18.37l-23.2 18.01 46.22 39.89c4.05,-8.08 10.23,-5.83 24.83,-21.44 10.5,-11.23 11.47,-9.67 18.64,-16.14l86.49 -79.35c4.32,-4.32 6.84,-7.47 10.33,-10.77l184.06 -172.77c11.23,-11.69 19.32,-18.13 30.6,-31.23 0.27,-0.31 0.63,-0.75 0.89,-1.06l13.46 -11.12c22.27,-20.32 1.86,5.32 43.78,-43.32l37.61 -37.64c4.86,-6.79 2.21,-0.42 3.75,-8.66 -5.75,1.78 -3.28,1.23 -8.62,2.16z"/>
   <path class="fil3" d="M1386.5 2112.03c-4.71,-25.72 -22.8,-56.86 -31.2,-82.02 -9.51,-28.48 -43.86,-79.86 -67.21,-101.78 -5.63,-5.29 -8.33,-9.87 -13.71,-15.21 -5.38,-5.34 -8.91,-8.42 -13.65,-13.3 -30.71,-31.62 -38.78,-29.11 -64.17,-47.95 -17.56,-13.02 -16.6,-10.76 -37.57,-20.69 -32.79,-15.53 -94.06,-34.38 -130.69,-38.61 -37.02,-4.27 -70.85,-6.62 -109.83,-4.87 -22.1,0.99 -81.13,8.7 -96.7,15.95 104.32,4.38 185.02,11.99 275.67,54.61 77.71,36.54 102.74,48.69 166,106.94 10.7,9.85 18.08,14.86 27.98,26.02 3.84,4.33 8.78,10.51 12.93,14.04 13.35,11.37 27.76,28.82 38.23,42.58 14.04,18.44 35.7,58.46 43.93,64.29z"/>
   <path class="fil2" d="M1768.23 1727.08l28.77 -22.37c2.36,-2.17 1.63,-1.47 4.08,-3.53 0.32,-0.27 0.84,-0.67 1.14,-0.92l3.55 -3.06 -86.81 -69.37c-11.21,-7.89 -20.52,-14.1 -29.26,-22.8 -7.91,-7.88 -20.03,-16.4 -29.06,-23.15l-123.37 -98.75c-3.39,-3 -4.33,-3.14 -7.66,-5.9 -6.07,-5.03 -7.91,-6.72 -13.82,-11.33l-175.49 -139.15c-6.04,0.65 -4.07,0.06 -9.39,-2.32 -6.6,-2.95 0.77,1.87 -4.4,-4.99 -0.82,-1.09 -1.53,-2.04 -2.71,-3l72.29 81.16c10.9,10.6 16.14,18.34 25.88,28.22l30.04 25.89c16.27,14.24 45.42,45.38 68.91,66.1 23.11,20.39 44.09,43.35 64.43,62.65l19.09 17.47c6.35,5.75 9.56,8.09 14.35,12.85 28.32,28.13 56.35,49.88 84.59,79.31l33.55 28.13c6.91,6.87 11,17.76 31.29,8.86z"/>
   <path class="fil1" d="M1606.91 2347.87c3.46,8.7 8.55,11.32 15.25,17.01 5.84,4.96 11.39,9.89 18.05,14.78 13.27,9.73 25.18,18.01 40.87,24.88 27.62,12.09 82.52,16.51 118.36,13.59 68.03,-5.53 97.76,-20.5 151.5,-46.32 8.26,-3.97 13.97,-7.68 21.78,-11.24 6.63,-3.02 14.35,-6.58 18.45,-12.91l-384.27 0.19z"/>
   <path class="fil3" d="M819.82 1243.25c-3.63,7.52 -1.67,66.45 0.02,78.59 5.68,40.87 2.27,29.13 14.49,67.38 11.31,35.4 32.32,78.26 61.86,103.84 0.58,-16.69 -10.08,-11.58 -8.77,-65.32 9.32,4.87 18.2,15.74 25.14,24.28 19.39,23.83 83.96,65.18 114.82,78.62 11.45,4.98 22.82,10.04 34.07,14.57 17.01,6.85 58.19,21.23 74.94,21.46l-102.13 -59.67c-9.33,-6.74 -15.12,-9.38 -23.61,-16.88l-34.46 -27.48c-4.06,-3.65 -6.05,-5.74 -10.04,-9.17 -30.56,-26.23 -52.7,-50.61 -77.3,-82.6 -53.23,-69.24 -53.63,-104.6 -69.03,-127.61z"/>
   <path class="fil4" d="M2311.23 961.34c7.07,3.25 23.66,-2.87 33.59,1.64 5.26,2.65 5.58,8.47 7.48,19.07 1.41,7.87 3.82,14.83 8.19,19.85 18.49,1.13 38.09,-14.11 47.28,-21.57 -0.28,-6.78 -13.61,-33.81 -17.07,-40.46 -9.42,-18.17 -14.77,-59.89 -36.79,-78.11 -7.89,-6.53 -25.53,-17.73 -36.18,-20.93 2.56,13.89 26.23,44.28 16.16,60.88 -1.59,-14.46 -29.91,-49.01 -48,-61.54 -39.71,-27.52 -92.81,-18.84 -75.7,-3.05 5.63,5.19 29.03,12.79 38.35,18.21 12.26,7.13 16.28,21.32 19.67,35.7 10.48,44.42 28.43,-4.55 34.91,49.47 0.62,5.21 0.91,6.99 2.41,11.03l5.7 9.79z"/>
   <path class="fil4" d="M2166.96 484.48l8.29 3.48c8.48,2 12.45,0.48 29.09,5.5 19.15,5.78 19.46,3.62 20.43,21.71 3.19,59.77 58.37,82.71 109.79,72.04 11.16,-2.32 24.08,-8.57 34.51,-12.19 12.66,-4.4 29.57,-0.42 43.99,-3.34 -2.8,-2.39 -25.08,-10.63 -30.52,-13.11 -8.24,-3.76 -20.52,-10.84 -28.5,-16.12 -50.09,-33.2 -89.74,-80.01 -157.59,-65.34l-29.49 7.37z"/>
   <path class="fil1" d="M2605.43 856.63c9.81,1.11 37.61,-26.81 37.62,-26.83l2.11 24.65c20.82,-8.04 21.44,-12.44 29.57,-20.85l0.73 20.58c14.65,-3.22 19.24,-20.09 27.84,-25.99 -7.51,41.3 -32.86,22.11 -38.2,55.38 -1.55,9.66 -4.16,16.53 -5.61,24.21 27.85,-17.68 68.03,-56.45 75.39,-90.22 -65.26,3.17 -101.13,-7.42 -127.88,-6.79 -2.96,14.48 -3.18,29.83 -1.57,45.87z"/>
   <path class="fil2" d="M1689.48 379.89c-2.61,11.26 -3.16,26.26 -2,37.4 2.39,22.91 16.9,58.47 30.85,76.2 7.26,9.22 16.14,22.65 26.28,28.44 -2.09,-6.5 -9.58,-17.04 -17.09,-40.86 -11.92,-37.81 0.34,-77.45 31.73,-102.46 4.93,-3.93 14.74,-8.28 18.56,-11.97 -25.63,-2.75 -37.91,1.35 -59.36,3.31 -5.2,9.13 -13.33,-21.49 -28.97,9.94z"/>
   <path class="fil3" d="M2882.68 1522.91c33.29,2.32 66.13,-0.08 92.01,-11.8 87.53,-39.61 16.07,-66.88 -4.21,-53.31 -6.79,4.54 -8.16,4.7 -13.98,11.23 -15.23,17.07 -45.63,33.21 -66.4,47.57l-7.42 6.3z"/>
   <path class="fil1" d="M2511.2 900.79c19.55,-7.05 36.22,-27.07 48.44,-39.22l4.87 -4.78c3.55,-3.91 2.47,-2.8 4.99,-6.55l16.22 -25.92c2.55,-5.37 5.56,-10 7.18,-16.07 -6.52,-2.92 -61.33,-20.49 -66.73,-20.79 3.57,79.8 -10.27,80.97 -14.97,113.32z"/>
   <path class="fil1" d="M2313.44 744.27c4.47,9.57 10.58,19.3 17.53,23.96 30.03,-17.65 21.94,-17.6 39.35,-31.23 0.31,0.32 0.69,0.46 0.78,1.05 0.1,0.59 0.63,0.84 0.76,1.07 0.14,0.23 0.55,0.83 0.71,1.12l3.54 7.64c4.66,10.57 7.63,24.37 17.82,34.88 5.56,-1.95 40.89,-25.06 45.6,-30.82 8.01,13.88 15.24,47.84 21.3,55.87l28.88 -22.8c4.91,-4.26 5.72,-3.71 8.63,-10.74 -15.77,-8.92 -64.65,-27.83 -83.23,-33.41 -41.18,-12.39 -63.9,-5.88 -101.68,3.42z"/>
   <path class="fil3" d="M2871.11 1419.44c24.12,8.54 63.96,-2.88 82.73,-9.46 12.79,-4.48 23.06,-10.61 31.81,-18.68 37.37,-34.43 -9.77,-48.34 -28.93,-37.23 -7.99,4.63 -55.23,48.3 -69.05,56.65 -6.17,3.73 -10.25,5.05 -16.56,8.72z"/>
   <path class="fil1" d="M2332.11 984.52c-13.9,-0.69 -34,9.41 -48.96,5.29 -5.81,-18.91 2.51,-40.7 2.21,-60.57l-48.32 3.2 3.42 -56.37 -36.06 -2.04c2.3,10.42 31.17,59.65 38.41,69.81l47.89 57.98c28.89,29.52 36.79,45.9 38.75,21.87 1.08,-13.33 3.28,-25.05 2.67,-39.18z"/>
   <path class="fil1" d="M2354.11 1051.88c9.69,19.46 7.78,16.89 29.28,25.26 14.83,5.77 20.97,1.81 32.46,-15.55 12.07,-18.24 27.21,-55.75 25.2,-83.21 -10.38,8.23 -11.17,17.04 -41.25,37.66 -12.78,8.76 -39.19,25.58 -45.69,35.86z"/>
   <path class="fil1" d="M2496.85 1044.5c3.84,10.61 6.55,-0.57 7.46,16.73l-1.54 15.6c-2.98,10.25 3.82,-9.89 -1.12,3.17l-1.46 3.17c-10.22,-4.61 -4.68,-11.08 -11.81,-21.09l-25.09 -2.72c-4.08,7.02 -6.58,9.11 -11.48,14.37 -1.36,-9.4 0.1,-14.17 -5.09,-21.02 -6.81,4.24 -27.97,23.49 -26.36,32.38 15.97,10.29 79.56,5.84 94.57,-3.93 8.74,-5.69 13.64,-15.9 17.87,-22.69 9.02,-14.46 11.53,-34.63 16.05,-50.3 -6.98,3.64 -17.67,13.14 -25.71,18.58l-26.3 17.76z"/>
   <path class="fil3" d="M2914.11 1613.89c23.67,4.77 53.43,-2.42 72.53,-10.12 14.88,-6 42.54,-19.82 42.7,-38.16 -24.23,-19.83 -48.97,-0.83 -64.29,11.77 -12.2,10.03 -44.92,27.79 -50.94,36.51z"/>
   <path class="fil1" d="M2714.98 672.28c19.84,19.38 99.74,30.95 102.12,3.64 1.72,-19.72 -30.02,-21.27 -49.37,-20.6 -19.26,0.67 -45.02,4.29 -52.75,16.96z"/>
  </g>
 </g>
</svg>
