<?xml version="1.0" encoding="UTF-8"?>
<!DOCTYPE svg PUBLIC "-//W3C//DTD SVG 1.1//EN" "http://www.w3.org/Graphics/SVG/1.1/DTD/svg11.dtd">
<!-- Creator: CorelDRAW -->
<svg xmlns="http://www.w3.org/2000/svg" xml:space="preserve" width="115.177mm" height="120mm" version="1.1" style="shape-rendering:geometricPrecision; text-rendering:geometricPrecision; image-rendering:optimizeQuality; fill-rule:evenodd; clip-rule:evenodd"
viewBox="0 0 231.73 241.43"
 xmlns:xlink="http://www.w3.org/1999/xlink"
 xmlns:xodm="http://www.corel.com/coreldraw/odm/2003">
 <defs>
  <style type="text/css">
   <![CDATA[
    .fil0 {fill:#000205}
    .fil2 {fill:#C6D4D4}
    .fil4 {fill:#CF0C3D}
    .fil3 {fill:#EBECE5}
    .fil1 {fill:#FEFEFE}
   ]]>
  </style>
 </defs>
 <g id="Camada_x0020_1">
  <metadata id="CorelCorpID_0Corel-Layer"/>
  <path class="fil0" d="M112.44 171.16l26.89 -0.01c-0.29,0.46 -0.83,0.72 -1.29,0.94 -0.55,0.26 -0.95,0.53 -1.52,0.82 -3.76,1.88 -5.84,2.97 -10.6,3.38 -2.51,0.21 -6.35,-0.11 -8.28,-0.99 -1.1,-0.5 -1.93,-1.1 -2.86,-1.81 -0.47,-0.36 -0.85,-0.72 -1.26,-1.08 -0.47,-0.42 -0.82,-0.61 -1.07,-1.24zm20.7 -41.62l6.02 4.81c1.53,1.41 4.84,3.3 7.98,2.96 1.88,-0.21 4.42,-1.11 5.84,-2.33l5.28 -4.36c0.91,-1 1.09,-0.99 2.31,-1.8 0.28,-0.36 1.63,-1.51 2.15,-1.73 0.79,0.79 1.41,1.28 2.17,2.04l13.7 12.6c1.4,1.39 5.89,5.26 6.8,6.28l13.46 12.79c0.52,0.3 1.22,1.03 1.61,1.64 -0.14,0.44 -0.13,0.66 -0.56,1 -1.14,0.9 -2.49,0.66 -3.88,0.64 -9.79,-0.14 -20.38,0.02 -30.29,0 -1.98,-0 -11,-0.1 -12.2,0.09 0.23,-2.01 0.31,-3.55 0.33,-5.61l0.04 -1.89c-0.44,0.3 -0.73,0.69 -1.1,1.1l-1.05 1.26 -3.73 4.09c-0.1,0.32 -0.3,0.59 -0.61,0.94l-38.5 -0c-1.15,-3.6 -0.62,-2.62 -2.33,-6.37 -0.47,-1.03 -0.76,-2.08 -1.22,-3.18 -0.38,-0.91 -1.11,-2.15 -1.37,-3.08l5.58 -5.34c0.37,-0.3 0.51,-0.46 0.86,-0.79l2.41 -2.27c0.46,-0.45 0.52,-0.44 0.92,-0.73 0.65,-0.48 1.08,-1 1.64,-1.53 0.63,-0.6 1.15,-0.85 1.69,-1.47 0.59,-0.67 0.95,-0.92 1.65,-1.52l11.58 -10.58 2.8 2.34zm-36.12 24.42c-0.58,-0.43 -2.09,-3.34 -3.07,-4.69 -0.73,-1 -1.74,-2.27 -2.67,-3.1 -0.29,-0.26 -0.64,-0.71 -0.9,-1.02 -0.69,-0.81 -1.21,-1.18 -1.96,-1.9 -4.43,-4.25 -6.18,-5.13 -11.62,-7.8 -6.34,-3.11 -11.99,-3.66 -19.29,-3.98 1.09,-0.53 5.22,-1.09 6.77,-1.16 2.73,-0.13 5.09,0.04 7.68,0.35 2.56,0.31 6.85,1.68 9.14,2.81 1.47,0.72 1.4,0.56 2.63,1.51 1.78,1.37 2.34,1.19 4.49,3.5 0.33,0.36 0.58,0.58 0.95,0.97 0.38,0.39 0.57,0.72 0.96,1.11 1.63,1.6 4.04,5.34 4.7,7.42 0.59,1.83 1.85,4.1 2.18,5.98zm106.89 -36.31c0.42,-0.64 2.71,-1.93 3.56,-2.66 1.07,-0.92 2.8,-2.3 4.5,-0.86 -0.01,1.34 -1.95,2.34 -2.99,2.78 -1.34,0.56 -3.42,1.09 -5.07,0.74zm-2.2 -6.63l0.52 -0.46c1.45,-1.05 3.58,-2.22 4.65,-3.47 0.41,-0.48 0.5,-0.49 0.98,-0.82 1.42,-0.99 6.42,1 0.29,3.89 -1.81,0.85 -4.11,1.03 -6.44,0.86zm-0.81 -7.54c0.44,-0.27 0.73,-0.36 1.16,-0.64 0.97,-0.61 4.27,-3.79 4.83,-4.13 1.34,-0.81 4.64,0.2 2.02,2.71 -0.61,0.59 -1.33,1.03 -2.23,1.36 -1.31,0.48 -4.1,1.31 -5.79,0.69zm-143.53 -12.84c1.08,1.68 1.11,4.26 4.83,9.3 1.72,2.33 3.27,4.11 5.41,6.02 0.28,0.25 0.42,0.4 0.7,0.67l2.41 2c0.59,0.55 1,0.74 1.65,1.23l7.15 4.35c-1.17,-0.02 -4.05,-1.07 -5.24,-1.56 -0.79,-0.33 -1.58,-0.7 -2.38,-1.06 -2.16,-0.98 -6.68,-3.99 -8.03,-5.73 -0.49,-0.62 -1.11,-1.42 -1.76,-1.77 -0.09,3.92 0.65,3.54 0.61,4.76 -2.07,-1.86 -3.54,-4.99 -4.33,-7.57 -0.86,-2.79 -0.62,-1.93 -1.01,-4.91 -0.12,-0.88 -0.26,-5.18 -0,-5.73zm112.51 35.91l-3.23 -2.91 1.62 -1.31c0.58,-0.5 0.73,-0.49 1.55,-1.34 0.36,-0.37 0.7,-0.55 1.17,-0.9l12.22 -10.22c1.66,-1.25 4,-3.43 5.96,-4.92 0.4,-0.31 0.6,-0.61 1,-0.92l5.39 -4.38c1.49,-1.49 0.78,-0.73 2.18,-1.82 0.19,-0.15 0.38,-0.28 0.54,-0.43 1.38,-1.3 1.29,-1.03 2.18,-1.81 0.43,-0.37 0.1,-0.29 0.61,-0.49 0.2,-0.33 1.22,-1.28 1.77,-1.3 -0.58,4.23 0.92,3.98 -2.09,6.91 -0.73,0.71 -1.67,1.49 -2.54,2 -0.61,0.36 -2.66,1.34 -2.97,1.65 0.38,0.38 2.58,1.16 3.26,1.35 1.51,0.4 2.57,0.44 4.25,0.48 0.11,1.12 -0.59,1.36 -1.17,1.81 -2.08,1.6 -1.23,0.83 -2.78,1.76 -1.5,0.89 -2.1,0.91 -3.15,1.48 0.34,0.37 0.9,0.65 1.42,0.87 1.48,0.64 2.87,1.36 4.6,1.42 0.33,0.01 0.94,-0.01 1.11,0.21 0.71,1.73 -0.66,2.16 -1.61,2.78l-3 1.57c-0.02,0.01 -0.07,0.03 -0.1,0.05l2.34 0.96c0.59,0.22 2,0.73 2.44,0.99l-0 36.77c-0.43,-0.09 -2.36,-2.19 -2.92,-2.72 -0.4,-0.39 -0.67,-0.6 -1.08,-0.99l-3.06 -2.86c-2.98,-2.74 -6.34,-6.05 -9.26,-8.64 -0.68,-0.6 -1.33,-1.2 -2.07,-1.79 -0.72,-0.58 -1.29,-1.41 -2.02,-1.97l-10.47 -9.49c-0.39,-0.34 -0.56,-0.5 -1.01,-0.92 -0.36,-0.34 -0.73,-0.58 -1.08,-0.94zm-77.79 -39.25c-0.4,-1.52 0.74,-2.59 1.85,-2.95 0.87,-0.28 32.65,-0.11 34.34,-0.11 9.66,-0 19.88,0.14 29.46,0.03 1.29,-0.01 3.72,-0.15 4.82,0.14 3.42,0.9 3.84,1.44 8.42,0.86 1.54,-0.2 2.66,-0.98 3.97,-1.03 3.22,-0.12 6.67,0.03 9.92,0.01 3.26,-0.02 6.52,0 9.77,-0.01 1.47,-0.01 3.51,-0.22 4.74,0.23 1.18,0.43 1.94,1.64 1.25,3.3 -0.68,1.65 -1.42,1.55 -2.28,2.54l-10.72 8.97c-1.59,1.36 -1.96,1.38 -4.07,3.36 -0.34,0.32 -0.97,0.74 -1.4,1.08 -0.91,0.72 -1.8,1.53 -2.72,2.24 -0.41,0.32 -0.65,0.68 -1.21,1.13l-4.12 3.31c-0.73,0.7 -1.38,1.07 -2,1.59l-7.29 6.2c-0.55,0.41 -0.85,0.64 -1.36,1.11l-12.15 10.02c-1.67,1.06 -2.52,2.42 -5.14,2.27 -2.92,-0.17 -6.46,-4.1 -8.83,-5.88l-12.78 -10.63c-0.29,-0.26 -0.4,-0.33 -0.68,-0.56 -1.41,-1.15 -1.39,-0.97 -2.62,-2.2 -0.46,-0.46 -0.84,-0.66 -1.4,-1.08 -0.49,-0.38 -0.74,-0.75 -1.3,-1.17l-9.49 -7.71c-1.51,-1.21 -0.76,-0.91 -2.72,-2.24l-13.43 -11.22c-0.24,-0.3 -0.73,-1.2 -0.84,-1.62zm32.82 -10.08c0.24,-0.78 0.81,-1.28 1.21,-1.86 0.72,-1.04 2.53,-2.47 3.61,-3.27 2.47,-1.82 6.08,-2.85 9.84,-2.68 4.29,0.2 8.37,2.9 11.4,5.24 0.45,0.35 2.79,2.06 3.09,2.51l-29.15 0.06zm51.65 -2.36c0.56,-0.4 1.31,-1.09 1.8,-1.35 -0.32,1.14 -0.49,2.61 -1.12,3.67 -0.3,0.49 -0.64,1.24 -1.25,1.65 -1.05,0.71 -5.5,1.04 -6.62,0.29 -0.11,-0.65 1.37,-2.05 1.84,-2.36 0.36,0.5 0.26,0.85 0.36,1.53 0.34,-0.38 0.52,-0.54 0.8,-1.05l1.76 0.2c0.5,0.73 0.11,1.2 0.83,1.54l0.1 -0.23c0.35,-0.95 -0.13,0.52 0.08,-0.23l0.11 -1.14c-0.06,-1.26 -0.25,-0.45 -0.52,-1.22l1.84 -1.29zm-11.83 1.83c0.45,-0.75 2.3,-1.98 3.2,-2.61 2.1,-1.5 2.16,-2.15 2.89,-2.75 0.14,2 -0.92,4.74 -1.76,6.07 -0.8,1.27 -1.23,1.55 -2.27,1.13 -1.5,-0.61 -1.37,-0.42 -2.05,-1.84zm-70.93 20.04l12.28 10.14c0.41,0.34 0.54,0.46 0.97,0.83 0.23,0.2 0.3,0.21 0.54,0.43l8.63 7.2c0.63,0.49 1.48,1.11 2.03,1.69 0.61,0.63 1.26,1.09 2.05,1.66l6.07 5.06 -0.25 0.22c-0.02,0.02 -0.06,0.05 -0.08,0.07 -0.17,0.15 -0.12,0.1 -0.29,0.26l-2.01 1.63c-0.25,0.35 -0.37,0.34 -0.69,0.61 -0.3,0.25 -0.38,0.4 -0.68,0.69l-9.82 8.91c-0.51,0.43 -0.91,0.87 -1.43,1.32 -1.83,1.58 -8.17,7.67 -9.68,8.86 -0.69,-0.65 -1.79,-2.75 -2.43,-3.71 -1.32,-1.96 -1.85,-2.34 -2.62,-3.44 -0.78,-1.1 -5.08,-5.47 -6.28,-5.96 0.02,-1.94 0.32,-6.69 -0.12,-8.23 1.23,0.47 1.57,1.08 2.58,1.63 2.27,1.22 3.67,2.89 4.82,5.23 0.11,0.22 0.19,0.43 0.29,0.66l0.32 0.69c0.44,-1.24 1.03,-2.49 1.1,-4.03 0.08,-1.76 -0.52,-2.69 -0.81,-4.13 0.44,-0.27 0.55,-0.29 0.99,-0.06 1.05,0.57 1.74,1.2 2.56,1.99 1.73,1.68 2.07,3.15 2.64,3.44 0.42,-1.93 0.58,-3.66 0,-5.67 -1.04,-3.64 -2.09,-3.27 -1.13,-4.51 1.05,0.29 1.85,1.18 2.71,1.96 0.76,0.69 1.37,1.77 1.8,2.66 0.59,-1.67 0.18,-5.57 -0.74,-6.88 -0.24,-0.35 -0.32,-0.28 -0.62,-0.76 -0.24,-0.38 -0.23,-0.33 -0.54,-0.7 -2,-2.42 -1.67,-4.84 -3.77,-6.96 -1.46,-1.48 -3.86,-3.34 -6.46,-4.28 -2.09,-0.76 -5.96,-3.03 -7.66,-4.46 -0.37,-0.31 -0.43,-0.33 -0.78,-0.59 -0.63,-0.47 -0.85,-0.86 -1.31,-1.3l-2.54 -2.83c-3.41,-4.76 -4.75,-11.25 -3.57,-17.23 0.26,-1.31 0.89,-2.72 1.38,-3.97 0.49,-1.24 0.97,-2.68 1.88,-3.52 -0.54,2.34 -1.4,5.57 -1.33,8.13 0.07,2.85 0.2,5.68 1.13,8.16 0.42,1.12 0.89,2.29 1.32,3.38 0.74,1.87 4.51,7.37 5.96,7.85l-0.04 -5.15 3.62 3.04zm65.97 -24.56c1.05,0.3 2.45,-0.44 3.43,-0.39 0.04,1.03 -0.11,1.88 -0.19,2.86 -0.14,1.75 -0.69,0.56 -2.71,-1.59l-3.35 -4.23c-0.51,-0.74 -2.53,-4.33 -2.69,-5.09l2.52 0.15 -0.24 4.11 3.38 -0.23c0.02,1.45 -0.56,3.04 -0.15,4.42zm22.55 -9.71c-0.11,-1.17 -0.1,-2.29 0.11,-3.34 1.87,-0.05 4.38,0.73 8.95,0.5 -0.52,2.46 -3.33,5.29 -5.28,6.58 0.1,-0.56 0.28,-1.06 0.39,-1.76 0.37,-2.43 2.15,-1.03 2.67,-4.04 -0.6,0.43 -0.92,1.66 -1.95,1.89l-0.05 -1.5c-0.57,0.61 -0.61,0.93 -2.07,1.52l-0.15 -1.8c-0,0 -1.95,2.04 -2.63,1.96zm-6.59 3.22c0.33,-2.36 1.3,-2.44 1.05,-8.26 0.38,0.02 4.21,1.3 4.67,1.52 -0.11,0.44 -0.32,0.78 -0.5,1.17l-1.13 1.89c-0.18,0.27 -0.1,0.19 -0.35,0.48l-0.34 0.35c-0.86,0.89 -2.02,2.35 -3.39,2.86zm-13.84 -11.41c2.64,-0.68 4.23,-1.15 7.11,-0.25 1.3,0.41 4.72,1.79 5.82,2.44 -0.2,0.51 -0.26,0.47 -0.6,0.78l-2.02 1.66c-0.42,-0.59 -0.93,-3.06 -1.49,-4.07 -0.33,0.42 -2.8,2.1 -3.19,2.25 -0.71,-0.77 -0.92,-1.77 -1.25,-2.54l-0.25 -0.56c-0.01,-0.02 -0.04,-0.06 -0.05,-0.08 -0.01,-0.02 -0.05,-0.04 -0.05,-0.08 -0.01,-0.04 -0.03,-0.05 -0.06,-0.08 -1.22,0.99 -0.65,0.99 -2.75,2.28 -0.49,-0.34 -0.91,-1.05 -1.23,-1.75zm28.1 -5.25c0.54,-0.92 2.34,-1.19 3.69,-1.24 1.35,-0.05 3.57,0.06 3.45,1.5 -0.17,1.99 -5.76,1.15 -7.15,-0.27zm-69.73 -22.04c1.5,-0.14 2.36,-0.44 4.15,-0.24 -0.27,0.27 -0.95,0.59 -1.3,0.87 -2.2,1.82 -3.05,4.71 -2.22,7.47 0.53,1.74 1.05,2.5 1.2,2.98 -0.71,-0.42 -1.33,-1.4 -1.84,-2.07 -0.98,-1.29 -1.99,-3.88 -2.16,-5.55 -0.08,-0.81 -0.04,-1.91 0.14,-2.73l0.34 -0.71c-0.06,-1.05 1.29,-3.14 1.82,-3.77 1.85,-2.18 4.6,-3.29 7.64,-3.47 1.71,-0.1 3.58,0.55 4.91,0.44 -2.79,-2.24 -7.42,-3.66 -11.11,-2.42 -2.72,0.91 -2.06,1 -2.93,1.34 -0.3,0.12 -0.11,0.06 -0.41,0.11 -0.5,0.7 -2.22,1.75 -3.46,4.01 -1.13,2.05 0.05,1.62 -4.52,2.37 -1.25,0.21 -2.39,0.49 -3.66,0.75 -2.21,0.45 -4.81,1.14 -6.91,1.77l-6.58 2.22c-2.18,0.87 -4.21,1.69 -6.12,2.56l-5.91 2.91c-1.96,1.01 -2.54,1.22 -4.23,2.38l-3.36 2.01c-0.71,0.39 -0.53,0.41 -0.95,0.69l-3.59 2.47c-0.33,0.25 -0.37,0.19 -0.69,0.42l-0.61 0.49c-0.65,0.48 -1.82,1.47 -2.52,1.77 -1.13,1.19 -2.5,1.78 -3.71,3.01 -0.78,0.79 -1.9,1.56 -2.68,2.28 -0.36,0.33 -0.61,0.41 -0.77,0.84l2.93 -1.3c3.76,-1.59 9.17,-2.96 13.33,-3.47 2.48,-0.3 10.18,-1.09 11.84,-0.39 -0.3,0.3 -4.13,1.41 -4.9,1.69 -0.84,0.31 -1.67,0.67 -2.38,0.93 -1.33,0.48 -2.13,0.98 -3.36,1.45l-2.2 1.11c-1.77,0.82 -3.36,1.96 -5.01,2.97 -1.96,1.2 -7.37,5.44 -8.93,7.32 -0.24,0.29 -0.18,0.21 -0.39,0.43 -0.23,0.25 -0.13,0.17 -0.41,0.41 -1.94,1.69 -5.26,5.97 -6.45,8 -0.3,0.51 -0.38,0.64 -0.66,0.99 -0.61,0.77 -3.68,6.38 -4.07,7.22 -2.73,5.79 -3.18,8.49 -4.93,14.49 -0.91,3.13 -0.86,9.26 -1.5,11.42 -0.7,-0.86 -1.55,-8.16 -1.79,-9.86 -0.5,-3.54 -0.2,-7.4 0.21,-10.95 -0.14,0.15 -0.08,0.07 -0.22,0.28 -0.09,0.14 -0.07,0.12 -0.16,0.28 -0.65,1.22 -1.14,2.52 -1.48,3.88 -0.43,1.67 -0.96,3.3 -1.35,4.85 -1.79,7.12 -2.38,15.16 -1.63,22.57 0.24,2.35 0.5,5.77 1.19,8.04 0.61,1.99 1.15,4.96 1.92,7.29 0.99,3.01 2.24,5.99 3.55,8.85 1.8,3.92 4.38,8.25 6.85,11.73 0.94,1.33 2.89,4.14 3.96,5.27 0.31,0.32 1.23,1.29 1.34,1.63 -0.89,-0.12 -6.07,-3.69 -7.28,-4.91 -0.98,-0.99 -1.28,-1.01 -1.79,-1.51 -1.21,-1.17 -2.26,-2.01 -3.33,-3.27 -0.54,-0.64 -1.53,-1.52 -2.14,-2.26l-3.88 -4.93c0.24,1.66 2.69,5.95 3.59,7.43 2.01,3.32 3.41,5.08 5.62,8 0.84,1.11 2.81,3.15 3.86,4.26l2.14 1.99c0.27,0.24 0.42,0.44 0.69,0.68 1.43,1.31 3.11,2.5 4.43,3.7 0.51,0.46 0.94,0.67 1.6,1.15 5.41,3.9 11.44,7.11 17.74,9.39 0.65,0.23 7.72,2.47 8.16,2.77 -2.74,-0 -5.09,0.04 -7.77,-0.24 -2.27,-0.24 -4.63,-0.63 -6.78,-1.14 0.18,0.4 -0.01,0.16 0.41,0.45l1.57 0.9c0.71,0.38 1.47,0.73 2.21,1.1 0.51,0.25 0.58,0.44 1.01,0.63l3.51 1.31c5.09,1.9 10.17,3.24 15.59,4.11 13.21,2.13 27.01,0.27 38.72,-5.28 0.83,-0.39 1.29,-0.76 2.14,-1.16 3.48,-1.62 6.74,-4.18 9.62,-6.63l3.39 -2.96c-0.01,0.24 -0.04,0.48 -0.1,0.77 -0.16,0.72 0,0.19 -0.25,0.57 -0.65,0.99 -1.03,2.34 -1.57,3.37 -1.16,2.22 -2.47,4.24 -4.07,6.13 -0.53,0.62 -1.01,1.12 -1.54,1.76 -0.75,0.9 -3.1,2.7 -3.44,3.36 1.21,-0.22 2.68,-0.95 3.75,-1.41 3.82,-1.64 6.55,-2.7 10.24,-4.76 0.62,-0.35 1.13,-0.54 1.75,-0.86l4.65 -2.78c0.59,-0.38 0.88,-0.74 1.52,-1.09l2.99 -1.97c0.45,-0.35 0.96,-0.68 1.44,-1.04l2.91 -2.18c1.45,-1.06 1.14,-1.59 3.38,-1.58l20.1 0c3.31,-0 6.81,0.11 10.1,-0.01 -0.21,0.51 0.03,0.07 -0.31,0.44 -0.33,0.37 -1.57,2 -1.79,2.05 -0.22,0.57 -0.59,1.09 -0.96,1.53 -0.43,0.5 -0.84,0.72 -1.2,1.27l-1.1 1.38c-1.77,1.61 -3.51,3.89 -6.06,6.18l-10.95 8.75 -10.73 6.34 -12.08 5.13c-1.11,0.39 -2.75,0.87 -3.57,1.31 8.18,1.1 15.31,-1.4 17.48,-1.26 -0.03,0.03 -0.09,0.01 -0.1,0.07 -0.02,0.05 -0.08,0.05 -0.1,0.06l-3 1.33c-0.67,0.21 -0.52,0.27 -1.12,0.52 -1.23,0.53 -3.38,1.15 -4.61,1.71 -1.28,0.58 -3.17,1.04 -4.63,1.57 -3.17,1.15 -12.43,3.13 -15.51,3.41 -1.76,0.16 -3.64,0.47 -5.51,0.61 -9.89,0.76 -19.69,0.58 -29.35,-1.18 -4.72,-0.86 -10.37,-2.26 -15.02,-3.73 -1.15,-0.36 -4.09,-1.48 -4.71,-1.49l5.82 4.5c0.49,0.34 0.51,0.28 0.87,0.69 0.9,0.39 2.51,1.39 3.5,1.98 1.02,0.61 2.37,1.28 3.61,1.83 -2.26,-0.17 -10.48,-3.32 -12.63,-4.09 -0.59,-0.21 -1.08,-0.42 -1.55,-0.65 -0.45,-0.22 -0.95,-0.35 -1.45,-0.62 -0.77,-0.4 -1.96,-1 -2.76,-1.37 -3.98,-1.8 -8.51,-4.33 -12.16,-6.85l-2.49 -1.64c-0.44,-0.32 -0.72,-0.62 -1.18,-0.89l-4.83 -3.56c-0.76,-0.71 -1.51,-1.21 -2.31,-1.83l-3.37 -2.96c-1.66,-1.32 -0.98,-0.87 -2.11,-2.02 -0.88,-0.9 -2.21,-1.98 -3.23,-3.1l-1.96 -2.17c-2.58,-2.39 -2.5,-2.87 -3.95,-4.45l-5.64 -7.02 -6.62 -10.18c-0.65,-1.3 -4.06,-7.66 -4.39,-7.96l-0.07 1.09c0.28,0.44 0.19,1.35 0.22,1.92l0.65 5.54c0.67,3.72 1.09,6.77 1.87,10.66 0.25,1.25 0.58,2.16 0.88,3.4 0.55,2.34 1.02,4.49 1.71,6.67l1.13 3.01c0.21,0.56 0.32,1.07 0.46,1.59 0.22,0.8 0.32,0.84 0.65,1.43 0.55,0.98 0.65,2.07 1.11,3.02 0.46,0.94 0.87,2.02 1.3,2.96 0.91,1.98 2.37,5.07 3.5,6.97l1.49 2.63c0.28,0.4 0.7,0.83 0.71,1.33l-5.09 -5.9c-0.71,-0.97 -1.34,-1.58 -1.68,-2.18 -0.66,-1.17 -1.35,-1.81 -2.3,-3.2 -0.27,-0.39 -0.52,-0.81 -0.76,-1.17 -0.59,-0.9 -0.83,-1 -1.5,-2.21l-2.11 -3.54c-0.9,-1.33 -2.7,-5.19 -3.56,-6.76l-5.17 -12.86c-0.4,-1.84 -1.21,-3.85 -1.74,-5.72 -0.55,-1.92 -2.39,-10.61 -2.53,-12.44 -0.17,-2.26 -0.54,-4.59 -0.75,-6.85 -0.59,-6.58 -0.45,-14.84 0.23,-21.5 0.11,-1.12 0.3,-2.23 0.43,-3.31 0.11,-0.92 0.41,-2.51 0.36,-3.33 -0.04,0.33 -1.82,1.67 -2.9,3.39 -0.31,0.49 -0.51,1.05 -1.04,1.35 -0.22,0.68 -1.42,2.22 -1.9,3.02l-1.78 3.17c-0.27,-0.61 1.09,-10.51 1.42,-11.8 0.44,-1.75 0.77,-3.79 1.23,-5.5 0.26,-0.97 0.33,-1.76 0.63,-2.69l1.52 -5.22c0.19,-0.84 0.54,-1.64 0.79,-2.52l1.77 -4.97c2.42,-6.28 5.3,-12.35 8.78,-18.07 4.73,-7.1 8.19,-12.06 13.56,-18.38 1.43,-1.33 2.69,-2.77 4.04,-4.19 -1.22,-0.06 -6.62,1.86 -8.01,2.42l-7.11 3.19c0.24,-0.64 1.39,-2.02 2.04,-2.61l5.78 -5.92c3.59,-3.91 9.6,-8.43 14.04,-11.7 0.32,-0.21 0.35,-0.27 0.71,-0.53 2.02,-1.36 4.28,-2.91 6.34,-4.13 1.48,-0.88 2.94,-1.74 4.47,-2.55 1.1,-0.58 4.7,-2.19 5.53,-2.73 1.16,-0.75 2.63,-1.19 3.82,-1.85 -1.72,-0.4 -6.64,0.25 -8.48,0.45 -1.45,0.16 -2.67,0.28 -4.04,0.53 -0.8,0.15 -1.13,0.35 -1.71,0.5l-1.63 0.17c-0.02,-0 -0.09,0.01 -0.1,-0.03 -0.02,-0.04 -0.07,-0.02 -0.1,-0.03 1.45,-0.49 3.01,-1.62 4.29,-2.34 1.01,-0.57 2.92,-1.29 3.61,-1.9 0.89,-0.79 5.04,-2.79 6.42,-3.49 0.49,-0.25 0.99,-0.41 1.53,-0.67 0.42,-0.2 0.93,-0.54 1.42,-0.79 2.4,-1.22 5.17,-2.4 7.69,-3.33l0.61 -0.23c0.03,-0.01 0.06,-0.03 0.09,-0.05 0.03,-0.01 0.06,-0.04 0.08,-0.05l0.71 -0.37c3.37,-1.08 6.38,-2.39 9.81,-3.42 1.1,-0.33 2.2,-0.81 3.31,-1.09 3.45,-0.88 6.89,-1.89 10.48,-2.72 7.38,-1.71 16.15,-2.69 23.9,-2.61 12.02,0.13 21.95,2.31 32.64,7.07 0.94,0.42 1.88,1.25 2.89,1.44l-0.74 -4.08c0.55,0.15 0.93,0.53 1.47,0.8 0.47,0.24 0.78,0.48 1.29,0.78 1.19,0.7 3.81,2.61 4.87,3.53l6.32 6.21c1.34,1.51 2.44,3 3.64,4.76 0.72,1.06 1.28,2.39 1.95,3.42 1.43,2.18 2.55,5.96 3.85,7.58 0.37,0.46 0.58,0.8 0.99,1.22l3.26 2.94c0.73,0.65 3.94,3.48 4.38,4.08 -1.85,0.17 -3.58,0.73 -4.86,1.46 -1.16,0.66 -1.75,-0.18 -2.93,-0.9 -0.45,-0.27 -0.51,-0.26 -1,-0.51 -0.63,-0.32 -1.24,-0.8 -1.95,-1.22l-2.93 -1.89c-2.75,-2.39 -3.24,-2.61 -5.09,-5.79 -0.41,-0.7 -0.82,-1.29 -1.25,-1.91 -1.49,-2.17 -3.27,-4.08 -5.4,-5.62 -0.31,-0.22 -0.58,-0.37 -0.94,-0.58 -0.3,-0.17 -0.66,-0.37 -0.96,-0.55 -0.48,-0.3 -0.48,-0.48 -0.89,-0.52 0.63,1.78 3.07,4.98 3.07,6.91 -0.54,-0.6 -2.29,-1.83 -3.16,-2.37 -0.6,-0.37 -1.13,-0.83 -1.73,-1.16 -0.31,-0.17 -0.58,-0.25 -0.93,-0.45 -1.53,-0.9 -3.08,-1.62 -4.71,-2.31 -1.35,-0.58 -2.66,-1.11 -4.09,-1.56 -7.71,-2.44 -10.87,-2.93 -19.39,-3.09 0.48,0.79 1.99,1.54 2.17,2.11 -0.37,-0.28 -2.93,-1.05 -3.69,-1.24 -3.92,-0.95 -9.1,-0.59 -11.55,2.69zm-87.84 9.7c1.81,-0.24 3.42,-0.73 5.19,-1.12 1.93,-0.42 3.46,-0.56 5.48,-0.71 -2.79,2.75 -8.62,6.72 -12.27,10.06 -3.92,3.93 -7.23,7.27 -10.82,11.76 -0.63,0.79 -1.33,1.77 -1.95,2.59 -2.44,3.25 -5.17,7.53 -7.06,10.98 -0.45,0.82 -1.28,2.12 -1.49,2.98l2.71 -1.77c1.24,-0.91 5.62,-3.69 7.05,-4.24 0.62,-0.24 1.04,-0.42 1.56,-0.66 -0.55,0.32 -0.83,1.09 -1.37,1.81l-2.02 3.08c-0.23,0.36 -0.49,0.72 -0.71,1.08l-2.47 4.27c-2.47,4.19 -6.08,12.14 -7.45,16.5 -1.13,3.6 -2.2,6.83 -3.24,10.53 -1.03,3.65 -1.55,7.6 -2.29,11.33 -0.75,3.77 -1.1,8.55 -1.22,12.48 -0.14,4.6 0.02,8.73 0.35,13.21 0.26,3.57 0.65,7.2 1.21,10.74 0.07,0.45 0.08,1.11 0.41,1.38 0.23,-0.45 0.24,-1.48 0.41,-2.08 0.57,-1.92 0.9,-4.07 1.63,-5.93 0.43,-1.11 0.89,-2.66 1.27,-3.82 0.21,-0.64 0.42,-1.19 0.63,-1.86 0.12,-0.37 0.18,-0.64 0.29,-0.94l0.47 -0.99c0.05,2.98 -0.11,5.89 0.06,8.86 0.28,4.8 1.04,11.16 2.23,15.72 0.32,1.21 0.59,2.47 0.87,3.67 0.16,0.69 0.4,1.06 0.53,1.67 0.77,3.8 2.53,8.26 4,11.83 0.22,0.53 0.46,1.01 0.67,1.54l5.27 10.57c0.58,1.04 1.16,1.82 1.71,2.82 0.5,0.9 1.13,1.85 1.71,2.69 0.61,0.89 1.22,1.75 1.85,2.69 1.77,2.65 3.77,5.11 5.85,7.52l7.7 8.12c0.24,0.2 0.4,0.3 0.62,0.49 0.26,0.24 0.32,0.33 0.56,0.53l2.42 2.12c0.72,0.72 1.66,1.37 2.47,2.08l7.68 5.82c1.37,0.88 2.68,1.86 4.14,2.6 0.54,0.27 0.98,0.65 1.52,0.87l-3.4 -5.45c-0.32,-0.54 -0.78,-1.35 -1.07,-1.96 -0.95,-2.01 -2.06,-3.93 -2.92,-6.02 -0.28,-0.67 -0.5,-1.44 -0.8,-2.15 0.33,0.07 2.13,1.52 2.49,1.83 0.86,0.71 1.63,1.37 2.51,2.03 0.84,0.64 1.6,1.37 2.53,2l11.01 7.03c0.94,0.57 1.95,1.15 2.95,1.59 2.01,0.88 4.01,2.01 6.01,2.93 2.09,0.95 4.24,1.84 6.44,2.66 2.18,0.81 4.36,1.56 6.66,2.28 4.83,1.53 13.45,3.56 18.56,4 1.36,0.12 2.66,0.36 4.08,0.5 12.73,1.18 20.81,0.61 33.25,-1.5 4.73,-0.8 10.06,-2.16 14.42,-3.8 -0.84,-0.43 -16.09,-2.27 -17.45,-3.13 0.52,-0.3 7.6,-1.59 8.93,-1.91 4.02,-0.98 8.4,-2.31 12.33,-3.9 2.59,-1.04 5.1,-2.01 7.61,-3.26l7.16 -3.72c2.6,-1.17 9.12,-5.62 11.55,-7.46l4.61 -3.65c0.52,-0.45 0.95,-0.8 1.4,-1.22 0.44,-0.41 1.02,-0.98 1.45,-1.3 1.25,-0.92 4.52,-4.29 5.56,-5.32 0.6,-0.59 0.88,-0.92 1.32,-1.44l2.58 -2.79c4.21,-5.06 6.75,-8.57 10.27,-14.24 4.58,-7.39 7.31,-14.09 10.07,-22.56 0.45,-1.39 0.76,-2.84 1.2,-4.3 0.52,-1.73 1.97,-7.3 1.82,-9.05 -0.33,0.41 -0.74,0.89 -1.06,1.4 -0.66,1.06 -1.54,2.1 -2.3,3.07 -0.4,0.52 -0.8,0.95 -1.22,1.53 -1.11,1.55 -2.58,2.74 -3.81,4.17 -0.43,0.5 -0.81,0.89 -1.27,1.41 0.08,-0.53 0.42,-1.41 0.59,-2.08 0.2,-0.78 0.29,-1.52 0.48,-2.26 2.32,-9.32 3.06,-20.45 1.29,-29.95l-1.09 -4.44c-0.46,1.21 -0.57,2.54 -0.94,3.77 -0.96,3.21 -2.02,6.14 -3.56,9.11 -0.35,0.67 -0.55,1.26 -0.85,1.76l-8.09 12.25c-0.28,-0.45 -0.42,-24.81 -0.03,-25.74 1.76,-0.22 3.11,-0.91 4.26,-1.67 3.44,-2.27 5.86,-7.09 6.18,-11.52 0.39,-5.48 -1.05,-11.84 -5.04,-15.52l-1.65 -1.38c-0.6,-0.52 -1,-0.64 -1.77,-1.13 -2.73,-1.73 -1.84,-0.13 -2.39,-3.52 -0.14,-0.88 -0.43,-1.5 -0.78,-2.26 -3.3,-7.08 -10.73,-6.13 -17.49,-6.14 -1.98,-0 -10.76,0.21 -11.95,-0.07 0.05,-0.34 0.39,-1.06 0.53,-1.5 0.57,-1.83 0.53,-3.9 0.12,-5.75 -0.39,0.26 -2.6,2.32 -3.88,3.23l-1.48 1.02c-2.25,-1.25 -1.77,-3.38 -2.3,-5.85 -0.54,-0.04 -1.23,0.65 -1.56,0.9 -0.47,-0.5 -0.76,-1.91 -0.8,-2.79 -0.12,-2.54 0.76,-3.25 2.44,-4.68 0.61,-0.52 1.42,-1.14 2.19,-1.46 0.21,2.08 -0.47,4.23 -0.89,6.22 -0.16,0.74 -0.43,1.29 -0.46,2.03 2.51,-0.41 4.55,-1.23 6.26,-2.87 0.54,-0.52 1.13,-1.14 1.42,-1.62 0.25,0.3 0.14,0.51 0.31,0.89 0.36,-0.03 1.16,-0.18 1.54,-0.28 0.17,-0.04 0.18,-0.06 0.3,-0.1l1.35 -0.17c-0.08,1.53 -0.7,3.86 -1.18,4.98 2.9,-0.24 5.18,-1.8 6.85,-3.56 2.55,-2.68 2.96,-4.53 3.49,-4.91l0.58 -0.39c0.29,-0.24 0.29,-0.23 0.64,-0.46 0.77,-0.51 1.5,-1.06 2.23,-1.91 1.07,-1.25 2.61,-3.59 3.32,-5.08 1.01,-2.12 1.5,-4.32 -0.05,-6.24 -3,-3.72 -10.24,-7.57 -12.75,-12.3 -1.17,-2.2 -2.11,-4.75 -3.33,-7.01 -0.23,-0.42 -0.45,-0.87 -0.71,-1.36 -0.76,-1.43 -2.29,-3.87 -3.29,-5.11l-1.81 -2.31c-2.46,-2.92 -5.26,-5.91 -8.41,-8.25 -0.81,-0.6 -1.66,-1.14 -2.39,-1.73 -0.71,-0.58 -1.78,-1.11 -2.6,-1.67l-5.4 -2.99c-0.93,-0.37 -1.93,-0.81 -2.88,-1.25l-2.27 -0.87c-0.28,-0.11 -0.4,-0.24 -0.75,-0.38 0.15,0.75 0.46,1.13 0.65,2.1 0.18,0.9 0.51,1.3 0.61,2.21 -1.11,-0.09 -3.89,-1.75 -5.53,-2.1 -0.88,-0.19 -1.16,-0.39 -2.02,-0.61 -1.35,-0.35 -2.72,-0.66 -4.03,-1.05 -3.3,-0.97 -10.19,-1.69 -13.65,-1.9 -9.26,-0.58 -19.2,0.54 -28.09,2.46 -4.84,1.05 -7.62,1.85 -12.27,3.15 -1.43,0.4 -2.54,0.86 -3.94,1.27 -0.59,0.17 -1.3,0.46 -1.83,0.67 -0.59,0.23 -1.35,0.42 -1.98,0.65 -1.26,0.46 -2.48,0.91 -3.7,1.39l-4.52 1.8c-0.35,0.14 -0.56,0.25 -0.96,0.43 -0.65,0.29 -1.24,0.48 -1.86,0.76 -3.48,1.6 -6.91,3.27 -10.31,5.11l-4.96 2.75c-0.58,0.35 -0.99,0.53 -1.65,0.96 -0.28,0.18 -0.5,0.29 -0.79,0.47l-10.06 6.72c-2.03,1.38 -4.06,2.78 -5.99,4.34 -0.89,0.71 -3.94,2.85 -4.35,3.6z"/>
  <path class="fil1" d="M10.1 120.74c-0.11,-0.21 0.13,-0.22 -0.25,-0.14 -0.05,0.68 -0.49,0.86 -1.26,1.63 -0.43,0.43 -0.11,-0.14 -0.38,0.5 -0.6,-1.24 2.74,-8.34 3.41,-9.59l3.27 -5.79c0.58,-0.97 1.05,-2 1.69,-2.87 0.75,-1.02 3.08,-4.7 3.87,-5.43 0.1,0.2 0.09,-0.29 0.11,0.46 0,0.07 -0.04,0.36 -0.06,0.47 -0.08,0.41 -0.15,0.61 -0.22,1.03l-0.95 6.08c-0.15,1.42 -0.4,2.76 -0.51,4.16 -0.97,12.13 -0.72,17.29 1.17,29.38 0.59,3.78 1.84,7.44 2.76,11.27 0.46,1.89 0.67,1.76 0.63,4.09l0.15 7.96c0,0.01 -0,0.04 -0,0.05 0.01,0.11 -0.08,0.13 0.14,0.05l0.07 -4.48c-0,-0.86 -0.07,-4.11 0.01,-4.25 0.44,0.45 0.49,0.85 0.76,1.52 -0.05,-0.55 -0.11,-0.43 0.02,-0.98l0.07 -1.09c0.32,0.31 3.73,6.66 4.39,7.96l6.62 10.18 5.64 7.02c1.44,1.59 1.36,2.07 3.95,4.45l1.96 2.17c1.02,1.12 2.35,2.21 3.23,3.1 1.13,1.15 0.44,0.7 2.11,2.02l3.37 2.96c0.79,0.61 1.54,1.11 2.31,1.83l4.83 3.56c0.46,0.26 0.74,0.57 1.18,0.89l2.49 1.64c3.65,2.51 8.18,5.05 12.16,6.85 0.8,0.36 1.99,0.96 2.76,1.37 0.5,0.26 1,0.4 1.45,0.62 0.47,0.23 0.96,0.44 1.55,0.65 2.15,0.77 10.37,3.91 12.63,4.09 -1.24,-0.55 -2.58,-1.22 -3.61,-1.83 -0.99,-0.59 -2.59,-1.6 -3.5,-1.98l-0.42 0.57c-0.15,-0.1 -0.17,-0.13 -0.33,-0.27 -0.41,-0.36 -0.01,0.17 -1.2,-0.58 -1.18,-0.74 -0.31,-0.4 -1.78,-0.96 -0.98,-0.38 -1.09,-0.24 -1.32,-0.77 -0.48,-1.09 -0.69,-0.24 -3.04,-2.19 -1.89,-1.57 -2.48,-1.8 -4.94,-4l-2.34 -2.2c-1.54,-1.25 -2.14,-2.08 -3.17,-3.44 -0.37,-0.5 -0.82,-0.83 -1.01,-1.3 1.09,0.31 5.74,2.54 7.98,3.27 2.35,0.77 6.73,2.22 8.73,2.71 2.26,0.55 3.91,0.91 6.39,1.28 0.61,0.09 0.92,0.09 1.35,0.2 6.73,1.81 20.25,0.97 26.48,0.02 7.14,-1.09 17.47,-3.7 23.88,-6.66 2.35,-1.09 5.56,-2.3 7.78,-3.64l4.87 -2.68c0.71,-0.4 1.55,-1.05 2.33,-1.53 0.89,-0.55 1.54,-0.93 2.39,-1.45 0.74,-0.46 1.68,-1.27 2.44,-1.44l-5.67 8.33c3.56,-0.74 12.47,-5.29 15.28,-6.97 0.78,-0.46 1.7,-0.81 2.44,-1.28 0.39,-0.25 0.76,-0.53 1.18,-0.74 1.67,-0.84 6.13,-3.98 7.75,-5.33 1.03,-0.85 1.37,-0.96 2.16,-1.55l2.01 -1.71c0.31,-0.3 0.68,-0.55 0.96,-0.83 1.33,-1.33 -0.21,-0.03 1.9,-1.81 0.61,-0.51 2.5,-2.58 3.05,-2.69 -0.15,0.25 -0.13,-0.16 -0.12,0.51 0.01,0.7 -0.08,0.27 0.15,0.42 0.22,-0.05 1.46,-1.68 1.79,-2.05 0.34,-0.38 0.1,0.07 0.31,-0.44 -3.29,0.12 -6.79,0.01 -10.1,0.01l-20.1 -0c-2.23,-0.02 -1.93,0.52 -3.38,1.58l-2.91 2.18c-0.48,0.36 -0.99,0.69 -1.44,1.04l-2.99 1.97c-0.64,0.35 -0.93,0.72 -1.52,1.09l-4.65 2.78c-0.62,0.32 -1.13,0.51 -1.75,0.86 -3.69,2.06 -6.42,3.12 -10.24,4.76 -1.07,0.46 -2.54,1.18 -3.75,1.41 0.35,-0.66 2.69,-2.46 3.44,-3.36 0.53,-0.64 1.02,-1.14 1.54,-1.76 1.6,-1.89 2.91,-3.91 4.07,-6.13 0.54,-1.03 0.92,-2.38 1.57,-3.37 0.25,-0.38 0.09,0.15 0.25,-0.57 0.06,-0.29 0.09,-0.53 0.1,-0.77l-3.39 2.96c-2.89,2.44 -6.14,5 -9.62,6.63 -0.85,0.4 -1.31,0.77 -2.14,1.16 -11.72,5.56 -25.52,7.41 -38.72,5.28 -5.42,-0.87 -10.5,-2.21 -15.59,-4.11l-3.51 -1.31c-0.43,-0.19 -0.5,-0.38 -1.01,-0.63 -0.74,-0.37 -1.5,-0.71 -2.21,-1.1l-1.57 -0.9c-0.42,-0.29 -0.23,-0.06 -0.41,-0.45 2.15,0.5 4.51,0.9 6.78,1.14 2.68,0.28 5.03,0.24 7.77,0.24 -0.44,-0.3 -7.51,-2.54 -8.16,-2.77 -6.31,-2.28 -12.33,-5.49 -17.74,-9.39 -0.66,-0.48 -1.09,-0.69 -1.6,-1.15 -1.32,-1.2 -3,-2.39 -4.43,-3.7 -0.27,-0.24 -0.42,-0.44 -0.69,-0.68l-2.14 -1.99c-1.04,-1.12 -3.01,-3.15 -3.86,-4.26 -2.21,-2.92 -3.61,-4.68 -5.62,-8 -0.9,-1.48 -3.35,-5.77 -3.59,-7.43l3.88 4.93c0.61,0.74 1.61,1.63 2.14,2.26 1.07,1.27 2.12,2.1 3.33,3.27 0.52,0.5 0.81,0.52 1.79,1.51 1.21,1.22 6.39,4.79 7.28,4.91 -0.11,-0.33 -1.03,-1.31 -1.34,-1.63 -1.08,-1.13 -3.02,-3.94 -3.96,-5.27 -2.47,-3.47 -5.05,-7.81 -6.85,-11.73 -1.31,-2.85 -2.56,-5.83 -3.55,-8.85 -0.77,-2.34 -1.31,-5.31 -1.92,-7.29 -0.69,-2.27 -0.95,-5.69 -1.19,-8.04 -0.75,-7.4 -0.16,-15.45 1.63,-22.57 0.39,-1.55 0.92,-3.18 1.35,-4.85 0.35,-1.36 0.84,-2.66 1.48,-3.88 0.09,-0.16 0.07,-0.15 0.16,-0.28 0.14,-0.21 0.08,-0.13 0.22,-0.28 -0.41,3.55 -0.72,7.41 -0.21,10.95 0.24,1.7 1.09,9 1.79,9.86 0.64,-2.16 0.59,-8.29 1.5,-11.42 1.75,-6 2.2,-8.7 4.93,-14.49 0.39,-0.84 3.46,-6.45 4.07,-7.22 0.28,-0.35 0.36,-0.48 0.66,-0.99 1.19,-2.03 4.52,-6.32 6.45,-8 0.28,-0.24 0.18,-0.16 0.41,-0.41 0.21,-0.23 0.15,-0.14 0.39,-0.43 1.55,-1.89 6.96,-6.12 8.93,-7.32 1.65,-1.01 3.24,-2.15 5.01,-2.97l2.2 -1.11c1.23,-0.47 2.03,-0.97 3.36,-1.45 0.71,-0.26 1.54,-0.63 2.38,-0.93 0.76,-0.28 4.6,-1.39 4.9,-1.69 -1.66,-0.7 -9.36,0.09 -11.84,0.39 -4.16,0.51 -9.57,1.88 -13.33,3.47l-2.93 1.3c0.16,-0.43 0.41,-0.51 0.77,-0.84 0.79,-0.71 1.91,-1.49 2.68,-2.28 1.21,-1.22 2.58,-1.82 3.71,-3.01 -0.06,-0.42 -0.08,-0.22 0.02,-0.45 0.2,-0.44 0.03,-0.06 0.17,-0.09 0.42,-0.11 0.26,-0.2 0.83,-0.64 0.02,-0.02 0.06,-0.04 0.08,-0.06 0.45,-0.35 0.54,-0.3 0.63,-1.03 0.64,0.29 0.22,0.17 0.7,-0.24 0.02,-0.02 0.05,-0.05 0.08,-0.07l5.14 -4.38c1.21,-0.68 1,-0.74 2.03,-1.55l7.16 -4.95c4.68,-2.7 9.09,-5.44 14.05,-7.57l6.94 -2.69 7.44 -2.19c1.55,-0.42 6.77,-1.92 8.01,-1.37 0.25,0.88 -0.33,-0.31 -0.17,0.51 0.3,-0.05 0.11,0.01 0.41,-0.11 0.87,-0.34 0.21,-0.42 2.93,-1.34 3.69,-1.24 8.32,0.18 11.11,2.42 -1.33,0.11 -3.2,-0.54 -4.91,-0.44 -3.04,0.18 -5.79,1.29 -7.64,3.47 -0.53,0.63 -1.88,2.72 -1.82,3.77l0.08 0.27c0.78,-1.62 1.24,0.4 1.61,-0.29 2.46,-3.28 7.63,-3.63 11.55,-2.69 0.76,0.18 3.32,0.96 3.69,1.24 -0.18,-0.57 -1.69,-1.33 -2.17,-2.11 8.52,0.16 11.68,0.65 19.39,3.09 1.42,0.45 2.74,0.99 4.09,1.56 1.63,0.7 3.18,1.42 4.71,2.31 0.35,0.2 0.62,0.28 0.93,0.45 0.6,0.33 1.13,0.79 1.73,1.16 0.88,0.54 2.62,1.78 3.16,2.37 0,-1.93 -2.43,-5.13 -3.07,-6.91 0.41,0.04 0.4,0.23 0.89,0.52 0.3,0.19 0.65,0.38 0.96,0.55 0.36,0.2 0.64,0.35 0.94,0.58 2.13,1.54 3.91,3.45 5.4,5.62 0.43,0.63 0.84,1.21 1.25,1.91 1.85,3.19 2.33,3.4 5.09,5.79l2.93 1.89c0.71,0.42 1.32,0.9 1.95,1.22 0.48,0.25 0.55,0.24 1,0.51 1.18,0.72 1.77,1.56 2.93,0.9 1.27,-0.73 3.01,-1.3 4.86,-1.46 -0.45,-0.6 -3.65,-3.42 -4.38,-4.08l-3.26 -2.94c-0.4,-0.41 -0.62,-0.76 -0.99,-1.22 -1.3,-1.62 -2.41,-5.39 -3.85,-7.58 -0.68,-1.03 -1.23,-2.36 -1.95,-3.42 -1.2,-1.76 -2.3,-3.25 -3.64,-4.76l-6.32 -6.21c-1.06,-0.92 -3.68,-2.84 -4.87,-3.53 -0.51,-0.3 -0.82,-0.54 -1.29,-0.78 -0.54,-0.27 -0.92,-0.65 -1.47,-0.8l0.74 4.08c-1.01,-0.19 -1.95,-1.03 -2.89,-1.44 -10.69,-4.76 -20.62,-6.95 -32.64,-7.07 -7.75,-0.08 -16.52,0.89 -23.9,2.61 -3.59,0.83 -7.03,1.84 -10.48,2.72 -1.11,0.28 -2.21,0.77 -3.31,1.09 -4.58,1.36 -14.47,5.13 -18.99,7.44 -0.49,0.25 -1,0.58 -1.42,0.79 -0.54,0.26 -1.04,0.42 -1.53,0.67 -1.39,0.7 -5.54,2.7 -6.42,3.49 -0.69,0.61 -2.61,1.33 -3.61,1.9 -1.27,0.72 -2.84,1.85 -4.29,2.34 0.03,0.02 0.09,-0.01 0.1,0.03 0.02,0.04 0.08,0.02 0.1,0.03l1.63 -0.17c0.59,-0.15 0.91,-0.35 1.71,-0.5 1.37,-0.25 2.59,-0.37 4.04,-0.53 1.84,-0.2 6.77,-0.85 8.48,-0.45 -1.19,0.66 -2.65,1.1 -3.82,1.85 -0.83,0.53 -4.43,2.15 -5.53,2.73 -1,0.53 -2.16,0.98 -2.98,1.7 -0.53,0.46 -0.86,0.48 -1.49,0.85 -1.36,0.81 -2.91,2.02 -4.28,2.75l-2.06 1.38c-0.36,0.26 -0.38,0.32 -0.71,0.53l-4.04 2.98c-0.84,0.67 -0.98,0.95 -1.92,1.52l-1.26 1.08c-2.23,2.01 -4.82,3.96 -6.82,6.13l-5.78 5.92c-0.65,0.6 -1.8,1.97 -2.04,2.61l7.11 -3.19c1.39,-0.56 6.8,-2.48 8.01,-2.42 -1.35,1.42 -2.61,2.86 -4.04,4.19l-1.52 1.79c-0.37,0.49 -0.41,0.48 -0.84,0.94l-3.02 3.73c-0.48,0.64 -1.06,1.24 -1.46,1.85l-6.72 10.08c-3.48,5.72 -6.36,11.79 -8.78,18.07l-1.77 4.97c-0.25,0.89 -0.6,1.68 -0.79,2.52l-1.52 5.22c-0.3,0.94 -0.37,1.72 -0.63,2.69 -0.46,1.71 -0.79,3.75 -1.23,5.5 -0.32,1.29 -1.69,11.19 -1.42,11.8l1.78 -3.17c0.47,-0.81 1.68,-2.35 1.9,-3.02z"/>
  <path class="fil1" d="M183.55 102.64c2.11,-1.98 2.48,-2 4.07,-3.36l10.72 -8.97c0.86,-0.99 1.6,-0.89 2.28,-2.54 0.69,-1.66 -0.07,-2.86 -1.25,-3.3 -1.23,-0.45 -3.27,-0.24 -4.74,-0.23 -3.26,0.01 -6.52,-0.01 -9.77,0.01 -3.25,0.02 -6.7,-0.13 -9.92,-0.01 -1.31,0.05 -2.43,0.83 -3.97,1.03 -4.57,0.58 -5,0.04 -8.42,-0.86 -1.1,-0.29 -3.53,-0.15 -4.82,-0.14 -9.58,0.11 -19.81,-0.04 -29.46,-0.03 -1.69,0 -33.47,-0.17 -34.34,0.11 -1.11,0.36 -2.25,1.42 -1.85,2.95 0.11,0.42 0.6,1.32 0.84,1.62l13.43 11.22c1.96,1.33 1.21,1.03 2.72,2.24l9.49 7.71c0.56,0.42 0.81,0.8 1.3,1.17 0.56,0.42 0.94,0.63 1.4,1.08 1.23,1.22 1.21,1.05 2.62,2.2 0.28,0.23 0.39,0.3 0.68,0.56l12.78 10.63c2.36,1.78 5.91,5.71 8.83,5.88 2.61,0.15 3.46,-1.21 5.14,-2.27l12.15 -10.02c0.51,-0.47 0.82,-0.7 1.36,-1.11l7.29 -6.2c0.62,-0.52 1.26,-0.88 2,-1.59l4.12 -3.31c0.56,-0.45 0.8,-0.81 1.21,-1.13 0.92,-0.71 1.81,-1.52 2.72,-2.24 0.43,-0.34 1.06,-0.76 1.4,-1.08z"/>
  <path class="fil1" d="M160.57 128.82c0.58,-0.16 0.54,-0.35 0.97,-0.71 0.33,-0.27 0.56,-0.44 1.01,-0.63 0.28,0.15 1.65,0.98 1.72,1.51l-0.03 0.21c-0.01,0.03 -0.2,0.8 0.27,1.14 0.21,0.16 0.04,-0.07 0.24,0.21 -0.63,0.12 -4.25,3.36 -5.25,4.07l-3.98 3.18c-1.99,1.32 -3.47,3.27 -6.41,4.34 -1.43,0.52 -3.43,0.41 -4.91,0.1l-1.44 -0.61c-1.94,-0.87 -3.63,-2.43 -5.45,-3.78l-2.63 -2.17c-0.02,-0.02 -0.05,-0.05 -0.08,-0.06l-2.13 -1.73c-0.18,-0.14 -0.39,-0.31 -0.54,-0.42l-2.15 -1.83c-0.64,-0.51 -1.8,-1.01 -2.08,-1.81l0.18 -0.09c0.61,-0.45 0.57,-1.11 1.87,-1.64 0.72,-0.3 0.15,0.09 0.59,-0.64 0.02,0.03 0.03,0.08 0.04,0.1l0.09 0.27c0.01,0.01 -0.13,0.1 0.37,0.28l0.73 0.64c0.2,0.85 -0.15,-0.08 0.82,0.39 0.27,0.13 0.35,0.26 0.78,0.42l-2.8 -2.34 -11.58 10.58c-0.7,0.6 -1.06,0.85 -1.65,1.52 -0.55,0.62 -1.06,0.88 -1.69,1.47 -0.56,0.53 -0.99,1.05 -1.64,1.53 -0.4,0.29 -0.45,0.28 -0.92,0.73l-2.41 2.27c-0.35,0.32 -0.49,0.49 -0.86,0.79l-5.58 5.34c0.25,0.93 0.99,2.17 1.37,3.08 0.46,1.1 0.75,2.15 1.22,3.18 1.7,3.76 1.17,2.78 2.33,6.37l38.5 0c0.31,-0.35 0.51,-0.62 0.61,-0.94 -0.69,-0.54 0.14,-0.07 -0.88,-0.35 -0.44,1.06 -0.44,0.71 -1.91,0.84l-24.3 0.04c-0.7,0.01 -1.25,0.04 -2.1,0.02 -1.91,-0.04 -4.07,0.06 -6.04,-0.15l-3.69 0.05c0.22,-1.46 0.06,-2.94 0.08,-4.43 1.58,-0.17 33.73,-0.08 37.56,-0.05l3.83 0.04c0.02,-0 0.96,-0.11 1.19,-0.12l1.05 -1.26c0.37,-0.41 0.65,-0.79 1.1,-1.1l-0.04 1.89c0.92,0.35 -0.28,0.65 2.23,0.59 6.04,-0.16 13.17,-0.02 19.27,-0.03l20.88 0.07c0.16,-0.02 -0.11,-0.08 0.37,-0.05 0.53,1.02 0.5,0.03 0.72,1.3 1.18,-0.03 1.17,0.62 1.52,0.36l-13.46 -12.79c-0.91,-1.02 -5.4,-4.89 -6.8,-6.28l-13.7 -12.6c-0.76,-0.76 -1.38,-1.25 -2.17,-2.04 -0.52,0.22 -1.88,1.36 -2.15,1.73z"/>
  <path class="fil2" d="M90.14 212.31c-0.35,-0.4 -0.37,-0.34 -0.87,-0.69l-5.82 -4.5c0.62,0.01 3.56,1.13 4.71,1.49 4.65,1.47 10.29,2.86 15.02,3.73 9.66,1.76 19.46,1.95 29.35,1.18 1.87,-0.14 3.75,-0.45 5.51,-0.61 3.08,-0.28 12.34,-2.27 15.51,-3.41 1.46,-0.53 3.35,-0.99 4.63,-1.57 1.23,-0.56 3.38,-1.18 4.61,-1.71 0.59,-0.26 0.45,-0.31 1.12,-0.52l3 -1.33c0.03,-0.01 0.09,-0.01 0.1,-0.06 0.02,-0.05 0.07,-0.04 0.1,-0.07 -2.18,-0.13 -9.31,2.36 -17.48,1.26 0.83,-0.44 2.46,-0.92 3.57,-1.31l12.08 -5.13 10.73 -6.34 10.95 -8.75c2.56,-2.3 4.3,-4.58 6.06,-6.18l1.1 -1.38c0.36,-0.56 0.77,-0.77 1.2,-1.27 0.37,-0.43 0.74,-0.96 0.96,-1.53 -0.23,-0.15 -0.14,0.28 -0.15,-0.42 -0.01,-0.67 -0.02,-0.26 0.12,-0.51 -0.54,0.1 -2.43,2.17 -3.05,2.69 -2.12,1.78 -0.57,0.48 -1.9,1.81 -0.28,0.28 -0.65,0.53 -0.96,0.83l-2.01 1.71c-0.79,0.59 -1.13,0.7 -2.16,1.55 -1.62,1.34 -6.07,4.48 -7.75,5.33 -0.42,0.21 -0.79,0.49 -1.18,0.74 -0.74,0.47 -1.66,0.82 -2.44,1.28 -2.81,1.67 -11.72,6.23 -15.28,6.97l5.67 -8.33c-0.76,0.17 -1.7,0.98 -2.44,1.44 -0.85,0.52 -1.5,0.91 -2.39,1.45 -0.78,0.48 -1.62,1.13 -2.33,1.53l-4.87 2.68c-2.22,1.34 -5.43,2.55 -7.78,3.64 -6.4,2.96 -16.73,5.57 -23.88,6.66 -6.23,0.95 -19.75,1.79 -26.48,-0.02 -0.43,-0.11 -0.74,-0.11 -1.35,-0.2 -2.48,-0.37 -4.13,-0.73 -6.39,-1.28 -2,-0.49 -6.37,-1.94 -8.73,-2.71 -2.24,-0.73 -6.89,-2.96 -7.98,-3.27 0.2,0.47 0.64,0.8 1.01,1.3 1.02,1.36 1.63,2.19 3.17,3.44l2.34 2.2c2.46,2.2 3.05,2.43 4.94,4 2.36,1.95 2.56,1.1 3.04,2.19 0.23,0.53 0.34,0.39 1.32,0.77 1.46,0.56 0.6,0.22 1.78,0.96 1.19,0.75 0.79,0.22 1.2,0.58 0.16,0.14 0.19,0.17 0.33,0.27l0.42 -0.57z"/>
  <path class="fil1" d="M201.06 95.09c0.37,-0.07 0.2,-0.03 0.6,-0.16 -0.11,0.6 0.08,0.14 -0.26,0.63l-2.63 2.74c-3.13,3.58 -2.49,2.86 -4.01,2.63 -0.24,0.24 -0.26,0.31 -0.51,0.52 0.61,0.4 0.52,-0.04 1.45,0.01l-0.94 0.81c-0.02,0.02 -0.04,0.05 -0.06,0.08l-0.87 1.06c-0.15,0.19 -0.21,0.23 -0.42,0.4 -0.43,0.34 -0.49,0.43 -0.84,0.82l-12.88 12.6c-0.24,0.24 -0.42,0.47 -0.72,0.78l-6.05 5.78c-0.5,0.47 -0.57,0.36 -1.3,1.18 -1.02,1.14 -1.45,0.97 -1.74,1.56 0.35,0.36 0.72,0.61 1.08,0.94 0.44,0.42 0.61,0.57 1.01,0.92l10.47 9.49c0.73,0.57 1.3,1.39 2.02,1.97 0.74,0.6 1.39,1.19 2.07,1.79 2.92,2.59 6.29,5.89 9.26,8.64l3.06 2.86c0.41,0.38 0.68,0.6 1.08,0.99 0.56,0.54 2.49,2.63 2.92,2.72l0 -36.77c-0.43,-0.25 -1.85,-0.77 -2.44,-0.99l-2.34 -0.96c0.03,-0.02 0.08,-0.04 0.1,-0.05l3 -1.57c0.96,-0.62 2.32,-1.05 1.61,-2.78 -0.17,-0.22 -0.78,-0.2 -1.11,-0.21 -1.72,-0.07 -3.11,-0.78 -4.6,-1.42 -0.52,-0.22 -1.08,-0.51 -1.42,-0.87 1.05,-0.58 1.66,-0.59 3.15,-1.48 1.55,-0.93 0.7,-0.16 2.78,-1.76 0.59,-0.45 1.28,-0.69 1.17,-1.81 -1.68,-0.04 -2.73,-0.08 -4.25,-0.48 -0.68,-0.18 -2.89,-0.96 -3.26,-1.35 0.3,-0.31 2.35,-1.29 2.97,-1.65 0.87,-0.52 1.81,-1.29 2.54,-2 3.01,-2.92 1.51,-2.68 2.09,-6.91 -0.56,0.02 -1.57,0.98 -1.77,1.3z"/>
  <path class="fil2" d="M10.1 120.74c0.53,-0.3 0.73,-0.86 1.04,-1.35 1.09,-1.71 2.87,-3.05 2.9,-3.39 0.06,0.82 -0.24,2.41 -0.36,3.33 -0.13,1.08 -0.32,2.18 -0.43,3.31 -0.68,6.66 -0.82,14.92 -0.23,21.5 0.2,2.26 0.57,4.58 0.75,6.85 0.14,1.83 1.99,10.52 2.53,12.44 0.53,1.87 1.34,3.88 1.74,5.72l5.17 12.86c0.86,1.57 2.67,5.43 3.56,6.76l2.11 3.54c0.67,1.21 0.91,1.31 1.5,2.21 0.24,0.37 0.49,0.78 0.76,1.17 0.95,1.39 1.64,2.03 2.3,3.2 0.34,0.59 0.97,1.2 1.68,2.18l5.09 5.9c-0.01,-0.5 -0.44,-0.93 -0.71,-1.33l-1.49 -2.63c-1.12,-1.9 -2.59,-4.99 -3.5,-6.97 -0.43,-0.94 -0.84,-2.02 -1.3,-2.96 -0.47,-0.95 -0.56,-2.03 -1.11,-3.02 -0.33,-0.58 -0.43,-0.62 -0.65,-1.43 -0.14,-0.52 -0.25,-1.03 -0.46,-1.59l-1.13 -3.01c-0.69,-2.18 -1.15,-4.33 -1.71,-6.67 -0.29,-1.24 -0.62,-2.15 -0.88,-3.4 -0.78,-3.89 -1.19,-6.94 -1.87,-10.66l-0.65 -5.54c-0.03,-0.57 0.07,-1.48 -0.22,-1.92 -0.13,0.54 -0.07,0.42 -0.02,0.98 -0.27,-0.66 -0.32,-1.07 -0.76,-1.52 -0.08,0.14 -0.01,3.39 -0.01,4.25l-0.07 4.48c-0.22,0.08 -0.14,0.06 -0.14,-0.05 -0,-0.01 0,-0.04 0,-0.05l-0.15 -7.96c0.04,-2.33 -0.17,-2.19 -0.63,-4.09 -0.93,-3.84 -2.18,-7.49 -2.76,-11.27 -1.89,-12.09 -2.13,-17.25 -1.17,-29.38 0.11,-1.4 0.36,-2.74 0.51,-4.16l0.95 -6.08c0.07,-0.42 0.14,-0.62 0.22,-1.03 0.02,-0.11 0.06,-0.4 0.06,-0.47 -0.02,-0.75 -0,-0.26 -0.11,-0.46 -0.8,0.73 -3.12,4.41 -3.87,5.43 -0.64,0.86 -1.11,1.9 -1.69,2.87l-3.27 5.79c-0.68,1.25 -4.01,8.35 -3.41,9.59 0.28,-0.64 -0.05,-0.07 0.38,-0.5 0.77,-0.77 1.21,-0.95 1.26,-1.63 0.37,-0.09 0.14,-0.07 0.25,0.14z"/>
  <path class="fil1" d="M123.72 125.9c-1.42,0.65 -1.71,-0.14 -2.19,-0.65l-2.35 -2.05c-1.98,-2.14 -3.94,-3.73 -5.92,-5.78 -0.34,-0.35 -0.56,-0.52 -1,-0.94l-1.34 -1.27c-1.42,-1.41 -2.89,-3.08 -4.51,-4.57 -1.64,-1.51 -3.68,-3.78 -4.82,-4.82l-2.1 -1.89c-0.68,-0.72 -1.05,-1.28 -1.81,-2.06l-5.06 -5.92c0.08,0.07 0.13,0.14 0.19,0.22 0.36,0.5 -0.15,0.15 0.31,0.36 0.37,0.17 0.23,0.22 0.66,0.17l-3.62 -3.04 0.04 5.15c-1.45,-0.48 -5.22,-5.98 -5.96,-7.85 -0.43,-1.08 -0.9,-2.26 -1.32,-3.38 -0.93,-2.49 -1.05,-5.31 -1.13,-8.16 -0.07,-2.56 0.79,-5.79 1.33,-8.13 -0.91,0.85 -1.39,2.28 -1.88,3.52 -0.49,1.25 -1.12,2.67 -1.38,3.97 -1.18,5.98 0.15,12.47 3.57,17.23l2.54 2.83c0.47,0.44 0.69,0.83 1.31,1.3 0.35,0.27 0.41,0.28 0.78,0.59 1.7,1.43 5.57,3.7 7.66,4.46 2.6,0.94 4.99,2.8 6.46,4.28 2.1,2.13 1.77,4.54 3.77,6.96 0.31,0.37 0.3,0.32 0.54,0.7 0.3,0.48 0.37,0.41 0.62,0.76 0.92,1.31 1.32,5.22 0.74,6.88 -0.43,-0.88 -1.04,-1.96 -1.8,-2.66 -0.86,-0.78 -1.66,-1.67 -2.71,-1.96 -0.96,1.24 0.09,0.87 1.13,4.51 0.57,2.01 0.42,3.74 -0,5.67 -0.58,-0.29 -0.91,-1.76 -2.64,-3.44 -0.82,-0.8 -1.52,-1.42 -2.56,-1.99 -0.44,-0.24 -0.55,-0.21 -0.99,0.06 0.29,1.44 0.89,2.38 0.81,4.13 -0.07,1.54 -0.66,2.78 -1.1,4.03l-0.32 -0.69c-0.1,-0.24 -0.18,-0.44 -0.29,-0.66 -1.16,-2.34 -2.55,-4 -4.82,-5.23 -1.01,-0.54 -1.35,-1.16 -2.58,-1.63 0.44,1.54 0.14,6.29 0.12,8.23 1.19,0.5 5.49,4.86 6.28,5.96 0.77,1.09 1.3,1.48 2.62,3.44 0.64,0.95 1.75,3.05 2.43,3.71 1.51,-1.18 7.85,-7.27 9.68,-8.86 0.52,-0.45 0.92,-0.9 1.43,-1.32l9.82 -8.91c0.3,-0.29 0.38,-0.45 0.68,-0.69 0.33,-0.27 0.45,-0.27 0.69,-0.61z"/>
  <path class="fil2" d="M198.84 160.81c-0.34,0.26 -0.33,-0.39 -1.52,-0.36 -0.22,-1.26 -0.19,-0.28 -0.72,-1.3 -0.49,-0.02 -0.21,0.03 -0.37,0.05l-20.88 -0.07c-6.11,0.01 -13.23,-0.12 -19.27,0.03 -2.51,0.06 -1.31,-0.24 -2.23,-0.59 -0.03,2.06 -0.1,3.6 -0.33,5.61 1.2,-0.19 10.22,-0.09 12.2,-0.09 9.91,0.02 20.5,-0.14 30.29,-0 1.4,0.02 2.74,0.26 3.88,-0.64 0.44,-0.34 0.43,-0.56 0.56,-1 -0.39,-0.62 -1.1,-1.35 -1.61,-1.64z"/>
  <path class="fil2" d="M148.01 163.14l3.73 -4.09c-0.23,0 -1.17,0.12 -1.19,0.12l-3.83 -0.04c-3.83,-0.03 -35.98,-0.12 -37.56,0.05 -0.02,1.49 0.15,2.96 -0.08,4.43l3.69 -0.05c1.97,0.2 4.13,0.11 6.04,0.15 0.85,0.02 1.4,-0.01 2.1,-0.02l24.3 -0.04c1.48,-0.12 1.48,0.23 1.91,-0.84 1.02,0.28 0.19,-0.19 0.88,0.35z"/>
  <path class="fil2" d="M65.34 46c0.71,-0.3 1.87,-1.28 2.52,-1.77l0.61 -0.49c0.32,-0.23 0.36,-0.17 0.69,-0.42l3.59 -2.47c0.43,-0.27 0.25,-0.3 0.95,-0.69l3.36 -2.01c1.7,-1.16 2.27,-1.38 4.23,-2.38l5.91 -2.91c1.91,-0.87 3.94,-1.69 6.12,-2.56l6.58 -2.22c2.1,-0.63 4.7,-1.32 6.91,-1.77 1.26,-0.26 2.4,-0.54 3.66,-0.75 4.57,-0.75 3.39,-0.32 4.52,-2.37 1.24,-2.26 2.96,-3.3 3.46,-4.01 -0.16,-0.82 0.42,0.37 0.17,-0.51 -1.24,-0.55 -6.46,0.96 -8.01,1.37l-7.44 2.19 -6.94 2.69c-1.19,0.51 -2.19,0.97 -3.28,1.54 -0.3,0.15 -0.45,0.21 -0.75,0.35 -2.49,1.16 -7.49,4.23 -10.01,5.68l-7.16 4.95c-1.03,0.81 -0.82,0.87 -2.03,1.55l-5.14 4.38c-0.02,0.02 -0.05,0.05 -0.08,0.07 -0.49,0.4 -0.07,0.53 -0.7,0.24 -0.1,0.73 -0.18,0.69 -0.63,1.03 -0.02,0.02 -0.06,0.04 -0.08,0.06 -0.57,0.45 -0.41,0.54 -0.83,0.64 -0.13,0.03 0.03,-0.34 -0.17,0.09 -0.11,0.23 -0.09,0.03 -0.02,0.45z"/>
  <path class="fil2" d="M160.57 128.82c-1.22,0.81 -1.4,0.8 -2.31,1.8l-5.28 4.36c-1.42,1.22 -3.96,2.13 -5.84,2.33 -3.14,0.35 -6.44,-1.54 -7.98,-2.96l-6.02 -4.81c-0.43,-0.17 -0.5,-0.29 -0.78,-0.42 -0.97,-0.47 -0.62,0.46 -0.82,-0.39l-0.73 -0.64c-0.5,-0.18 -0.36,-0.27 -0.37,-0.28l-0.09 -0.27c-0.01,-0.02 -0.02,-0.07 -0.04,-0.1 -0.44,0.73 0.13,0.35 -0.59,0.64 -1.3,0.53 -1.26,1.19 -1.87,1.64l-0.18 0.09c0.28,0.81 1.44,1.3 2.08,1.81l2.15 1.83c0.15,0.12 0.36,0.28 0.54,0.42l2.13 1.73c0.02,0.02 0.05,0.05 0.08,0.06l2.63 2.17c1.82,1.35 3.51,2.91 5.45,3.78l1.44 0.61c1.49,0.31 3.48,0.42 4.91,-0.1 2.93,-1.07 4.41,-3.01 6.41,-4.34l3.98 -3.18c1,-0.71 4.62,-3.95 5.25,-4.07 -0.2,-0.28 -0.02,-0.05 -0.24,-0.21 -0.47,-0.34 -0.27,-1.11 -0.27,-1.14l0.03 -0.21c-0.07,-0.52 -1.44,-1.35 -1.72,-1.51 -0.45,0.18 -0.68,0.35 -1.01,0.63 -0.43,0.36 -0.39,0.54 -0.97,0.71z"/>
  <path class="fil1" d="M124.9 77.21l29.15 -0.06c-0.3,-0.44 -2.65,-2.16 -3.09,-2.51 -3.03,-2.35 -7.11,-5.05 -11.4,-5.24 -3.77,-0.17 -7.38,0.86 -9.84,2.68 -1.08,0.8 -2.89,2.22 -3.61,3.27 -0.4,0.58 -0.97,1.09 -1.21,1.86z"/>
  <path class="fil2" d="M201.06 95.09c-0.5,0.2 -0.18,0.11 -0.61,0.49 -0.9,0.77 -0.8,0.51 -2.18,1.81 -0.16,0.15 -0.35,0.28 -0.54,0.43 -1.39,1.09 -0.69,0.32 -2.18,1.82l-5.39 4.38c-0.4,0.32 -0.6,0.62 -1,0.92 -1.96,1.49 -4.29,3.67 -5.96,4.92l-12.22 10.22c-0.47,0.35 -0.81,0.53 -1.17,0.9 -0.82,0.85 -0.97,0.84 -1.55,1.34l-1.62 1.31 3.23 2.91c0.28,-0.59 0.72,-0.43 1.74,-1.56 0.74,-0.82 0.8,-0.71 1.3,-1.18l6.05 -5.78c0.3,-0.32 0.48,-0.54 0.72,-0.78l12.88 -12.6c0.79,-0.85 1.35,-1.32 2.14,-2.28 0.02,-0.02 0.04,-0.05 0.06,-0.08l0.94 -0.81c1.56,-1.48 0.13,0.39 3.06,-3.16l2.63 -2.74c0.34,-0.5 0.15,-0.03 0.26,-0.63 -0.4,0.13 -0.23,0.09 -0.6,0.16z"/>
  <path class="fil3" d="M97.01 153.97c-0.33,-1.87 -1.6,-4.15 -2.18,-5.98 -0.67,-2.08 -3.07,-5.82 -4.7,-7.42 -0.39,-0.39 -0.58,-0.72 -0.96,-1.11 -0.38,-0.39 -0.62,-0.61 -0.95,-0.97 -2.15,-2.3 -2.71,-2.12 -4.49,-3.5 -1.23,-0.95 -1.16,-0.78 -2.63,-1.51 -2.29,-1.13 -6.58,-2.51 -9.14,-2.81 -2.59,-0.31 -4.96,-0.48 -7.68,-0.35 -1.55,0.07 -5.68,0.63 -6.77,1.16 7.3,0.32 12.95,0.87 19.29,3.98 5.44,2.66 7.19,3.55 11.62,7.8 0.75,0.72 1.26,1.08 1.96,1.9 0.27,0.32 0.61,0.77 0.9,1.02 0.93,0.83 1.94,2.1 2.67,3.1 0.98,1.34 2.5,4.26 3.07,4.69z"/>
  <path class="fil2" d="M123.72 125.9l2.01 -1.63c0.16,-0.16 0.11,-0.11 0.29,-0.26 0.02,-0.02 0.06,-0.05 0.08,-0.07l0.25 -0.22 -6.07 -5.06c-0.78,-0.58 -1.44,-1.03 -2.05,-1.66 -0.55,-0.57 -1.4,-1.2 -2.03,-1.69l-8.63 -7.2c-0.24,-0.22 -0.3,-0.23 -0.54,-0.43 -0.42,-0.37 -0.55,-0.49 -0.97,-0.83l-12.28 -10.14c-0.42,0.05 -0.28,0 -0.66,-0.17 -0.46,-0.22 0.05,0.14 -0.31,-0.36 -0.06,-0.08 -0.11,-0.15 -0.19,-0.22l5.06 5.92c0.76,0.77 1.13,1.34 1.81,2.06l2.1 1.89c1.14,1.04 3.18,3.31 4.82,4.82 1.62,1.49 3.08,3.16 4.51,4.57l1.34 1.27c0.44,0.42 0.67,0.59 1,0.94 1.98,2.05 3.94,3.64 5.92,5.78l2.35 2.05c0.48,0.5 0.77,1.29 2.19,0.65z"/>
  <path class="fil1" d="M112.44 171.16c0.24,0.63 0.6,0.83 1.07,1.24 0.41,0.36 0.8,0.72 1.26,1.08 0.93,0.71 1.76,1.31 2.86,1.81 1.93,0.88 5.77,1.2 8.28,0.99 4.76,-0.4 6.84,-1.49 10.6,-3.38 0.58,-0.29 0.98,-0.56 1.52,-0.82 0.46,-0.22 1,-0.48 1.29,-0.94l-26.89 0.01z"/>
  <path class="fil3" d="M57.36 90.63c-0.25,0.55 -0.12,4.84 0,5.73 0.4,2.98 0.16,2.12 1.01,4.91 0.79,2.58 2.26,5.71 4.33,7.57 0.04,-1.22 -0.71,-0.84 -0.61,-4.76 0.65,0.35 1.27,1.15 1.76,1.77 1.36,1.74 5.87,4.75 8.03,5.73 0.8,0.36 1.6,0.73 2.38,1.06 1.19,0.5 4.07,1.55 5.24,1.56l-7.15 -4.35c-0.65,-0.49 -1.06,-0.68 -1.65,-1.23l-2.41 -2c-0.28,-0.27 -0.42,-0.42 -0.7,-0.67 -2.14,-1.91 -3.69,-3.69 -5.41,-6.02 -3.72,-5.05 -3.75,-7.63 -4.83,-9.3z"/>
  <path class="fil4" d="M161.72 70.08c0.49,0.24 1.66,-0.21 2.35,0.12 0.37,0.19 0.39,0.62 0.52,1.39 0.1,0.57 0.27,1.08 0.57,1.45 1.29,0.08 2.67,-1.03 3.31,-1.57 -0.02,-0.49 -0.95,-2.46 -1.19,-2.95 -0.66,-1.32 -1.03,-4.37 -2.57,-5.69 -0.55,-0.48 -1.79,-1.29 -2.53,-1.53 0.18,1.01 1.83,3.23 1.13,4.44 -0.11,-1.05 -2.09,-3.57 -3.36,-4.49 -2.78,-2.01 -6.49,-1.37 -5.3,-0.22 0.39,0.38 2.03,0.93 2.68,1.33 0.86,0.52 1.14,1.55 1.38,2.6 0.73,3.24 1.99,-0.33 2.44,3.61 0.04,0.38 0.06,0.51 0.17,0.8l0.4 0.71z"/>
  <path class="fil4" d="M151.62 35.32l0.58 0.25c0.59,0.15 0.87,0.04 2.04,0.4 1.34,0.42 1.36,0.26 1.43,1.58 0.22,4.36 4.08,6.03 7.68,5.25 0.78,-0.17 1.68,-0.62 2.41,-0.89 0.89,-0.32 2.07,-0.03 3.08,-0.24 -0.2,-0.17 -1.76,-0.77 -2.14,-0.96 -0.58,-0.27 -1.44,-0.79 -1.99,-1.18 -3.5,-2.42 -6.28,-5.83 -11.03,-4.76l-2.06 0.54z"/>
  <path class="fil1" d="M182.3 62.45c0.69,0.08 2.63,-1.95 2.63,-1.96l0.15 1.8c1.46,-0.59 1.5,-0.91 2.07,-1.52l0.05 1.5c1.03,-0.23 1.35,-1.46 1.95,-1.89 -0.53,3.01 -2.3,1.61 -2.67,4.04 -0.11,0.7 -0.29,1.2 -0.39,1.76 1.95,-1.29 4.76,-4.12 5.28,-6.58 -4.57,0.23 -7.08,-0.54 -8.95,-0.5 -0.21,1.06 -0.22,2.17 -0.11,3.34z"/>
  <path class="fil2" d="M118.21 27.69c-0.18,0.82 -0.22,1.91 -0.14,2.73 0.17,1.67 1.18,4.26 2.16,5.55 0.51,0.67 1.13,1.65 1.84,2.07 -0.15,-0.47 -0.67,-1.24 -1.2,-2.98 -0.83,-2.76 0.02,-5.65 2.22,-7.47 0.35,-0.29 1.03,-0.6 1.3,-0.87 -1.79,-0.2 -2.65,0.1 -4.15,0.24 -0.36,0.67 -0.93,-1.57 -2.03,0.72z"/>
  <path class="fil3" d="M201.7 111.02c2.33,0.17 4.63,-0.01 6.44,-0.86 6.12,-2.89 1.12,-4.88 -0.29,-3.89 -0.47,0.33 -0.57,0.34 -0.98,0.82 -1.07,1.24 -3.19,2.42 -4.65,3.47l-0.52 0.46z"/>
  <path class="fil1" d="M175.71 65.67c1.37,-0.51 2.53,-1.97 3.39,-2.86l0.34 -0.35c0.25,-0.28 0.17,-0.2 0.35,-0.48l1.13 -1.89c0.18,-0.39 0.39,-0.73 0.5,-1.17 -0.46,-0.21 -4.29,-1.49 -4.67,-1.52 0.25,5.82 -0.72,5.9 -1.05,8.26z"/>
  <path class="fil1" d="M161.87 54.26c0.31,0.7 0.74,1.41 1.23,1.75 2.1,-1.29 1.54,-1.28 2.75,-2.28 0.02,0.02 0.05,0.03 0.06,0.08 0.01,0.04 0.04,0.06 0.05,0.08 0.01,0.02 0.04,0.06 0.05,0.08l0.25 0.56c0.33,0.77 0.53,1.78 1.25,2.54 0.39,-0.14 2.86,-1.83 3.19,-2.25 0.56,1.01 1.07,3.49 1.49,4.07l2.02 -1.66c0.34,-0.31 0.4,-0.27 0.6,-0.78 -1.1,-0.65 -4.52,-2.03 -5.82,-2.44 -2.88,-0.9 -4.47,-0.43 -7.11,0.25z"/>
  <path class="fil3" d="M200.89 103.48c1.69,0.62 4.48,-0.21 5.79,-0.69 0.89,-0.33 1.61,-0.77 2.23,-1.36 2.61,-2.51 -0.68,-3.52 -2.02,-2.71 -0.56,0.34 -3.86,3.52 -4.83,4.13 -0.43,0.27 -0.72,0.37 -1.16,0.64z"/>
  <path class="fil1" d="M163.18 71.77c-0.97,-0.05 -2.38,0.69 -3.43,0.39 -0.41,-1.38 0.18,-2.97 0.15,-4.42l-3.38 0.23 0.24 -4.11 -2.52 -0.15c0.16,0.76 2.18,4.35 2.69,5.09l3.35 4.23c2.02,2.15 2.57,3.35 2.71,1.59 0.08,-0.97 0.23,-1.83 0.19,-2.86z"/>
  <path class="fil1" d="M164.72 76.68c0.68,1.42 0.54,1.23 2.05,1.84 1.04,0.42 1.47,0.13 2.27,-1.13 0.84,-1.33 1.9,-4.06 1.76,-6.07 -0.73,0.6 -0.78,1.24 -2.89,2.75 -0.89,0.64 -2.74,1.86 -3.2,2.61z"/>
  <path class="fil1" d="M174.7 76.14c0.27,0.77 0.46,-0.04 0.52,1.22l-0.11 1.14c-0.21,0.75 0.27,-0.72 -0.08,0.23l-0.1 0.23c-0.72,-0.34 -0.33,-0.81 -0.83,-1.54l-1.76 -0.2c-0.29,0.51 -0.46,0.66 -0.8,1.05 -0.1,-0.69 0.01,-1.03 -0.36,-1.53 -0.48,0.31 -1.96,1.71 -1.84,2.36 1.12,0.75 5.57,0.43 6.62,-0.29 0.61,-0.41 0.95,-1.16 1.25,-1.65 0.63,-1.05 0.81,-2.52 1.12,-3.67 -0.49,0.27 -1.24,0.96 -1.8,1.35l-1.84 1.29z"/>
  <path class="fil3" d="M203.9 117.65c1.66,0.35 3.74,-0.18 5.07,-0.74 1.04,-0.44 2.98,-1.44 2.99,-2.78 -1.7,-1.45 -3.43,-0.06 -4.5,0.86 -0.85,0.73 -3.14,2.03 -3.56,2.66z"/>
  <path class="fil1" d="M189.97 49.01c1.39,1.41 6.98,2.26 7.15,0.27 0.12,-1.44 -2.1,-1.55 -3.45,-1.5 -1.35,0.05 -3.15,0.31 -3.69,1.24z"/>
 </g>
</svg>
