<?xml version="1.0" encoding="UTF-8"?>
<!DOCTYPE svg PUBLIC "-//W3C//DTD SVG 1.1//EN" "http://www.w3.org/Graphics/SVG/1.1/DTD/svg11.dtd">
<!-- Creator: CorelDRAW -->
<svg xmlns="http://www.w3.org/2000/svg" xml:space="preserve" width="381.856mm" height="129.5mm" version="1.1" style="shape-rendering:geometricPrecision; text-rendering:geometricPrecision; image-rendering:optimizeQuality; fill-rule:evenodd; clip-rule:evenodd"
viewBox="0 0 44002.34 14922.63"
 xmlns:xlink="http://www.w3.org/1999/xlink"
 xmlns:xodm="http://www.corel.com/coreldraw/odm/2003">
 <defs>
  <style type="text/css">
   <![CDATA[
    .fil1 {fill:#000205}
    .fil2 {fill:#C6D4D4}
    .fil4 {fill:#CF0C3D}
    .fil3 {fill:#EBECE5}
    .fil0 {fill:#FEFEFE}
   ]]>
  </style>
 </defs>
 <g id="Camada_x0020_1">
  <metadata id="CorelCorpID_0Corel-Layer"/>
  <g id="_1702036233248">
   <g>
    <path class="fil0" d="M4815.04 14260.28l296.07 456.53 -1318.15 -501.79c-52.26,-19.89 -88.19,-41.89 -134.42,-68.92 -100.21,-49.43 -186.05,-109.66 -280.51,-167.69l-15.31 -9.4 -486.72 -353.97 -13.23 -11.22c-51.27,-43.55 -103.61,-78.76 -153.93,-124.52l-133.64 -112.26c-13.01,-10.72 -25.22,-21.71 -37.38,-33.21 -9.76,-7.21 -19.38,-14.47 -28.91,-22.19l-19.84 -16.07 -485.36 -491.24 -7.37 -8.23c-136.18,-151.73 -267.16,-307.35 -383.87,-474.7 -34.72,-49.78 -70.51,-98.78 -106.04,-147.97 -45.07,-62.41 -88.82,-126.34 -127.42,-192.98 -31.5,-54.39 -69.72,-105.46 -101.81,-160.59l-5.58 -9.58 -328.33 -631.96 -7.34 -17.53c-11.85,-28.26 -26.05,-55.93 -38.23,-84.26 -102.05,-237.4 -206.45,-492.06 -262.32,-745.23 -12.83,-34.22 -24.11,-66.16 -32.92,-102.94 -15.69,-65.51 -30.65,-131.35 -48.34,-196.36 -7.84,-28.75 -15.33,-57.99 -22.48,-87.61l-235.07 -184.46c-123.85,-97.2 -175.33,-220.88 -195.41,-370.53 -35.43,-215.58 -59.41,-433.28 -76.1,-651.07 -20.66,-269.6 -30.44,-535.74 -22.03,-806.2 8.1,-260.17 29.29,-538.93 82.08,-793.71 47.58,-229.73 79.25,-458.89 145.54,-685.06 60.81,-207.45 130.62,-411.48 197.88,-616.84 12.08,-36.89 25.45,-75.07 39.94,-114.23l-183.14 114.36 296.16 -1124.05c28.97,-109.96 80.24,-186.77 134.4,-281.74 133.24,-233.65 292.84,-472.94 458.66,-684.79 41.61,-53.16 81.62,-107.39 124.82,-159.31 79.63,-95.69 161.59,-187.28 245.54,-276.5l-15.44 1.98 465.32 -805.88c87.24,-151.12 243.48,-236.87 377.05,-340.11 125.6,-97.1 257.04,-186.02 390.59,-271.74l607.63 -389.96 7.69 -4.53c12.61,-7.41 25.33,-14.16 38.05,-21.24 36.6,-22.82 73.06,-40.54 109.82,-61.83l7.14 -4.15 307.46 -163.75c210.06,-109.21 424.58,-209.29 641.04,-305.09 39.29,-17.39 79.23,-30.24 118.32,-46.72 22.55,-9.51 44.57,-19.59 67.39,-28.6l273.93 -104.98c77.29,-29.61 155.33,-57.06 233.45,-84.36 36.25,-12.66 73.98,-21.51 109.14,-33.89 48.81,-18.23 96.77,-36.78 147.64,-50.77 79.89,-21.99 157.29,-51.56 237.93,-73.23 252.99,-67.98 501.1,-132.99 757.86,-186.44 581.11,-120.95 1204.03,-185.49 1797.57,-149.84 256.29,15.4 583.55,44.64 842.1,107.3l-60.79 -292.43 781.55 290.5c23.16,8.61 44.78,18.36 66.21,29.36l126.95 46.44 14.55 6.5c48.5,21.64 97.59,42.68 147.27,61.47l27.51 10.41 367.68 195.62 18.32 12.11c62.73,41.47 122.93,68.89 185.04,117.57 39.01,30.58 85.48,57.82 126.33,87 216.23,154.42 404.89,344.26 580.02,543.12l5.6 6.36 111.78 136.74c88.04,105.16 178.7,243.76 244.9,363.71 13.53,24.51 26.23,49.57 39.97,73.91 74.66,132.26 127.91,273.51 200.48,404.59 39.4,71.16 184.21,182.81 248.8,232.86 158.61,122.93 332.7,244.42 462.11,398.83 216.06,257.84 205.13,571.28 62.24,858.82 -64.82,130.41 -170.1,284.88 -267.25,393.44 -64.9,72.52 -136.06,130.82 -216.99,183.1 -31.65,50.9 -62.39,96.66 -97.08,141.59 105.33,3.08 210.58,11.67 317.2,33 343.81,68.76 612.78,257.51 768.51,578.42 28.12,57.95 50.78,111.46 67.41,169.74 34.6,19.97 66.37,38.89 103.94,69.76l104.11 83.64 8.1 7.16c326.12,288.13 467.89,739.73 459.76,1167.91l231.92 909.5 2.56 13.27c36.03,186.29 56.9,380.91 64.09,578.54l275.16 -325.3 102.34 1092.3c17.5,186.9 -69.08,512.11 -127.21,698.52 -26.68,85.55 -46.27,172.19 -75.27,257.49 -171.52,504.29 -360.02,944.68 -650.06,1393.66 -203.33,314.72 -406.29,584.73 -651.94,867.56l-7.9 9.1 -154.16 159.8c-32.06,36.53 -64.75,70.48 -100.14,104.26 -116.87,111.57 -248.22,250.54 -378.31,343.9 -17.42,14.3 -34.52,31.17 -51.36,46.17 -31.34,27.94 -63.93,53.88 -96.23,80.63l-7.34 6.07 -286.35 217.81 -3.84 2.79c-209.24,152.45 -528.17,366.82 -764.56,472.05l-421.13 210.1 -4.08 1.94c-70.89,33.65 -142.66,64.52 -214.94,94.02l514.87 251.41 -1022.78 370.31c-299.43,108.41 -628.94,188.23 -943.39,239.34 -750.06,121.9 -1339.51,157.5 -2099.07,89.8 -80.64,-7.19 -160.62,-21.47 -240.86,-28.13 -376.55,-31.3 -840.17,-137.56 -1202.92,-247.58 -140.37,-42.57 -279.62,-88.37 -417.83,-137.5 -140.13,-49.8 -278.53,-104.55 -414.78,-164.16 -37.09,-16.22 -73.76,-33.49 -110.29,-51.09zm3995.36 -12727.35c76.8,6.04 150.3,13.85 222.96,23.91 -88.6,-22.3 -177.47,-41.59 -267.14,-58.02l44.18 34.11zm-1672.49 -57.97c-172.32,22.37 -342.39,51.94 -505.28,88.19 -206.66,46 -410.64,103.33 -616.28,153.63 -58.77,14.37 -120.58,41 -180.25,58.07 -146.63,41.92 -289.83,96.45 -434.44,146.31l329.12 73.68c45.11,-17.63 90.34,-35 135.58,-52.25l11.13 -4.25 411.08 -132.94 7.02 -2.03c148.17,-42.76 300.27,-81.23 451.62,-110.8 78.32,-15.3 155.43,-33.27 234.41,-45.77 47.27,-65.35 96.95,-115.79 156.29,-171.84zm-3071.22 1437.47c-53.5,29.04 -106.45,59.13 -159.37,89.18 -117.78,66.87 -231.78,142.83 -345.68,216.35 -14.42,10.88 -28.34,21.02 -43.15,30.89 -10.99,7.77 -22.1,15.6 -33.33,23.53l131.75 5.95c19.73,-19.99 41.36,-38.94 64.99,-57.33 43.22,-36.54 96.91,-71.27 135.63,-108.1 73.01,-70.96 149.08,-107.74 215.54,-166.41l33.61 -34.06zm-719.01 953.44l-164.25 164.88c-79.75,80.04 -155.71,162.01 -238.83,238.54 -278.19,316.8 -513.04,637.77 -753.75,983.89 -188.98,299.41 -346,617.82 -478.05,946.13l-100.33 270.65c-11.47,33.99 -25.52,67.95 -34.58,101.05l-2.95 12.31 -72.68 240.27 225.81 4.57 30.26 419.12c7.25,100.32 -11.28,185.67 -23.83,282.86 -7.72,59.75 -18.26,119.46 -24.64,179.31 -32.02,300.49 -43.45,632.56 -27.36,944.36l494.36 448.67c-38.93,-85.46 -69.23,-170.01 -80.32,-243.43l-250.08 -1656.66 238.65 291.07c-4.96,-46.45 -9.47,-92.75 -14.3,-138.53 -50.41,-478.54 -11.98,-992.41 109.97,-1457.71 24.58,-93.8 56.03,-185.5 80.87,-279.07 30.19,-113.72 73.61,-223.49 130.24,-326.1 10.39,-19.44 21.69,-37.96 34.6,-56.59 20.89,-30.87 41.78,-55.75 68.43,-81.82l699.72 -689.41c7.09,-11.28 14.59,-22.89 22.45,-34.75l-98.42 42.09 229.03 -605.71zm-555.09 6156.4l162.31 239.68 313.46 374.7c70.9,76.86 113.87,142.97 195.85,215.72l15.33 13.61 131.19 139.12c54.4,57.69 122.47,108.32 179.96,164.6 19.22,18.82 37.25,37.66 55.01,57.34 8.93,7.02 18.18,13.87 27.09,20.63l9.44 7.18 198.95 167.8c46.45,34.2 91.53,65.69 135.69,102.71l257.67 182.23c26.77,17.03 50.4,35.02 76.41,54.82l139.54 88.08 4.01 2.65c93.76,61.96 193.49,121.74 295.64,177.68l458.78 8c134.59,2.35 277.99,66.19 406.7,105.2 272.42,82.55 561.76,151.36 842.12,200.48 540.1,94.66 1091.85,102.55 1637.64,62.06 13.77,-1.03 27.54,-2.2 41.3,-3.48l805.43 -407.42c83.56,-42.27 172.65,-66.8 260.86,-96.07l679.48 -277.23 587 -332.61 509.55 -390.81 -649.13 -0.02c-2.26,1.64 -4.54,3.27 -6.84,4.9l-172.13 123.67c-26.18,18.82 -54.29,36.02 -79.95,55.09l-14.09 10.49 -208.39 131.53 -2.17 1.14c-26.16,19.67 -50.58,38.08 -79.4,55.68l-5.5 3.35 -294.48 168.67 -11.47 5.74c-30.34,15.21 -63.99,27.85 -93.28,43.55 -215.67,115.54 -428.62,200.15 -653.77,292.7 -107.3,44.1 -201.83,87.22 -318.39,107.97l-946.33 168.48 144.23 -263.81c-619.93,166.28 -1279.38,199.03 -1909.55,101.66 -347.53,-53.7 -684.31,-138.38 -1015.29,-256.95l-223.42 -80.04 -13.39 -5.77c-34.94,-15.07 -65.6,-32.35 -96.14,-52.86 -41.83,-19.59 -83.79,-38.57 -124.95,-59.79l-5.6 -2.89 -116.26 -64.05 -8.7 -5.78c-89.18,-52.14 -156.45,-128.84 -196.43,-224.08l-74 -154.84c-153.62,-83.41 -302.68,-175.02 -445.96,-274.25 -48.99,-33.92 -89.92,-57.25 -136.7,-98.24 -84.57,-74.08 -179.29,-137.32 -264.84,-212.59 -14.6,-12.85 -27.96,-26.02 -41.62,-39.58l-141.7 -126.31 -11.35 -11.65c-68.83,-70.67 -143.12,-142.55 -209.41,-217.77zm4186.75 -4103.69l100.6 80.67c65.67,45.36 110.81,88.43 172.32,136.39l562.02 438.28c29.22,21.92 53.72,44.28 80.29,68.91 43.14,31.03 79.27,54.39 120.86,94.21 38.86,37.2 79.14,62.64 121.97,96.25 15.94,12.5 31.71,24.38 47.31,37.23l754.49 602.07c65.36,50.08 176.13,152.06 258.82,211.48 6.61,-4.77 13.29,-9.52 20.06,-14.2l701.47 -554.9c31,-26.83 62.12,-50.85 95.18,-74.9l424.32 -346.6c28.96,-23.66 73.14,-49.7 98.14,-72.77l14.92 -13.76 257.8 -198.81c27.98,-26.3 51.29,-49.23 83.29,-72.98 53.39,-39.63 103.92,-83.9 156.87,-124.43 20.8,-15.93 42.69,-30.18 63.53,-45.68 83.81,-74.29 166.19,-129.6 250.57,-198.81l3.71 -3.02 51.01 -40.97c-159.17,-0.98 -318.85,-6.3 -477.72,-1.69 -77.29,22.57 -134.28,45.82 -222.42,56.59 -297.96,36.41 -390.12,11 -654.26,-55.68 -56.78,-4.77 -130.4,1.28 -186.45,1.91 -587.68,6.53 -1175.43,-2.03 -1763.12,-1.86 -326.35,0.09 -652.82,-2.4 -979.2,-2.8 -52.13,-0.07 -104.27,-0.12 -156.41,-0.15zm4387.63 1622.12l-239.3 192.1 513.59 446.91c43.21,35.12 73.94,70.22 114.32,108.28 45.67,35.8 89.24,73.55 133.42,111.13 72.39,61.58 143.65,124.52 214.41,188.06l0.08 -757.68 -736.52 -288.81zm-26.91 2030.67l-142.42 -129.97 -10.9 -11.81c-115.89,-116.04 -259.2,-220.33 -380.66,-335.14l-658.39 -581.42 -269.84 213.51c-156.62,127.29 -389.01,211.69 -588.76,232.8 -283.68,30 -599.44,-85.65 -815.96,-270.37l-218.94 -167.88 -409.49 359.04 -6.12 5c-15.41,12.61 -33.45,25.58 -48.03,38.84 -1.13,1.08 -2.19,2.27 -3.25,3.41 -44.58,48.43 -83.99,75.5 -131.41,114.33 -47.15,42.76 -84.63,81.95 -138.99,120.73 -5.23,3.73 -10.5,7.36 -15.79,10.97l-144.11 130.47 -3.16 2.77c-18,15.71 -34.69,31.07 -52.59,46.09l-82.68 75.9c5.89,14.96 12.03,29.61 18.69,43.73 17.02,36.06 31.86,69.24 45.27,100.92l1761.33 0.02 130.01 -137.13 62.89 -72.55 7.4 -7.77c49.02,-51.51 84.2,-89.56 146.33,-130.36l732.81 -481.2 -17.95 828.93c81.64,0.41 163.28,1 244.92,1.15 329.91,0.59 659.86,-1.95 989.79,-3.03z"/>
   </g>
   <path class="fil1" d="M7170.16 10439.63l1604.46 -0.8c-17.15,26.42 -49.35,41.28 -77.04,53.88 -32.6,14.84 -56.43,30.34 -90.93,46.91 -224.4,107.8 -348.52,170.3 -632.57,193.41 -149.65,12.18 -378.89,-6.26 -494.2,-56.75 -65.54,-28.7 -115.23,-63.25 -170.66,-103.89 -27.84,-20.41 -51.01,-41 -75.39,-61.72 -27.96,-23.78 -49.2,-34.72 -63.67,-71.04zm1235.11 -2383.53l359.27 275.49c91.53,80.99 288.9,189.17 476.1,169.38 112.02,-11.85 263.86,-63.84 348.3,-133.59l315.27 -249.47c54.36,-57.31 64.98,-56.74 138.04,-103.11 16.44,-20.8 97.3,-86.39 128.46,-98.93 47.28,45.46 83.97,73.32 129.46,116.86l817.3 721.76c83.39,79.68 351.34,301.09 405.49,359.77l802.95 732.73c30.81,17 73.05,58.84 96.23,94.05 -8.15,25.14 -7.5,37.72 -33.61,57.46 -68.18,51.58 -148.3,37.77 -231.65,36.64 -584.32,-7.9 -1216.26,1.23 -1807.43,0.18 -118.3,-0.22 -656.37,-5.65 -728.27,4.98 13.75,-115.26 18.25,-203.44 19.98,-321.5l2.34 -108c-26.48,17.39 -43.36,39.63 -65.49,62.87l-62.59 72.2 -222.36 234.53c-6.03,18.4 -17.67,34.02 -36.28,53.84l-2297.55 -0.02c-68.92,-205.94 -37.21,-149.85 -138.81,-365.12 -27.98,-59.28 -45.36,-119.07 -72.73,-182.34 -22.57,-52.17 -66.44,-123.41 -81.63,-176.56l333.13 -305.89c22.31,-17.14 30.49,-26.56 51.58,-44.96l143.89 -130.27c27.52,-25.67 31.03,-25.11 54.61,-41.92 38.89,-27.74 64.65,-57.56 97.87,-87.66 37.72,-34.19 68.36,-48.8 101.06,-84.32 35.32,-38.37 56.59,-52.52 98.56,-86.85l691.29 -606.12 167.23 133.88zm-2155.39 1398.79c-34.39,-24.36 -124.81,-191.45 -183.43,-268.43 -43.73,-57.44 -103.87,-130.29 -159.62,-177.78 -17.32,-14.74 -37.96,-40.56 -53.99,-58.63 -41.36,-46.6 -72.16,-67.5 -116.83,-108.64 -264.17,-243.21 -368.68,-293.96 -693.13,-446.52 -378.51,-177.97 -715.46,-209.74 -1151.03,-228.02 65.01,-30.25 311.5,-62.44 403.78,-66.58 162.74,-7.31 304.02,2.48 458.58,20.32 152.94,17.65 408.78,96.37 545.68,161.22 87.55,41.47 83.56,32 156.88,86.38 106.05,78.66 139.71,68.18 267.95,200.19 19.79,20.37 34.52,33.24 56.99,55.54 22.48,22.31 33.76,41.46 57.26,63.53 97.48,91.53 240.92,306.07 280.63,424.98 35.07,105.03 110.6,235.06 130.27,342.45zm6378.31 -2079.91c25.11,-36.4 161.72,-110.57 212.67,-152.45 63.99,-52.62 167.25,-131.95 268.43,-49.14 -0.66,76.57 -116.15,134.28 -178.29,159.33 -79.74,32.15 -204.01,62.17 -302.82,42.26zm-131.24 -379.84l31 -26.3c86.71,-59.98 213.64,-127.36 277.23,-198.64 24.31,-27.28 30.03,-27.93 58.37,-46.9 84.67,-56.67 383.08,57.17 17.6,222.57 -108.08,48.92 -245.17,58.96 -384.19,49.26zm-48.33 -432.04c26.37,-15.33 43.4,-20.86 69.16,-36.41 57.73,-34.86 254.96,-217.19 288.32,-236.53 80.01,-46.37 276.8,11.71 120.79,155.46 -36.53,33.67 -79.44,59.26 -132.83,77.99 -78.4,27.48 -244.73,75.15 -345.44,39.49zm-8564.84 -735.66c64.29,96.08 65.96,243.75 288.23,532.84 102.71,133.58 195.17,235.39 322.76,344.9 16.64,14.29 24.97,23.02 41.91,38.27l143.88 114.75c35.48,31.34 59.62,42.37 98.59,70.5l426.43 249.14c-69.91,-0.98 -241.89,-61 -312.89,-89.61 -46.97,-18.91 -94.46,-40.02 -142.24,-60.83 -128.85,-56.13 -398.44,-228.78 -479.4,-328.28 -29.02,-35.65 -66.06,-81.07 -104.99,-101.38 -5.49,224.36 39.02,203.03 36.61,272.72 -123.36,-106.8 -211.07,-285.75 -258.31,-433.56 -51.04,-159.69 -36.77,-110.67 -60.5,-281.32 -7.04,-50.69 -15.23,-296.76 -0.08,-328.15zm6713.55 2056.49l-192.99 -166.57 96.89 -75.21c34.59,-28.88 43.75,-28 92.75,-76.7 21.33,-21.19 41.88,-31.42 69.84,-51.37l729.04 -585.24c99.19,-71.85 238.61,-196.4 355.47,-281.88 23.97,-17.53 35.93,-34.8 59.91,-52.89l321.87 -250.8c89.02,-85.58 46.66,-41.86 129.9,-104.17 11.3,-8.47 22.6,-16.17 32.02,-24.68 82.44,-74.42 76.92,-59.15 130.33,-103.54 25.74,-21.39 6.23,-16.67 36.38,-27.87 12.19,-18.66 72.54,-73.36 105.7,-74.56 -34.56,242.3 54.97,228.16 -124.67,395.55 -43.58,40.61 -99.37,85.26 -151.34,114.78 -36.61,20.79 -159.02,76.93 -177.03,94.63 22.46,21.96 153.87,66.59 194.66,77.08 90.25,23.18 153.16,25.32 253.34,27.78 6.35,64.28 -35.03,78.15 -70.05,103.92 -124.24,91.38 -73.65,47.71 -166.12,100.71 -89.29,51.19 -125.36,51.84 -188.27,84.78 20.18,21.02 53.81,37.1 84.75,50 88.58,36.9 171.4,77.68 274.22,81.56 19.97,0.75 56.11,-0.51 66.4,12.03 42.38,99.22 -39.2,123.58 -96.2,159.19l-179.03 89.74c-1.43,0.67 -4.16,1.82 -6,3.08l139.88 54.85c35.22,12.5 119.55,42.05 145.46,56.56l-0.22 2106.03c-25.71,-5 -140.78,-125.19 -174.09,-155.85 -23.97,-22.06 -40.26,-34.48 -64.56,-56.5l-182.56 -163.57c-177.55,-157.02 -378.54,-346.44 -552.68,-494.57 -40.38,-34.35 -79.38,-68.58 -123.26,-102.71 -42.89,-33.35 -76.98,-80.65 -120.36,-113.09l-624.82 -543.7c-23.57,-19.75 -33.58,-28.69 -60.11,-52.67 -21.32,-19.29 -43.39,-33.41 -64.46,-54.11zm-4642.19 -2248.33c-23.9,-87.15 44.31,-148.14 110.63,-168.72 51.79,-16.05 1948.33,-6.25 2049.03,-6.28 576.2,-0.16 1186.33,8.24 1758.13,1.88 76.95,-0.86 221.85,-8.71 287.68,7.87 203.81,51.36 229.28,82.63 502.23,49.27 91.61,-11.2 158.71,-56.1 236.67,-58.88 191.9,-6.88 397.99,1.57 591.9,0.68 194.39,-0.89 388.84,0.15 583.31,-0.52 87.77,-0.3 209.69,-12.5 282.9,13.41 70.38,24.91 115.72,93.86 74.83,188.83 -40.69,94.5 -84.92,88.76 -136.18,145.69l-639.76 513.78c-94.77,77.74 -116.86,78.97 -242.75,192.38 -20.49,18.46 -57.94,42.18 -83.54,61.78 -54.23,41.5 -107.19,87.61 -162.26,128.5 -24.58,18.24 -39.05,39.06 -72.26,64.56l-246 189.72c-43.71,40.31 -82.07,61.14 -119.05,90.91l-434.84 355.19c-32.54,23.37 -51.01,36.82 -81.31,63.72l-725.11 573.62c-99.76,60.79 -150.64,138.89 -306.48,130.27 -174.04,-9.62 -385.61,-234.69 -526.64,-336.74l-762.69 -608.61c-17.55,-14.88 -24,-18.89 -40.68,-31.97 -84.04,-65.94 -82.98,-55.82 -156.23,-125.96 -27.24,-26.08 -50.38,-37.67 -83.57,-61.88 -29.51,-21.54 -44.17,-42.95 -77.71,-67.15l-566.58 -441.83c-90.14,-69.53 -45.27,-52.05 -162.34,-128.33l-801.17 -642.48c-14.33,-17.26 -43.51,-68.47 -50.16,-92.7zm1958.61 -577.22c14.2,-44.41 48.22,-73.29 72.12,-106.61 42.9,-59.85 150.86,-141.38 215.36,-187.1 147.11,-104.3 362.65,-163.33 587.46,-153.39 256.01,11.34 499.55,165.95 680.15,300.32 26.61,19.8 166.45,118.13 184.63,143.56l-1739.72 3.23zm3082 -134.95c33.53,-22.72 78.17,-62.39 107.33,-77.59 -18.9,65.41 -29.37,149.63 -67.03,210.01 -17.65,28.31 -38.12,70.97 -74.62,94.72 -62.66,40.78 -328.19,59.36 -394.86,16.41 -6.68,-37.1 81.63,-117.46 110.08,-135.18 21.7,28.61 15.58,48.52 21.26,87.78 20.47,-21.96 30.87,-30.69 47.93,-59.99l104.76 11.35c29.78,41.79 6.63,68.81 49.3,88.07l6.11 -13.23c20.62,-54.52 -7.76,29.56 4.67,-13.23l6.43 -65.12c-3.79,-72.25 -15.14,-25.57 -31.16,-69.87l109.82 -74.15zm-705.8 105c27.14,-42.89 137.42,-113.14 190.78,-149.71 125.6,-86.08 128.9,-122.85 172.23,-157.22 8.41,114.67 -54.79,271.29 -105.21,347.45 -47.99,72.5 -73.62,89.04 -135.55,64.95 -89.78,-34.94 -81.8,-24.2 -122.25,-105.46zm-4232.92 1147.72l732.73 581c24.68,19.28 32.36,26.33 57.7,47.33 13.89,11.5 17.81,12.09 31.97,24.61l515.1 412.3c37.7,28.19 88.29,63.76 121.32,96.66 36.47,36.32 75.36,62.23 122.16,95.18l362.45 289.65 -14.82 12.76c-1.24,1.04 -3.4,2.7 -4.75,3.83 -10.27,8.58 -7.2,5.65 -17.05,14.73l-120.11 93.41c-14.74,20.03 -21.88,19.68 -41.43,35.22 -17.84,14.16 -22.77,23.12 -40.47,39.7l-586.05 510.05c-30.32,24.37 -54.31,49.92 -85.39,75.74 -109.22,90.78 -487.38,439.53 -577.64,507.22 -40.95,-37.43 -106.91,-157.74 -145.25,-212.39 -78.66,-112.09 -110.35,-134.27 -156.51,-196.79 -46.69,-63.23 -303.25,-313.01 -374.55,-341.41 1.05,-111.17 18.94,-383.31 -7.02,-471.6 73.67,26.76 93.81,61.95 154.09,93.1 135.63,70.06 218.8,165.47 287.78,299.42 6.6,12.81 11.48,24.39 17.28,38.04l19.29 39.67c26.04,-71.24 61.49,-142.64 65.45,-230.57 4.53,-100.6 -31.12,-154.32 -48.55,-236.78 26.45,-15.43 33,-16.89 59.02,-3.28 62.48,32.69 103.97,68.52 153.03,114.22 103.27,96.22 123.33,180.4 157.67,197.19 25.04,-110.8 34.34,-209.47 0.12,-324.78 -61.85,-208.41 -124.68,-187.15 -67.17,-258.32 62.89,16.63 110.42,67.3 161.66,112.13 45.24,39.56 81.6,101.47 107.55,152.07 35.01,-95.55 10.95,-319.26 -43.94,-394.34 -14.53,-19.9 -18.96,-16.03 -36.71,-43.62 -14.05,-21.83 -13.77,-18.7 -32.21,-40.14 -119.28,-138.63 -99.52,-277 -225.04,-398.84 -87.33,-84.79 -230.34,-191.37 -385.25,-245.35 -124.59,-43.42 -355.6,-173.72 -456.92,-255.56 -22.08,-17.84 -25.64,-18.68 -46.76,-33.99 -37.36,-27.11 -50.45,-49.14 -78.38,-74.47l-151.76 -162.07c-203.6,-272.83 -283.43,-644.35 -212.78,-987.04 15.42,-74.8 53.08,-156.07 82.53,-227.64 29.28,-71.12 57.66,-153.34 112.08,-201.8 -32.28,133.94 -83.47,319.02 -79.53,465.56 4.41,163.3 11.72,325.21 67.23,467.53 24.97,64.03 53.06,131.37 78.58,193.36 44.1,107.14 269.38,422.06 355.63,449.55l-2.55 -294.74 216.17 174.31zm3936.62 -1406.91c62.48,17.19 146.4,-24.96 204.43,-22.09 2.51,58.96 -6.65,107.93 -11.17,163.57 -8.16,100.34 -41.15,31.95 -161.79,-91.32l-199.96 -242.09c-30.24,-42.45 -150.78,-248 -160.39,-291.49l150.57 8.53 -14.27 235.35 201.77 -13.34c1.29,82.93 -33.45,173.92 -9.21,252.89zm1345.67 -556.04c-6.73,-66.95 -5.83,-131.07 6.55,-191.51 111.7,-2.64 261.47,41.56 533.95,28.35 -30.76,141.01 -198.52,302.89 -314.79,376.72 6.08,-32.07 16.97,-60.76 23.44,-101.08 22.29,-138.92 128.15,-58.79 159.51,-231.24 -35.93,24.66 -55.09,95.1 -116.26,108.53l-3.04 -85.93c-33.94,35.12 -36.52,53.49 -123.45,87.07l-8.8 -102.94c-0.05,0.08 -116.13,116.65 -157.1,112.03zm-393.46 184.37c19.65,-135.1 77.42,-140 62.53,-473.17 22.53,1.27 251.4,74.62 278.61,86.82 -6.75,25.32 -19.31,44.66 -29.97,67.08l-67.71 108.22c-10.52,15.66 -6,11.03 -20.85,27.34l-20.35 19.97c-51.03,50.74 -120.63,134.3 -202.26,163.75zm-825.69 -653.52c157.72,-38.84 252.59,-66.01 424.53,-14.29 77.56,23.32 281.65,102.28 347.5,139.51 -12.15,29.38 -15.53,27.07 -36.02,44.86l-120.59 95.22c-25.28,-33.54 -55.46,-175.3 -88.93,-233.28 -19.67,24.07 -167.18,120.57 -190.41,128.7 -42.53,-43.88 -54.94,-101.51 -74.41,-145.63l-14.78 -31.91c-0.67,-1.2 -2.39,-3.72 -2.95,-4.67 -0.55,-0.93 -2.75,-2.01 -3.17,-4.46 -0.4,-2.47 -1.99,-3.08 -3.27,-4.4 -72.69,56.91 -38.91,56.71 -164.31,130.4 -29.02,-19.46 -54.52,-60.11 -73.18,-100.06zm1676.56 -300.58c32.25,-52.9 139.83,-68.04 220.23,-70.82 80.79,-2.8 213.32,3.65 206.14,86.01 -9.94,114.02 -343.53,65.72 -426.37,-15.19zm-4160.86 -1262.35c89.56,-8.18 140.86,-25.31 247.85,-13.82 -15.95,15.42 -56.9,33.59 -77.49,50 -131.07,104.44 -182.26,269.94 -132.48,427.8 31.35,99.43 62.62,143.44 71.35,170.59 -42.35,-24.16 -79.44,-80.24 -109.74,-118.75 -58.26,-74.04 -118.85,-222.5 -128.82,-318.16 -4.85,-46.53 -2.54,-109.16 8.35,-156.16l20.15 -40.49c-3.76,-60.14 76.81,-180.11 108.53,-216.03 110.21,-124.87 274.22,-188.47 455.78,-198.85 102.04,-5.82 213.84,31.35 292.96,25.22 -166.3,-128.4 -442.64,-209.85 -663.06,-138.74 -162.31,52.35 -122.99,57.27 -174.81,76.56 -17.84,6.65 -6.58,3.63 -24.36,6.23 -29.96,40.27 -132.25,100.06 -206.36,229.47 -67.33,117.6 2.82,92.94 -269.86,136.03 -74.88,11.83 -142.81,28.17 -218.27,42.91 -131.84,25.77 -286.78,65.07 -412.15,101.27l-392.78 127.02c-130.18,49.67 -251.37,96.91 -365.28,146.47l-352.7 166.53c-117.25,57.56 -151.31,70.1 -252.5,136.39l-200.74 114.97c-42.16,22.07 -31.35,23.67 -56.9,39.36l-214.3 141.33c-19.44,14.05 -21.87,10.67 -41.12,23.92l-36.51 27.87c-38.8,27.69 -108.47,84.12 -150.54,101.26 -67.24,68.15 -149.4,102.21 -221.39,172.17 -46.52,45.21 -113.12,89.39 -160.2,130.32 -21.68,18.84 -36.6,23.76 -45.87,48.29l174.67 -74.71c224.65,-90.88 547.31,-169.4 795.52,-198.6 148.12,-17.43 607.5,-62.24 706.61,-22.34 -17.81,17.08 -246.7,80.76 -292.18,96.73 -49.86,17.5 -99.48,38.55 -141.97,53.33 -79.55,27.67 -126.83,56.15 -200.52,83.19l-131.47 63.78c-105.48,46.69 -200.41,112.09 -298.84,170.08 -117.11,69.01 -440.06,311.38 -532.61,419.38 -14.44,16.86 -10.95,11.8 -23.51,24.69 -13.78,14.16 -7.94,9.6 -24.71,23.61 -115.64,96.59 -314.06,342.08 -385.07,458.48 -17.93,29.38 -22.41,36.48 -39.34,56.79 -36.61,43.92 -219.52,365.6 -243.08,413.5 -163.02,331.41 -189.64,486.27 -294.15,829.8 -54.52,179.19 -51.13,530.47 -89.52,654.25 -41.83,-49.47 -92.28,-467.49 -106.69,-564.84 -30.03,-202.68 -12.1,-424.11 12.65,-627.25 -8.61,8.48 -4.72,3.99 -13.14,16.12 -5.39,7.78 -4.45,6.91 -9.59,16.21 -38.5,69.77 -67.85,144.18 -88.53,222.09 -25.37,95.6 -57.19,188.74 -80.5,277.66 -106.83,407.64 -142.12,868.51 -97.44,1292.55 14.16,134.49 29.57,330.57 71.01,460.38 36.37,113.87 68.75,283.91 114.67,417.81 59.16,172.48 133.49,343.21 211.73,506.64 107.4,224.31 261.64,472.62 409.03,671.57 56.34,76.03 172.17,237.01 236.55,301.59 18.29,18.35 73.41,74 79.98,93.11 -53.39,-6.75 -362.22,-211.24 -434.72,-281.25 -58.75,-56.74 -76.17,-57.86 -106.95,-86.53 -72.22,-67.3 -135.12,-115.01 -198.74,-187.58 -31.98,-36.47 -91.49,-87.05 -127.82,-129.61l-231.64 -282.52c14.36,95.11 160.73,340.88 214.18,425.58 120.07,190.28 203.4,290.84 335.56,458.34 50.31,63.76 167.94,180.4 230.14,244.26l127.93 114.03c16.18,13.68 25.11,25.06 41.01,39.05 85.03,74.81 185.35,142.96 264.11,211.96 30.29,26.54 55.84,38.6 95.41,66.02 322.76,223.53 682.52,407 1058.77,537.78 38.68,13.45 460.95,141.37 486.95,158.74 -163.33,-0.24 -303.8,2.25 -463.63,-13.99 -135.72,-13.78 -276.25,-36.34 -404.8,-65.13 10.85,22.71 -0.73,9.18 24.59,26.02l93.91 51.74c42.36,21.85 87.65,41.71 131.9,62.74 30.44,14.47 34.87,25.28 60.46,36.32l209.7 75.12c303.63,108.87 606.65,185.36 930.23,235.35 788.03,121.78 1611.52,15.57 2310.83,-302.59 49.69,-22.61 77.14,-43.7 127.94,-66.44 207.57,-92.94 401.98,-239.65 574.25,-379.59l202.29 -169.61c-0.8,13.52 -2.24,27.34 -6.02,43.88 -9.4,41.12 0.09,10.66 -14.89,32.4 -38.89,56.43 -61.63,134.03 -93.67,192.77 -69.29,127.02 -147.09,242.95 -242.78,351 -31.45,35.51 -60.53,64.36 -92.09,100.9 -44.57,51.61 -184.7,154.83 -205.39,192.68 72.1,-12.84 159.86,-54.16 223.94,-80.5 228.21,-93.8 390.87,-154.57 611.33,-272.68 37.15,-19.91 67.55,-30.84 104.46,-49.33l277.77 -159.09c35.41,-21.62 52.56,-42.52 90.78,-62.7l178.45 -112.64c26.8,-19.92 57.27,-38.89 86,-59.52l173.84 -124.89c86.37,-60.51 68.17,-91.18 201.51,-90.26l1199.52 0.05c197.68,-0.28 406.66,6.25 602.77,-0.76 -12.25,29.37 2.06,3.83 -18.36,25.42 -19.88,21 -93.95,114.55 -107.02,117.34 -12.89,32.55 -34.96,62.7 -57.13,87.44 -25.75,28.74 -50.09,41.21 -71.55,73.01l-65.9 79.27c-105.38,92.04 -209.25,222.74 -361.84,354.21l-653.24 501.02 -640.59 362.98 -720.56 293.98c-66.41,22.45 -163.92,50.06 -213.24,75.01 487.94,62.8 913.31,-79.9 1043.24,-72.37 -1.89,1.5 -5.09,0.8 -6.23,3.75 -1.14,2.92 -4.67,2.8 -6.23,3.58l-179.27 76.11c-39.73,12.01 -31.21,15.25 -66.6,30 -73.18,30.5 -201.53,66.02 -275.08,97.92 -76.56,33.2 -189.13,59.58 -276.26,89.81 -189.12,65.65 -741.67,179.34 -925.45,195.47 -104.84,9.21 -217.01,26.7 -328.79,34.98 -589.91,43.77 -1174.68,33.34 -1751.31,-67.71 -281.89,-49.41 -618.92,-129.34 -896.23,-213.38 -68.56,-20.78 -244.04,-84.81 -281.05,-85.46l347.2 257.53c29.5,19.57 30.51,16.21 51.67,39.24 53.95,22.14 149.8,79.79 208.69,113.49 60.98,34.9 141.45,73.03 215.2,104.56 -135.11,-9.98 -625.33,-190.11 -753.85,-234.03 -35.34,-12.09 -64.59,-23.81 -92.65,-37.08 -26.6,-12.59 -56.58,-20.32 -86.39,-35.33 -45.95,-23.15 -116.9,-57.49 -164.84,-78.28 -237.58,-103.05 -507.8,-248.22 -725.52,-392.09l-148.87 -93.97c-26.26,-18.08 -43.18,-35.79 -70.37,-50.78l-288.34 -203.92c-45.63,-40.83 -90.28,-69.42 -137.56,-104.55l-201.13 -169.65c-99.32,-75.39 -58.31,-49.61 -125.87,-115.75 -52.38,-51.28 -132.07,-113.58 -192.85,-177.74l-117.13 -124.21c-154.2,-136.85 -149.23,-164.14 -235.42,-255.15l-336.48 -402.21 -394.9 -583.19c-38.94,-74.27 -242.46,-438.45 -261.79,-455.99l-4.09 62.53c16.9,24.99 11.13,77.4 12.87,110.05l38.71 317.09c40.18,212.88 64.85,387.5 111.49,610.47 15,71.78 34.7,123.71 52.21,194.89 32.92,133.76 60.75,257.1 101.77,381.99l67.66 172.22c12.72,32.01 19.21,61.32 27.6,91.08 12.93,45.91 19.12,48.19 38.74,81.63 33.08,56.38 38.53,118.47 66.34,172.85 27.61,54 52.1,115.44 77.83,169.47 54.06,113.55 141.7,290.57 208.63,399.19l88.87 150.48c16.47,23.12 42,47.37 42.47,76.23l-303.91 -338.19c-42.42,-55.65 -80.01,-90.63 -100.13,-124.62 -39.66,-67 -80.65,-103.94 -137.46,-183.49 -15.93,-22.3 -30.92,-46.15 -45.3,-67.18 -35.22,-51.5 -49.37,-57.22 -89.5,-126.66l-126.11 -202.52c-53.55,-75.94 -161.36,-297.16 -212.67,-387.15l-308.65 -736.36c-23.95,-105.61 -72.15,-220.68 -103.82,-327.66 -32.53,-109.89 -142.68,-607.69 -151.12,-712.4 -10.43,-129.61 -32.37,-262.8 -44.46,-392.21 -35.25,-377.09 -26.79,-850.01 13.89,-1231.69 6.86,-64.37 17.87,-127.84 25.84,-189.5 6.81,-52.74 24.63,-143.71 21.24,-190.63 -2.15,19.06 -108.33,95.82 -173.14,194.03 -18.49,28.01 -30.58,59.94 -62.01,77.08 -13.14,38.74 -84.79,127.02 -113.12,173.21l-106.31 181.4c-16.37,-35.16 65.24,-602.16 84.51,-675.98 26.09,-99.94 46.21,-216.99 73.48,-314.76 15.58,-55.83 19.85,-100.53 37.51,-154.1l90.4 -298.86c11.63,-48.26 32.23,-93.68 47.29,-144.49l105.56 -284.75c144.33,-359.72 316.23,-707.32 523.89,-1034.95 282.49,-406.52 488.62,-690.5 808.99,-1052.92 85.24,-76.28 160.5,-158.93 241.24,-239.97 -72.75,-3.28 -395.26,106.56 -478.24,138.87l-424.08 182.59c14.46,-36.91 83.21,-115.44 121.89,-149.71l344.63 -339.29c214.51,-224.14 573.17,-482.98 838.11,-670.19 19.19,-12.12 20.72,-15.37 42.12,-30.31 120.78,-77.78 255.17,-166.62 378.4,-236.58 88.37,-50.18 175.58,-99.61 266.79,-145.94 65.52,-33.28 280.65,-125.71 330,-156.32 69.39,-43.06 156.94,-67.94 227.7,-105.92 -102.38,-22.92 -396.18,14.48 -506.14,25.89 -86.72,8.99 -159.36,15.82 -241.23,30.33 -47.91,8.48 -67.28,19.94 -102.25,28.38l-97.11 9.92c-1.42,-0.18 -5.14,0.6 -6.15,-1.61 -1,-2.21 -4.16,-0.94 -6.07,-1.84 86.25,-28.16 179.74,-92.83 255.7,-133.84 60.02,-32.41 174.51,-73.65 215.49,-108.61 52.91,-45.16 300.46,-159.55 383.36,-199.88 29.47,-14.33 59.18,-23.48 91.44,-38.57 24.98,-11.68 55.5,-30.82 84.66,-45.07 143.5,-70.13 308.39,-137.55 458.85,-190.5l36.7 -13.04c1.65,-0.8 3.73,-1.91 5.3,-2.77 1.51,-0.82 3.43,-2.15 4.87,-3.01l42.52 -21.11c201.06,-61.96 380.52,-137.06 585.22,-195.6 65.63,-18.76 131.48,-46.5 197.46,-62.63 206.01,-50.39 411.16,-108.07 625.63,-155.81 440.64,-98.09 964,-154.01 1426.24,-149.33 717.05,7.27 1310.06,132.52 1947.7,405.22 55.83,23.88 112.29,71.48 172.49,82.59l-44.2 -233.62c32.74,8.49 55.4,30.28 87.86,46 27.84,13.48 46.46,27.58 76.75,44.56 70.97,39.81 227.49,149.36 290.56,202.26l376.93 355.62c80.12,86.22 145.9,171.64 217.28,272.59 42.82,60.55 76.17,136.77 116.51,195.79 85.45,124.99 152.08,341.18 229.52,433.98 21.89,26.24 34.72,46.06 58.8,69.77l194.25 168.44c43.85,37.31 234.82,199.05 261.42,233.42 -110.17,9.53 -213.8,42.01 -289.75,83.72 -69.25,38.02 -104.22,-10.34 -174.84,-51.53 -26.57,-15.5 -30.58,-14.85 -59.46,-29.03 -37.76,-18.53 -73.8,-45.9 -116.34,-69.84l-175.12 -108.12c-164.33,-137.12 -193.1,-149.26 -303.5,-331.73 -24.34,-40.22 -48.78,-73.69 -74.39,-109.48 -88.86,-124.16 -195.08,-233.45 -322.16,-321.89 -18.28,-12.72 -34.74,-21.38 -56.31,-32.99 -18.11,-9.77 -39.11,-20.96 -57.18,-31.63 -28.88,-17.05 -28.54,-27.74 -52.86,-30.01 37.82,101.9 183.12,285.5 183.02,395.8 -32.24,-34.1 -136.49,-104.95 -188.81,-135.82 -35.88,-21.18 -67.5,-47.49 -103.42,-66.34 -18.32,-9.62 -34.73,-14.22 -55.37,-25.82 -91.49,-51.42 -183.77,-92.6 -281.25,-132.51 -80.51,-32.97 -159.01,-63.68 -243.86,-89.48 -459.92,-139.86 -648.45,-167.89 -1156.93,-176.84 28.58,44.98 118.48,88.3 129.46,120.89 -22.36,-15.96 -174.83,-60.26 -220.36,-70.79 -234.08,-54.14 -542.73,-34.01 -689.29,154.04zm-5241.94 555.71c107.89,-13.82 204.07,-41.98 309.91,-64.18 114.97,-24.13 206.67,-31.99 327.23,-40.83 -166.76,157.4 -514.46,384.64 -732,576.3 -234.14,225.05 -431.65,416.6 -645.41,673.47 -37.5,45.07 -79.29,101.47 -116.15,148.57 -145.56,185.97 -308.42,431.2 -421.22,629.02 -26.83,47.04 -76.13,121.7 -89.09,170.86l161.95 -101.12c74.24,-52.26 335.26,-211.24 420.75,-242.95 37.1,-13.77 61.95,-24.3 93.18,-37.75 -32.68,18.1 -49.37,62.53 -81.85,103.82l-120.56 176.38c-13.83,20.34 -28.98,41.17 -42.35,61.82l-147.41 244.78c-147.21,239.85 -362.59,695.28 -444.36,944.97 -67.49,206.04 -131.45,391.04 -193.59,603.04 -61.34,209.27 -92.28,435.35 -136.52,648.9 -44.71,215.83 -65.73,489.94 -72.71,714.55 -8.2,263.61 1.22,499.76 20.9,756.65 15.65,204.24 38.51,412.59 71.93,615.07 4.23,25.63 4.48,63.38 24.56,79.13 13.49,-25.64 14.14,-84.73 24.76,-118.97 34.12,-110.02 53.89,-233.04 97.33,-339.8 25.88,-63.61 53.16,-152.53 75.65,-218.59 12.5,-36.7 25.19,-68.09 37.78,-106.43 6.91,-21.08 10.81,-36.72 17.24,-54.01l28.14 -56.52c3.2,170.72 -6.57,337.56 3.77,507.42 16.73,274.82 62,639.42 133.07,900.51 18.86,69.27 35.46,141.64 51.84,210.03 9.45,39.44 24.11,60.72 31.5,95.82 45.91,217.86 151.07,473.26 238.96,677.73 13.11,30.5 27.24,57.97 39.89,88.18l314.46 605.25c34.69,59.58 69.22,104.34 102.32,161.46 29.93,51.67 67.54,106.08 102.27,154.18 36.62,50.71 72.87,100.31 110.4,154.12 105.9,151.83 224.97,292.5 348.84,430.51l459.65 465.23c14.19,11.49 23.93,17.07 36.77,28.12 15.8,13.61 19.16,19.01 33.51,30.54l144.65 121.51c42.9,41.15 99.28,78.19 147.18,118.85l458.18 333.21c81.95,50.35 160.05,106.74 247.15,149.02 32.22,15.65 58.3,37.3 90.5,49.56l-202.6 -312.41c-19.04,-31.17 -46.32,-77.07 -63.57,-112.11 -56.57,-114.96 -123.01,-224.98 -174.4,-344.89 -16.49,-38.45 -29.78,-82.46 -47.89,-123.08 19.6,3.89 126.88,87.33 148.73,104.65 51.24,40.65 97.16,78.58 149.68,116.5 50.35,36.38 95.68,78.24 151.25,114.75l656.95 402.54c55.81,32.46 116.42,66.14 176.08,91.28 119.69,50.4 239.12,115.21 358.89,167.61 124.52,54.47 252.77,105.36 384.42,152.14 130.17,46.27 260.11,89.13 397.24,130.72 288.12,87.38 802.34,203.97 1107.32,229.31 81.32,6.76 158.84,20.82 243.6,28.37 759.89,67.73 1241.7,35.02 1984.2,-85.65 282,-45.84 600.07,-123.52 860.42,-217.78 -50.2,-24.51 -959.88,-129.9 -1041.25,-179.35 30.97,-17.16 453.48,-90.87 533.06,-109.54 239.98,-56.29 501.38,-132.48 735.97,-223.21 154.63,-59.81 304.05,-115.31 454.35,-186.65l427 -213.03c154.93,-67.27 544.51,-321.93 688.99,-427.19l274.99 -209.16c31.3,-25.92 56.67,-45.76 83.49,-69.67 26.16,-23.31 60.61,-56.23 86.49,-74.57 74.53,-52.82 269.78,-245.81 331.62,-304.85 35.65,-34.03 52.77,-52.57 78.49,-82.39l153.99 -159.62c251.46,-289.53 403.04,-490.79 612.77,-815.44 273.29,-423.02 435.94,-807.1 600.85,-1291.96 27.11,-79.73 45.48,-162.46 71.62,-246.28 30.82,-98.86 117.71,-418.08 108.32,-518.32 -19.98,23.62 -44.17,50.71 -63.17,79.93 -39.56,60.81 -92.09,120.1 -137.29,175.76 -24.03,29.6 -47.94,54.51 -72.78,87.81 -66.36,88.91 -153.71,157.14 -227.43,239.05 -25.87,28.73 -48.5,50.88 -75.5,80.55 4.78,-30.47 25.1,-80.92 35.22,-118.91 11.82,-44.41 17.38,-86.89 28.5,-129.67 138.68,-533.62 182.48,-1171.41 77.25,-1715.53l-64.91 -254.56c-27.28,69.24 -34.19,145.24 -56.28,216.03 -57.36,183.77 -120.65,351.91 -212.5,521.59 -20.78,38.4 -32.88,72.44 -50.91,100.98l-482.66 701.83c-16.52,-25.66 -25.04,-1421.25 -1.97,-1474.4 104.8,-12.63 185.65,-52.06 254.32,-95.53 205.36,-130.01 349.71,-405.83 368.63,-659.82 23.4,-314.12 -62.38,-678.41 -300.6,-888.88l-98.32 -78.98c-35.63,-29.87 -59.87,-36.64 -105.51,-64.5 -162.63,-99.27 -109.53,-7.41 -142.59,-201.48 -8.6,-50.48 -25.43,-85.83 -46.65,-129.53 -196.69,-405.35 -640.06,-351.28 -1043.48,-351.43 -117.88,-0.03 -641.8,11.78 -712.96,-3.91 2.74,-19.45 23.29,-60.67 31.48,-85.93 34.01,-104.85 31.55,-223.67 7.25,-329.16 -23.09,15.07 -155.13,132.89 -231.74,184.99l-88.12 58.31c-134.07,-71.58 -105.35,-193.83 -136.95,-335.14 -32,-2.44 -73.63,37.51 -93.09,51.35 -27.93,-28.7 -45.16,-109.15 -47.55,-159.53 -6.91,-145.49 45.23,-186.02 145.32,-268.25 36.6,-30.08 84.44,-65.37 130.43,-83.35 12.26,118.99 -27.96,242.06 -53.24,356.1 -9.37,42.24 -25.39,74.01 -27.74,116.18 149.79,-23.52 271.74,-70.38 373.48,-164.37 32.27,-29.8 67.53,-65.51 84.93,-92.65 15.15,17.41 8.09,29.02 18.75,51.23 21.62,-1.97 68.98,-10.03 92.15,-15.81 10.24,-2.57 10.51,-3.17 18.02,-6l80.39 -9.98c-4.62,87.63 -42.04,221.1 -70.17,285.17 173.15,-13.66 309.25,-103.23 408.89,-203.78 152.35,-153.76 176.58,-259.46 208.11,-280.97l34.42 -22.19c17.17,-13.48 17.37,-13.34 38.18,-26.43 46.12,-29.03 89.37,-60.65 132.81,-109.17 64.02,-71.55 155.53,-205.84 197.95,-291.18 60.28,-121.31 89.51,-247.53 -2.75,-357.64 -178.75,-213.31 -610.77,-433.38 -760.87,-704.5 -69.67,-125.85 -125.82,-272.3 -198.63,-401.26 -13.55,-24.01 -26.75,-49.91 -42.13,-77.78 -45.07,-81.67 -136.89,-221.74 -196.35,-292.4l-108.28 -132.47c-147.07,-167 -314.03,-338.43 -502,-472.66 -48.44,-34.6 -99.25,-65.19 -142.81,-99.33 -42.34,-33.19 -106.29,-63.71 -154.88,-95.84l-322.33 -171.49c-55.59,-21.02 -115.18,-46.29 -172.12,-71.71l-135.74 -49.65c-16.59,-6.1 -24.16,-13.86 -44.69,-21.49 8.91,42.86 27.37,64.65 38.89,120.27 10.74,51.82 30.63,74.21 36.49,126.61 -66.29,-4.99 -231.96,-99.95 -330.03,-120.45 -52.34,-10.94 -69.21,-22.11 -120.36,-34.66 -80.58,-19.77 -162.52,-38.03 -240.59,-60.05 -197.16,-55.6 -608.03,-96.66 -814.32,-109.04 -552.29,-33.18 -1145.94,30.67 -1676.01,141 -289.03,60.16 -454.84,105.8 -732.18,180.32 -85.32,22.93 -151.38,49.41 -235.25,72.49 -35.31,9.71 -77.41,26.49 -109.15,38.34 -34.96,13.06 -80.59,24.03 -117.87,37.05 -75.04,26.23 -147.71,52.36 -220.58,79.65l-269.62 103.31c-20.9,8.25 -33.49,14.43 -57.52,24.57 -38.71,16.32 -74.06,27.21 -110.88,43.5 -207.49,91.83 -412.56,187.32 -614.96,292.55l-296.09 157.72c-34.67,20.1 -59.26,30.25 -98.19,54.87 -16.66,10.54 -29.85,16.55 -47.04,26.66l-600.13 385.15c-120.96,78.81 -242.45,159.45 -357.66,248.5 -52.87,40.87 -235.28,163.48 -259.78,205.91z"/>
   <path class="fil0" d="M1063.45 7551.58c-6.42,-11.85 7.5,-12.86 -14.63,-7.74 -3.09,38.97 -29.42,49.22 -75.14,93.17 -25.59,24.6 -6.38,-7.87 -22.85,28.55 -35.98,-70.95 163.22,-477.89 203.56,-549.38l195.38 -331.73c34.88,-55.29 62.91,-114.77 101.07,-164.31 44.95,-58.35 183.6,-268.96 231.18,-310.94 6.21,11.56 5.13,-16.72 6.46,26.2 0.14,4.17 -2.41,20.78 -3.64,26.93 -4.77,23.66 -8.68,34.96 -12.89,59.1l-56.84 348.5c-9.1,81.24 -23.75,157.8 -30.41,237.98 -57.78,694.59 -42.95,990.45 69.58,1682.85 35.2,216.57 109.59,425.92 165,645.63 27.36,108.45 40.15,100.79 37.62,234.05l9.18 455.99c0.02,0.48 -0.17,2.5 -0.15,2.89 0.31,6.29 -4.91,7.48 8.4,2.85l4.26 -256.7c-0.08,-49.01 -4.31,-235.17 0.47,-243.18 26.23,25.82 29.02,48.9 45.24,86.85 -2.78,-31.78 -6.74,-24.86 1.28,-56.01l4.09 -62.53c19.32,17.54 222.85,381.72 261.79,455.99l394.9 583.19 336.48 402.21c86.19,91.01 81.22,118.3 235.42,255.15l117.13 124.21c60.79,64.15 140.47,126.46 192.85,177.74 67.56,66.14 26.55,40.37 125.87,115.75l201.13 169.65c47.28,35.13 91.93,63.72 137.56,104.55l288.34 203.92c27.19,14.99 44.11,32.7 70.37,50.78l148.87 93.97c217.72,143.87 487.94,289.04 725.52,392.09 47.94,20.79 118.89,55.13 164.84,78.28 29.81,15.01 59.79,22.74 86.39,35.33 28.06,13.27 57.31,24.99 92.65,37.08 128.52,43.92 618.74,224.05 753.85,234.03 -73.75,-31.53 -154.22,-69.66 -215.2,-104.56 -58.88,-33.71 -154.73,-91.36 -208.69,-113.49l-25.29 32.92c-8.77,-5.54 -10.37,-7.36 -19.92,-15.28 -24.59,-20.37 -0.6,9.77 -71.49,-32.96 -70.32,-42.38 -18.69,-22.65 -106.09,-54.99 -58.53,-21.64 -64.88,-13.61 -78.73,-43.81 -28.75,-62.68 -41.01,-13.64 -181.57,-125.56 -112.78,-89.79 -148.03,-103.06 -294.86,-229.13l-139.82 -126.19c-91.67,-71.81 -127.93,-118.93 -189.03,-197.01 -22.18,-28.35 -48.77,-47.49 -60.55,-74.38 65,17.73 342.55,145.54 476.36,187.38 140.46,43.92 401.57,126.96 520.69,154.97 134.93,31.71 233.55,52.22 381.47,73.24 36.34,5.16 55.2,5.1 80.56,11.66 401.53,103.71 1208.41,55.8 1580,1.35 426.23,-62.46 1042.58,-211.9 1424.75,-381.71 140.22,-62.31 331.9,-131.8 464.23,-208.55l290.82 -153.65c42.5,-22.97 92.38,-60.27 139.16,-87.74 53.23,-31.26 92.12,-53.28 142.88,-83.34 44.31,-26.22 100.26,-72.57 145.69,-82.41l-338.1 477.29c212.37,-42.34 744.3,-303.26 911.79,-398.99 46.46,-26.56 101.64,-46.35 145.63,-73.29 23.2,-14.2 45.11,-30.35 70.42,-42.54 99.92,-48.14 365.56,-227.99 462.37,-305 61.4,-48.84 81.8,-54.86 128.81,-88.76l120.11 -97.89c18.68,-17.03 40.5,-31.22 57.36,-47.42 79.45,-76.33 -12.64,-1.92 113.65,-103.85 36.53,-29.48 149.47,-148.02 181.76,-153.89 -8.79,14.05 -7.65,-9.4 -7.32,29.08 0.35,40.25 -4.99,15.26 8.76,24.04 13.07,-2.79 87.14,-96.35 107.02,-117.34 20.42,-21.59 6.11,3.95 18.36,-25.42 -196.11,7.01 -405.09,0.48 -602.77,0.76l-1199.52 -0.05c-133.34,-0.92 -115.14,29.75 -201.51,90.26l-173.84 124.89c-28.73,20.63 -59.2,39.59 -86,59.52l-178.45 112.64c-38.22,20.18 -55.37,41.08 -90.78,62.7l-277.77 159.09c-36.91,18.49 -67.31,29.42 -104.46,49.33 -220.46,118.1 -383.13,178.88 -611.33,272.68 -64.08,26.34 -151.84,67.66 -223.94,80.5 20.7,-37.85 160.82,-141.07 205.39,-192.68 31.56,-36.54 60.65,-65.38 92.09,-100.9 95.69,-108.05 173.49,-223.98 242.78,-351 32.05,-58.75 54.78,-136.34 93.67,-192.77 14.98,-21.74 5.49,8.71 14.89,-32.4 3.78,-16.54 5.22,-30.36 6.02,-43.88l-202.29 169.61c-172.27,139.94 -366.68,286.65 -574.25,379.59 -50.81,22.75 -78.25,43.83 -127.94,66.44 -699.31,318.16 -1522.8,424.37 -2310.83,302.59 -323.57,-49.99 -626.6,-126.48 -930.23,-235.35l-209.7 -75.12c-25.59,-11.04 -30.02,-21.85 -60.46,-36.32 -44.25,-21.03 -89.54,-40.9 -131.9,-62.74l-93.91 -51.74c-25.32,-16.84 -13.74,-3.31 -24.59,-26.02 128.55,28.79 269.08,51.35 404.8,65.13 159.83,16.24 300.3,13.75 463.63,13.99 -26,-17.38 -448.27,-145.3 -486.95,-158.74 -376.25,-130.78 -736.01,-314.25 -1058.77,-537.78 -39.57,-27.41 -65.12,-39.48 -95.41,-66.02 -78.76,-69 -179.08,-137.15 -264.11,-211.96 -15.9,-13.99 -24.83,-25.37 -41.01,-39.05l-127.93 -114.03c-62.2,-63.86 -179.83,-180.5 -230.14,-244.26 -132.16,-167.5 -215.49,-268.05 -335.56,-458.34 -53.46,-84.7 -199.83,-330.46 -214.18,-425.58l231.64 282.52c36.32,42.57 95.84,93.14 127.82,129.61 63.62,72.56 126.53,120.28 198.74,187.58 30.78,28.67 48.2,29.79 106.95,86.53 72.49,70 381.33,274.5 434.72,281.25 -6.57,-19.11 -61.7,-74.76 -79.98,-93.11 -64.38,-64.58 -180.21,-225.56 -236.55,-301.59 -147.39,-198.95 -301.63,-447.25 -409.03,-671.57 -78.24,-163.43 -152.57,-334.16 -211.73,-506.64 -45.92,-133.9 -78.3,-303.94 -114.67,-417.81 -41.44,-129.81 -56.84,-325.89 -71.01,-460.38 -44.68,-424.05 -9.39,-884.92 97.44,-1292.55 23.31,-88.93 55.13,-182.07 80.5,-277.66 20.68,-77.91 50.03,-152.31 88.53,-222.09 5.14,-9.3 4.19,-8.44 9.59,-16.21 8.41,-12.13 4.53,-7.64 13.14,-16.12 -24.75,203.13 -42.68,424.56 -12.65,627.25 14.42,97.35 64.86,515.37 106.69,564.84 38.4,-123.77 35.01,-475.06 89.52,-654.25 104.52,-343.53 131.13,-498.39 294.15,-829.8 23.57,-47.9 206.47,-369.59 243.08,-413.5 16.93,-20.3 21.41,-27.4 39.34,-56.79 71.02,-116.4 269.44,-361.89 385.07,-458.48 16.77,-14.01 10.92,-9.45 24.71,-23.61 12.56,-12.89 9.07,-7.84 23.51,-24.69 92.54,-108 415.49,-350.37 532.61,-419.38 98.43,-58 193.36,-123.39 298.84,-170.08l131.47 -63.78c73.69,-27.03 120.97,-55.52 200.52,-83.19 42.49,-14.78 92.11,-35.83 141.97,-53.33 45.48,-15.97 274.37,-79.65 292.18,-96.73 -99.11,-39.89 -558.49,4.91 -706.61,22.34 -248.21,29.2 -570.87,107.72 -795.52,198.6l-174.67 74.71c9.28,-24.53 24.2,-29.45 45.87,-48.29 47.07,-40.93 113.68,-85.11 160.2,-130.32 71.99,-69.96 154.15,-104.02 221.39,-172.17 -3.84,-24.27 -5,-12.59 1.42,-25.97 12.01,-25.01 2.07,-3.4 9.99,-5.32 25.06,-6.08 15.6,-11.3 49.78,-36.81 1.37,-1.01 3.34,-2.34 4.71,-3.36 26.98,-19.94 32,-17.2 37.68,-59.2 37.9,16.69 13.02,9.54 42.07,-13.54 1.43,-1.13 3.19,-2.72 4.63,-3.87l306.73 -250.88c72.39,-39.24 59.93,-42.45 121.37,-88.98l427.2 -283.51c279.28,-154.73 542.52,-311.61 838.46,-433.75l414.11 -154.3 444.23 -125.64c92.59,-23.84 403.72,-109.97 477.85,-78.75 14.7,50.28 -19.76,-17.83 -10.23,29.06 17.78,-2.6 6.52,0.41 24.36,-6.23 51.82,-19.29 12.5,-24.21 174.81,-76.56 220.42,-71.11 496.76,10.34 663.06,138.74 -79.12,6.13 -190.92,-31.04 -292.96,-25.22 -181.56,10.37 -345.57,73.98 -455.78,198.85 -31.71,35.92 -112.28,155.89 -108.53,216.03l4.67 15.66c46.57,-92.61 73.74,22.69 96.15,-16.67 146.55,-188.05 455.2,-208.18 689.29,-154.04 45.53,10.53 198,54.83 220.36,70.79 -10.98,-32.59 -100.89,-75.92 -129.46,-120.89 508.48,8.94 697.01,36.98 1156.93,176.84 84.85,25.8 163.34,56.51 243.86,89.48 97.48,39.91 189.75,81.09 281.25,132.51 20.64,11.6 37.05,16.2 55.37,25.82 35.92,18.85 67.54,45.16 103.42,66.34 52.32,30.87 156.57,101.73 188.81,135.82 0.09,-110.3 -145.2,-293.9 -183.02,-395.8 24.31,2.27 23.98,12.95 52.86,30.01 18.07,10.67 39.06,21.86 57.18,31.63 21.57,11.62 38.04,20.27 56.31,32.99 127.08,88.44 233.3,197.73 322.16,321.89 25.62,35.79 50.06,69.27 74.39,109.48 110.4,182.47 139.17,194.62 303.5,331.73l175.12 108.12c42.54,23.95 78.58,51.31 116.34,69.84 28.88,14.17 32.89,13.53 59.46,29.03 70.63,41.2 105.59,89.55 174.84,51.53 75.95,-41.7 179.58,-74.19 289.75,-83.72 -26.6,-34.36 -217.57,-196.1 -261.42,-233.42l-194.25 -168.44c-24.08,-23.71 -36.91,-43.53 -58.8,-69.77 -77.44,-92.8 -144.08,-308.99 -229.52,-433.98 -40.34,-59.02 -73.69,-135.24 -116.51,-195.79 -71.39,-100.96 -137.16,-186.38 -217.28,-272.59l-376.93 -355.62c-63.07,-52.89 -219.59,-162.44 -290.56,-202.26 -30.28,-16.99 -48.9,-31.08 -76.75,-44.56 -32.46,-15.72 -55.13,-37.51 -87.86,-46l44.2 233.62c-60.2,-11.11 -116.66,-58.71 -172.49,-82.59 -637.64,-272.7 -1230.65,-397.94 -1947.7,-405.22 -462.23,-4.68 -985.6,51.24 -1426.24,149.33 -214.47,47.74 -419.62,105.41 -625.63,155.81 -65.98,16.13 -131.84,43.87 -197.46,62.63 -273.22,78.14 -863.43,294.05 -1133.46,426.03 -29.17,14.24 -59.68,33.38 -84.66,45.07 -32.25,15.08 -61.97,24.23 -91.44,38.57 -82.9,40.33 -330.44,154.72 -383.36,199.88 -40.98,34.96 -155.46,76.19 -215.49,108.61 -75.96,41.01 -169.45,105.68 -255.7,133.84 1.91,0.9 5.07,-0.37 6.07,1.84 1.01,2.21 4.74,1.43 6.15,1.61l97.11 -9.92c34.96,-8.45 54.33,-19.9 102.25,-28.38 81.87,-14.51 154.5,-21.34 241.23,-30.33 109.96,-11.41 403.75,-48.81 506.14,-25.89 -70.76,37.98 -158.31,62.86 -227.7,105.92 -49.35,30.62 -264.48,123.05 -330,156.32 -59.48,30.23 -128.62,56.08 -177.95,97.29 -31.42,26.24 -51.59,27.51 -88.83,48.65 -81.29,46.16 -173.44,115.76 -255.52,157.43l-122.88 79.15c-21.4,14.93 -22.93,18.18 -42.12,30.31l-241.34 170.54c-50.17,38.53 -58.62,54.14 -114.77,87.13l-75.2 61.61c-133.26,114.97 -287.91,226.69 -406.79,350.91l-344.63 339.29c-38.68,34.27 -107.43,112.8 -121.89,149.71l424.08 -182.59c82.98,-32.31 405.49,-142.15 478.24,-138.87 -80.74,81.04 -156,163.69 -241.24,239.97l-90.49 102.37c-22.02,27.86 -24.44,27.52 -50.38,53.87l-180.05 213.84c-28.66,36.85 -63.44,71.17 -87.04,105.74l-401.03 577.1c-207.66,327.63 -379.57,675.23 -523.89,1034.95l-105.56 284.75c-15.06,50.81 -35.66,96.23 -47.29,144.49l-90.4 298.86c-17.65,53.57 -21.93,98.27 -37.51,154.1 -27.28,97.76 -47.4,214.82 -73.48,314.76 -19.27,73.82 -100.89,640.82 -84.51,675.98l106.31 -181.4c28.34,-46.19 99.99,-134.47 113.12,-173.21z"/>
   <path class="fil0" d="M11413.77 6514.99c125.89,-113.41 147.98,-114.65 242.75,-192.38l639.76 -513.78c51.27,-56.92 95.49,-51.19 136.18,-145.69 40.88,-94.97 -4.45,-163.92 -74.83,-188.83 -73.21,-25.92 -195.12,-13.71 -282.9,-13.41 -194.47,0.67 -388.92,-0.37 -583.31,0.52 -193.91,0.89 -400.01,-7.56 -591.9,-0.68 -77.95,2.79 -145.06,47.68 -236.67,58.88 -272.95,33.36 -298.42,2.09 -502.23,-49.27 -65.83,-16.58 -210.73,-8.73 -287.68,-7.87 -571.8,6.36 -1181.93,-2.04 -1758.13,-1.88 -100.7,0.03 -1997.25,-9.77 -2049.03,6.28 -66.33,20.58 -134.53,81.57 -110.63,168.72 6.65,24.23 35.83,75.44 50.16,92.7l801.17 642.48c117.06,76.28 72.2,58.8 162.34,128.33l566.58 441.83c33.54,24.2 48.2,45.61 77.71,67.15 33.19,24.21 56.33,35.8 83.57,61.88 73.25,70.14 72.19,60.02 156.23,125.96 16.67,13.08 23.13,17.09 40.68,31.97l762.69 608.61c141.02,102.05 352.6,327.12 526.64,336.74 155.84,8.62 206.73,-69.49 306.48,-130.27l725.11 -573.62c30.29,-26.91 48.77,-40.35 81.31,-63.72l434.84 -355.19c36.98,-29.76 75.34,-50.6 119.05,-90.91l246 -189.72c33.21,-25.5 47.68,-46.32 72.26,-64.56 55.07,-40.88 108.03,-87 162.26,-128.5 25.6,-19.6 63.06,-43.32 83.54,-61.78z"/>
   <path class="fil0" d="M10042.25 8014.8c34.5,-9.39 32.28,-20.06 57.97,-40.41 19.83,-15.72 33.45,-25.42 60.28,-36 16.58,8.77 98.7,56.42 102.76,86.21l-1.62 11.77c-0.36,1.92 -12.04,45.68 15.96,65.43 12.74,8.99 2.48,-4.06 14.16,12.03 -37.51,6.97 -253.59,192.24 -313.48,232.95l-237.4 182.3c-118.83,75.85 -207.17,187.38 -382.24,248.42 -85.33,29.74 -204.45,23.63 -293.09,5.87l-86.22 -35.17c-115.96,-49.7 -216.83,-138.98 -325.34,-216.22l-157.19 -124.36c-1.33,-1.07 -3.2,-2.58 -4.51,-3.66l-127.24 -98.88c-10.91,-8.3 -23.43,-17.56 -32.25,-24.2l-128.57 -104.76c-38.14,-29.33 -107.35,-57.78 -124.19,-103.91l10.73 -5.17c36.21,-25.96 34.01,-63.49 111.43,-94.11 43.2,-17.08 9.17,4.86 35.46,-36.89 1.23,1.67 1.73,4.62 2.14,5.8l5.19 15.27c0.32,0.75 -7.95,5.95 21.83,16.11l43.32 36.41c12.08,48.79 -8.86,-4.39 48.81,22.25 16.28,7.51 20.79,14.61 46.32,24.23l-167.23 -133.88 -691.29 606.12c-41.97,34.33 -63.24,48.48 -98.56,86.85 -32.7,35.51 -63.34,50.13 -101.06,84.32 -33.22,30.1 -58.98,59.92 -97.87,87.66 -23.58,16.81 -27.09,16.25 -54.61,41.92l-143.89 130.27c-21.09,18.4 -29.27,27.83 -51.58,44.96l-333.13 305.89c15.19,53.15 59.06,124.39 81.63,176.56 27.38,63.27 44.76,123.07 72.73,182.34 101.6,215.27 69.89,159.17 138.81,365.12l2297.55 0.02c18.61,-19.82 30.25,-35.43 36.28,-53.84 -41.31,-30.73 8.16,-4 -52.71,-19.94 -26.08,60.92 -26.09,40.88 -114.24,47.86l-1450.34 2.54c-41.69,0.59 -74.46,2.15 -125.45,1.24 -114.08,-2.05 -243.11,3.18 -360.52,-8.37l-219.99 2.64c13.36,-83.79 3.53,-168.34 4.66,-253.48 94.2,-9.81 2012.93,-4.39 2241.24,-2.81l228.77 2.48c1.24,-0.03 57.5,-6.46 70.95,-6.7l62.59 -72.2c22.12,-23.24 39.01,-45.48 65.49,-62.87l-2.34 108c54.79,19.91 -16.58,37.47 133.19,33.77 360.44,-8.88 785.86,-1.05 1150.2,-1.74l1245.87 4.24c9.83,-1.23 -6.8,-4.34 22.16,-3.04 31.33,58.31 29.55,1.86 42.91,74.29 70.45,-1.62 70.04,35.55 90.42,20.66l-802.95 -732.73c-54.15,-58.68 -322.1,-280.08 -405.49,-359.77l-817.3 -721.76c-45.49,-43.53 -82.18,-71.4 -129.46,-116.86 -31.16,12.54 -112.02,78.13 -128.46,98.93z"/>
   <path class="fil2" d="M5839.74 12796.44c-21.16,-23.02 -22.17,-19.67 -51.67,-39.24l-347.2 -257.53c37.01,0.65 212.49,64.68 281.05,85.46 277.32,84.04 614.34,163.96 896.23,213.38 576.62,101.05 1161.4,111.48 1751.31,67.71 111.79,-8.29 223.95,-25.78 328.79,-34.98 183.77,-16.13 736.33,-129.82 925.45,-195.47 87.13,-30.24 199.7,-56.61 276.26,-89.81 73.55,-31.91 201.9,-67.42 275.08,-97.92 35.4,-14.75 26.87,-17.99 66.6,-30l179.27 -76.11c1.57,-0.78 5.09,-0.67 6.23,-3.58 1.14,-2.95 4.34,-2.25 6.23,-3.75 -129.92,-7.54 -555.3,135.17 -1043.24,72.37 49.32,-24.95 146.83,-52.56 213.24,-75.01l720.56 -293.98 640.59 -362.98 653.24 -501.02c152.59,-131.47 256.46,-262.18 361.84,-354.21l65.9 -79.27c21.46,-31.8 45.79,-44.27 71.55,-73.01 22.17,-24.74 44.24,-54.89 57.13,-87.44 -13.75,-8.78 -8.41,16.21 -8.76,-24.04 -0.33,-38.49 -1.47,-15.04 7.32,-29.08 -32.29,5.88 -145.23,124.42 -181.76,153.89 -126.3,101.92 -34.2,27.52 -113.65,103.85 -16.86,16.2 -38.68,30.39 -57.36,47.42l-120.11 97.89c-47,33.9 -67.41,39.93 -128.81,88.76 -96.81,77.01 -362.45,256.85 -462.37,305 -25.31,12.19 -47.22,28.35 -70.42,42.54 -44,26.94 -99.17,46.73 -145.63,73.29 -167.49,95.74 -699.42,356.66 -911.79,398.99l338.1 -477.29c-45.42,9.84 -101.38,56.2 -145.69,82.41 -50.76,30.05 -89.65,52.07 -142.88,83.34 -46.77,27.47 -96.66,64.77 -139.16,87.74l-290.82 153.65c-132.32,76.75 -324.01,146.24 -464.23,208.55 -382.17,169.81 -998.52,319.25 -1424.75,381.71 -371.59,54.45 -1178.47,102.36 -1580,-1.35 -25.36,-6.56 -44.21,-6.5 -80.56,-11.66 -147.91,-21.02 -246.54,-41.53 -381.47,-73.24 -119.12,-28 -380.23,-111.05 -520.69,-154.97 -133.81,-41.84 -411.36,-169.65 -476.36,-187.38 11.79,26.9 38.37,46.04 60.55,74.38 61.1,78.08 97.36,125.2 189.03,197.01l139.82 126.19c146.83,126.06 182.08,139.34 294.86,229.13 140.56,111.91 152.82,62.88 181.57,125.56 13.85,30.2 20.2,22.17 78.73,43.81 87.4,32.33 35.78,12.61 106.09,54.99 70.89,42.73 46.9,12.58 71.49,32.96 9.55,7.92 11.15,9.74 19.92,15.28l25.29 -32.92z"/>
   <path class="fil0" d="M12458.75 6082.99c22.29,-3.88 11.95,-1.59 35.98,-9.03 -6.43,34.41 4.63,7.78 -15.66,36.15l-157.03 157.17c-187,205.18 -148.64,163.87 -239.08,150.84 -14.25,13.61 -15.22,17.77 -30.49,29.7 36.11,23.05 31.06,-2.32 86.79,0.32l-56.2 46.45c-1.09,1.3 -2.58,3.12 -3.71,4.41l-52.19 60.64c-8.71,10.88 -12.62,13.19 -25.18,22.9 -25.43,19.64 -28.97,24.58 -50.38,46.85l-768.52 721.39c-14.59,13.75 -25.1,26.91 -43.14,44.95l-361.12 331.29c-29.93,27.02 -33.96,20.51 -77.82,67.4 -60.95,65.16 -86.74,55.77 -103.66,89.51 21.08,20.71 43.14,34.82 64.46,54.11 26.53,23.98 36.54,32.92 60.11,52.67l624.82 543.7c43.39,32.44 77.47,79.74 120.36,113.09 43.88,34.13 82.89,68.36 123.26,102.71 174.14,148.13 375.13,337.55 552.68,494.57l182.56 163.57c24.3,22.02 40.6,34.44 64.56,56.5 33.31,30.66 148.39,150.85 174.09,155.85l0.22 -2106.03c-25.9,-14.51 -110.24,-44.05 -145.46,-56.56l-139.88 -54.85c1.84,-1.26 4.57,-2.41 6,-3.08l179.03 -89.74c56.99,-35.62 138.58,-59.98 96.2,-159.19 -10.29,-12.54 -46.43,-11.28 -66.4,-12.03 -102.82,-3.88 -185.64,-44.66 -274.22,-81.56 -30.94,-12.89 -64.58,-28.98 -84.75,-50 62.91,-32.93 98.97,-33.59 188.27,-84.78 92.47,-53.01 41.88,-9.33 166.12,-100.71 35.02,-25.77 76.4,-39.64 70.05,-103.92 -100.18,-2.47 -163.09,-4.6 -253.34,-27.78 -40.79,-10.49 -172.2,-55.12 -194.66,-77.08 18.01,-17.7 140.42,-73.84 177.03,-94.63 51.97,-29.52 107.75,-74.18 151.34,-114.78 179.64,-167.39 90.11,-153.25 124.67,-395.55 -33.16,1.2 -93.51,55.9 -105.7,74.56z"/>
   <path class="fil2" d="M1063.45 7551.58c31.42,-17.14 43.51,-49.07 62.01,-77.08 64.81,-98.21 170.98,-174.97 173.14,-194.03 3.39,46.92 -14.43,137.89 -21.24,190.63 -7.96,61.66 -18.98,125.13 -25.84,189.5 -40.68,381.67 -49.14,854.6 -13.89,1231.69 12.09,129.41 34.03,262.59 44.46,392.21 8.44,104.71 118.59,602.52 151.12,712.4 31.68,106.98 79.88,222.05 103.82,327.66l308.65 736.36c51.31,89.99 159.12,311.21 212.67,387.15l126.11 202.52c40.14,69.44 54.29,75.17 89.5,126.66 14.38,21.03 29.37,44.88 45.3,67.18 56.81,79.55 97.8,116.49 137.46,183.49 20.12,33.99 57.71,68.98 100.13,124.62l303.91 338.19c-0.47,-28.85 -26.01,-53.11 -42.47,-76.23l-88.87 -150.48c-66.93,-108.62 -154.57,-285.64 -208.63,-399.19 -25.73,-54.03 -50.22,-115.47 -77.83,-169.47 -27.81,-54.38 -33.26,-116.47 -66.34,-172.85 -19.62,-33.44 -25.81,-35.72 -38.74,-81.63 -8.39,-29.76 -14.88,-59.07 -27.6,-91.08l-67.66 -172.22c-41.02,-124.89 -68.85,-248.22 -101.77,-381.99 -17.52,-71.18 -37.21,-123.11 -52.21,-194.89 -46.63,-222.96 -71.31,-397.59 -111.49,-610.47l-38.71 -317.09c-1.74,-32.65 4.03,-85.05 -12.87,-110.05 -8.02,31.16 -4.06,24.23 -1.28,56.01 -16.22,-37.95 -19.01,-61.03 -45.24,-86.85 -4.78,8.01 -0.55,194.17 -0.47,243.18l-4.26 256.7c-13.31,4.63 -8.09,3.45 -8.4,-2.85 -0.02,-0.39 0.17,-2.41 0.15,-2.89l-9.18 -455.99c2.52,-133.26 -10.27,-125.6 -37.62,-234.05 -55.42,-219.7 -129.8,-429.06 -165,-645.63 -112.52,-692.4 -127.36,-988.26 -69.58,-1682.85 6.66,-80.18 21.31,-156.74 30.41,-237.98l56.84 -348.5c4.22,-24.14 8.12,-35.45 12.89,-59.1 1.23,-6.15 3.78,-22.76 3.64,-26.93 -1.34,-42.92 -0.25,-14.65 -6.46,-26.2 -47.58,41.98 -186.23,252.59 -231.18,310.94 -38.17,49.54 -66.19,109.02 -101.07,164.31l-195.38 331.73c-40.34,71.49 -239.53,478.44 -203.56,549.38 16.47,-36.43 -2.74,-3.95 22.85,-28.55 45.72,-43.95 72.06,-54.19 75.14,-93.17 22.14,-5.12 8.22,-4.1 14.63,7.74z"/>
   <path class="fil0" d="M7843.75 7847.59c-84.72,37.17 -101.77,-8.3 -130.63,-36.98l-140.09 -117.47c-117.91,-122.85 -234.93,-213.66 -353.18,-331.13 -20,-19.88 -33.42,-29.64 -59.93,-53.65l-79.72 -72.93c-84.93,-80.58 -172.52,-176.46 -269.02,-261.59 -98.06,-86.52 -219.8,-216.51 -287.71,-275.98l-125.43 -108.09c-40.67,-41.22 -62.54,-73.56 -108.05,-117.81l-301.85 -338.85c4.93,4.01 7.89,7.96 11.33,12.53 21.58,28.64 -9.2,8.5 18.37,20.82 22.25,9.94 13.99,12.4 39.23,9.69l-216.17 -174.31 2.55 294.74c-86.25,-27.48 -311.53,-342.4 -355.63,-449.55 -25.51,-62 -53.61,-129.33 -78.58,-193.36 -55.51,-142.32 -62.81,-304.24 -67.23,-467.53 -3.94,-146.54 47.26,-331.63 79.53,-465.56 -54.41,48.46 -82.79,130.67 -112.08,201.8 -29.45,71.57 -67.11,152.84 -82.53,227.64 -70.65,342.69 9.17,714.21 212.78,987.04l151.76 162.07c27.93,25.34 41.02,47.36 78.38,74.47 21.12,15.31 24.68,16.16 46.76,33.99 101.32,81.84 332.33,212.14 456.92,255.56 154.91,53.99 297.91,160.57 385.25,245.35 125.52,121.85 105.76,260.22 225.04,398.84 18.44,21.43 18.16,18.31 32.21,40.14 17.76,27.59 22.18,23.71 36.71,43.62 54.89,75.07 78.95,298.79 43.94,394.34 -25.95,-50.6 -62.31,-112.51 -107.55,-152.07 -51.24,-44.84 -98.77,-95.5 -161.66,-112.13 -57.51,71.17 5.32,49.91 67.17,258.32 34.22,115.31 24.92,213.99 -0.12,324.78 -34.34,-16.79 -54.4,-100.97 -157.67,-197.19 -49.05,-45.7 -90.55,-81.53 -153.03,-114.22 -26.02,-13.61 -32.58,-12.15 -59.02,3.28 17.42,82.46 53.08,136.18 48.55,236.78 -3.96,87.93 -39.41,159.33 -65.45,230.57l-19.29 -39.67c-5.81,-13.64 -10.68,-25.22 -17.28,-38.04 -68.98,-133.95 -152.15,-229.36 -287.78,-299.42 -60.28,-31.15 -80.42,-66.34 -154.09,-93.1 25.96,88.29 8.07,360.44 7.02,471.6 71.31,28.4 327.86,278.18 374.55,341.41 46.16,62.53 77.85,84.71 156.51,196.79 38.34,54.64 104.3,174.96 145.25,212.39 90.26,-67.69 468.42,-416.44 577.64,-507.22 31.08,-25.82 55.07,-51.37 85.39,-75.74l586.05 -510.05c17.7,-16.58 22.63,-25.54 40.47,-39.7 19.54,-15.53 26.69,-15.19 41.43,-35.22z"/>
   <path class="fil2" d="M12325.92 9846.99c-20.38,14.89 -19.97,-22.29 -90.42,-20.66 -13.37,-72.44 -11.58,-15.98 -42.91,-74.29 -28.96,-1.3 -12.33,1.81 -22.16,3.04l-1245.87 -4.24c-364.33,0.69 -789.76,-7.14 -1150.2,1.74 -149.77,3.7 -78.39,-13.86 -133.19,-33.77 -1.73,118.06 -6.23,206.24 -19.98,321.5 71.91,-10.62 609.97,-5.2 728.27,-4.98 591.17,1.05 1223.1,-8.09 1807.43,-0.18 83.35,1.13 163.47,14.93 231.65,-36.64 26.11,-19.74 25.47,-32.31 33.61,-57.46 -23.18,-35.22 -65.42,-77.06 -96.23,-94.05z"/>
   <path class="fil2" d="M9293.06 9980.42l222.36 -234.53c-13.45,0.23 -69.7,6.66 -70.95,6.7l-228.77 -2.48c-228.31,-1.58 -2147.04,-6.99 -2241.24,2.81 -1.13,85.13 8.7,169.69 -4.66,253.48l219.99 -2.64c117.41,11.55 246.44,6.31 360.52,8.37 50.99,0.91 83.76,-0.66 125.45,-1.24l1450.34 -2.54c88.15,-6.97 88.16,13.07 114.24,-47.86 60.87,15.94 11.4,-10.8 52.71,19.94z"/>
   <path class="fil2" d="M4360.09 3271.34c42.07,-17.14 111.74,-73.56 150.54,-101.26l36.51 -27.87c19.24,-13.25 21.68,-9.88 41.12,-23.92l214.3 -141.33c25.55,-15.69 14.74,-17.3 56.9,-39.36l200.74 -114.97c101.19,-66.29 135.25,-78.83 252.5,-136.39l352.7 -166.53c113.91,-49.56 235.1,-96.81 365.28,-146.47l392.78 -127.02c125.37,-36.19 280.32,-75.5 412.15,-101.27 75.47,-14.74 143.4,-31.08 218.27,-42.91 272.69,-43.1 202.53,-18.44 269.86,-136.03 74.11,-129.42 176.4,-189.2 206.36,-229.47 -9.53,-46.89 24.94,21.21 10.23,-29.06 -74.13,-31.22 -385.26,54.91 -477.85,78.75l-444.23 125.64 -414.11 154.3c-71.2,29.38 -130.46,55.52 -195.92,87.98 -17.83,8.85 -27.15,12.28 -44.96,20.26 -148.48,66.47 -446.83,241.99 -597.57,325.51l-427.2 283.51c-61.44,46.53 -48.99,49.75 -121.37,88.98l-306.73 250.88c-1.44,1.15 -3.2,2.74 -4.63,3.87 -29.05,23.08 -4.17,30.23 -42.07,13.54 -5.68,41.99 -10.71,39.26 -37.68,59.2 -1.37,1.03 -3.34,2.35 -4.71,3.36 -34.18,25.5 -24.72,30.72 -49.78,36.81 -7.92,1.92 2.02,-19.68 -9.99,5.32 -6.42,13.38 -5.25,1.71 -1.42,25.97z"/>
   <path class="fil2" d="M10042.25 8014.8c-73.06,46.37 -83.68,45.81 -138.04,103.11l-315.27 249.47c-84.44,69.75 -236.28,121.74 -348.3,133.59 -187.2,19.79 -384.57,-88.4 -476.1,-169.38l-359.27 -275.49c-25.54,-9.62 -30.04,-16.72 -46.32,-24.23 -57.67,-26.64 -36.74,26.54 -48.81,-22.25l-43.32 -36.41c-29.78,-10.16 -21.5,-15.36 -21.83,-16.11l-5.19 -15.27c-0.41,-1.18 -0.91,-4.13 -2.14,-5.8 -26.28,41.75 7.74,19.81 -35.46,36.89 -77.42,30.62 -75.22,68.15 -111.43,94.11l-10.73 5.17c16.84,46.13 86.04,74.58 124.19,103.91l128.57 104.76c8.83,6.64 21.34,15.9 32.25,24.2l127.24 98.88c1.3,1.08 3.18,2.59 4.51,3.66l157.19 124.36c108.5,77.24 209.38,166.52 325.34,216.22l86.22 35.17c88.65,17.77 207.76,23.88 293.09,-5.87 175.07,-61.04 263.41,-172.57 382.24,-248.42l237.4 -182.3c59.89,-40.71 275.97,-225.98 313.48,-232.95 -11.68,-16.09 -1.42,-3.04 -14.16,-12.03 -28,-19.75 -16.32,-63.5 -15.96,-65.43l1.62 -11.77c-4.07,-29.79 -86.18,-77.44 -102.76,-86.21 -26.83,10.58 -40.45,20.28 -60.28,36 -25.7,20.35 -23.47,31.02 -57.97,40.41z"/>
   <path class="fil0" d="M7913.76 5058.37l1739.72 -3.23c-18.17,-25.43 -158.02,-123.76 -184.63,-143.56 -180.6,-134.37 -424.14,-288.98 -680.15,-300.32 -224.81,-9.94 -440.35,49.09 -587.46,153.39 -64.5,45.72 -172.46,127.25 -215.36,187.1 -23.9,33.33 -57.93,62.2 -72.12,106.61z"/>
   <path class="fil2" d="M12458.75 6082.99c-30.14,11.2 -10.64,6.49 -36.38,27.87 -53.41,44.39 -47.89,29.12 -130.33,103.54 -9.43,8.52 -20.72,16.21 -32.02,24.68 -83.24,62.31 -40.88,18.59 -129.9,104.17l-321.87 250.8c-23.98,18.09 -35.94,35.36 -59.91,52.89 -116.86,85.48 -256.28,210.03 -355.47,281.88l-729.04 585.24c-27.97,19.95 -48.51,30.18 -69.84,51.37 -49,48.7 -58.16,47.82 -92.75,76.7l-96.89 75.21 192.99 166.57c16.93,-33.74 42.72,-24.35 103.66,-89.51 43.86,-46.89 47.89,-40.38 77.82,-67.4l361.12 -331.29c18.05,-18.05 28.55,-31.21 43.14,-44.95l768.52 -721.39c46.89,-48.79 80.69,-75.72 127.75,-130.39 1.13,-1.29 2.62,-3.11 3.71,-4.41l56.2 -46.45c93,-84.82 7.77,22.22 182.78,-180.86l157.03 -157.17c20.29,-28.37 9.23,-1.74 15.66,-36.15 -24.03,7.44 -13.69,5.15 -35.98,9.03z"/>
   <path class="fil3" d="M6249.88 9454.88c-19.67,-107.39 -95.21,-237.41 -130.27,-342.45 -39.71,-118.91 -183.15,-333.45 -280.63,-424.98 -23.5,-22.07 -34.78,-41.22 -57.26,-63.53 -22.47,-22.3 -37.21,-35.17 -56.99,-55.54 -128.24,-132.01 -161.9,-121.54 -267.95,-200.19 -73.32,-54.38 -69.32,-44.91 -156.88,-86.38 -136.91,-64.85 -392.75,-143.57 -545.68,-161.22 -154.56,-17.84 -295.84,-27.62 -458.58,-20.32 -92.28,4.14 -338.76,36.33 -403.78,66.58 435.57,18.29 772.52,50.06 1151.03,228.02 324.45,152.56 428.95,203.31 693.13,446.52 44.68,41.14 75.48,62.04 116.83,108.64 16.03,18.07 36.67,43.89 53.99,58.63 55.75,47.49 115.89,120.34 159.62,177.78 58.62,76.99 149.04,244.07 183.43,268.43z"/>
   <path class="fil2" d="M7843.75 7847.59l120.11 -93.41c9.85,-9.08 6.79,-6.14 17.05,-14.73 1.35,-1.13 3.5,-2.79 4.75,-3.83l14.82 -12.76 -362.45 -289.65c-46.8,-32.96 -85.69,-58.86 -122.16,-95.18 -33.03,-32.9 -83.61,-68.47 -121.32,-96.66l-515.1 -412.3c-14.15,-12.53 -18.08,-13.11 -31.97,-24.61 -25.34,-21 -33.01,-28.05 -57.7,-47.33l-732.73 -581c-25.24,2.71 -16.97,0.25 -39.23,-9.69 -27.56,-12.32 3.21,7.81 -18.37,-20.82 -3.43,-4.56 -6.4,-8.52 -11.33,-12.53l301.85 338.85c45.52,44.25 67.39,76.6 108.05,117.81l125.43 108.09c67.92,59.47 189.65,189.47 287.71,275.98 96.51,85.13 184.1,181.01 269.02,261.59l79.72 72.93c26.52,24.01 39.93,33.77 59.93,53.65 118.25,117.47 235.27,208.28 353.18,331.13l140.09 117.47c28.85,28.68 45.91,74.15 130.63,36.98z"/>
   <path class="fil0" d="M7170.16 10439.63c14.46,36.32 35.71,47.26 63.67,71.04 24.37,20.72 47.55,41.31 75.39,61.72 55.43,40.64 105.12,75.19 170.66,103.89 115.31,50.5 344.55,68.93 494.2,56.75 284.05,-23.1 408.17,-85.61 632.57,-193.41 34.5,-16.57 58.33,-32.07 90.93,-46.91 27.69,-12.61 59.9,-27.46 77.04,-53.88l-1604.46 0.8z"/>
   <path class="fil3" d="M3883.78 5827.44c-15.15,31.39 -6.96,277.46 0.08,328.15 23.73,170.65 9.46,121.63 60.5,281.32 47.23,147.81 134.95,326.77 258.31,433.56 2.41,-69.69 -42.09,-48.36 -36.61,-272.72 38.93,20.32 75.97,65.73 104.99,101.38 80.96,99.49 350.55,272.15 479.4,328.28 47.79,20.81 95.27,41.92 142.24,60.83 71.01,28.6 242.98,88.63 312.89,89.61l-426.43 -249.14c-38.97,-28.13 -63.11,-39.16 -98.59,-70.5l-143.88 -114.75c-16.94,-15.25 -25.27,-23.98 -41.91,-38.27 -127.59,-109.52 -220.05,-211.33 -322.76,-344.9 -222.27,-289.08 -223.94,-436.76 -288.23,-532.84z"/>
   <path class="fil4" d="M10110.93 4650.36c29.5,13.57 98.78,-11.97 140.24,6.87 21.97,11.05 23.3,35.36 31.24,79.63 5.89,32.86 15.94,61.93 34.19,82.9 77.18,4.7 159.04,-58.91 197.39,-90.04 -1.15,-28.3 -56.84,-141.15 -71.26,-168.92 -39.33,-75.85 -61.66,-250.07 -153.61,-326.15 -32.96,-27.28 -106.6,-74.03 -151.07,-87.37 10.68,58 109.51,184.88 67.48,254.19 -6.65,-60.39 -124.89,-204.62 -200.42,-256.96 -165.82,-114.91 -387.53,-78.66 -316.06,-12.74 23.5,21.68 121.22,53.41 160.1,76.04 51.17,29.79 67.98,89.03 82.15,149.05 43.78,185.47 118.72,-19.01 145.76,206.57 2.6,21.73 3.8,29.18 10.06,46.06l23.81 40.88z"/>
   <path class="fil4" d="M9508.55 2659.32l34.63 14.54c35.41,8.33 51.98,2.02 121.44,22.95 79.97,24.12 81.26,15.12 85.3,90.64 13.32,249.55 243.73,345.33 458.42,300.78 46.59,-9.67 100.55,-35.77 144.09,-50.9 52.87,-18.36 123.47,-1.74 183.68,-13.93 -11.67,-9.98 -104.74,-44.38 -127.44,-54.72 -34.39,-15.68 -85.68,-45.24 -119,-67.32 -209.14,-138.6 -374.69,-334.07 -657.99,-272.8l-123.13 30.76z"/>
   <path class="fil0" d="M11339.33 4213.19c40.97,4.62 157.05,-111.95 157.1,-112.03l8.8 102.94c86.93,-33.58 89.51,-51.95 123.45,-87.07l3.04 85.93c61.17,-13.42 80.33,-83.87 116.26,-108.53 -31.35,172.45 -137.22,92.31 -159.51,231.24 -6.46,40.32 -17.35,69.01 -23.44,101.08 116.27,-73.83 284.04,-235.71 314.79,-376.72 -272.48,13.22 -422.26,-30.99 -533.95,-28.35 -12.38,60.44 -13.27,124.56 -6.55,191.51z"/>
   <path class="fil2" d="M7514.91 2222.61c-10.89,47 -13.21,109.63 -8.35,156.16 9.97,95.65 70.56,244.12 128.82,318.16 30.29,38.51 67.39,94.58 109.74,118.75 -8.73,-27.15 -40,-71.16 -71.35,-170.59 -49.78,-157.86 1.42,-323.37 132.48,-427.8 20.59,-16.41 61.55,-34.58 77.49,-50 -106.99,-11.49 -158.3,5.63 -247.85,13.82 -21.7,38.12 -55.65,-89.72 -120.97,41.51z"/>
   <path class="fil3" d="M12496.95 6995.14c139.02,9.7 276.11,-0.35 384.19,-49.26 365.48,-165.41 67.08,-279.24 -17.6,-222.57 -28.34,18.97 -34.05,19.62 -58.37,46.9 -63.59,71.28 -190.51,138.66 -277.23,198.64l-31 26.3z"/>
   <path class="fil0" d="M10945.87 4397.56c81.63,-29.44 151.23,-113.01 202.26,-163.75l20.35 -19.97c14.84,-16.32 10.32,-11.68 20.85,-27.34l67.71 -108.22c10.66,-22.41 23.22,-41.76 29.97,-67.08 -27.21,-12.19 -256.08,-85.55 -278.61,-86.82 14.9,333.17 -42.88,338.07 -62.53,473.17z"/>
   <path class="fil0" d="M10120.18 3744.04c18.67,39.95 44.17,80.59 73.18,100.06 125.4,-73.69 91.62,-73.48 164.31,-130.4 1.28,1.33 2.87,1.94 3.27,4.4 0.41,2.45 2.62,3.53 3.17,4.46 0.56,0.94 2.28,3.47 2.95,4.67l14.78 31.91c19.46,44.12 31.87,101.75 74.41,145.63 23.23,-8.14 170.74,-104.63 190.41,-128.7 33.46,57.97 63.64,199.73 88.93,233.28l120.59 -95.22c20.49,-17.79 23.88,-15.48 36.02,-44.86 -65.84,-37.23 -269.93,-116.19 -347.5,-139.51 -171.94,-51.72 -266.81,-24.56 -424.53,14.29z"/>
   <path class="fil3" d="M12448.62 6563.09c100.71,35.66 267.04,-12.01 345.44,-39.49 53.39,-18.73 96.3,-44.32 132.83,-77.99 156.01,-143.75 -40.78,-201.83 -120.79,-155.46 -33.36,19.34 -230.59,201.67 -288.32,236.53 -25.77,15.56 -42.8,21.09 -69.16,36.41z"/>
   <path class="fil0" d="M10198.1 4747.14c-58.03,-2.87 -141.96,39.28 -204.43,22.09 -24.24,-78.97 10.5,-169.96 9.21,-252.89l-201.77 13.34 14.27 -235.35 -150.57 -8.53c9.61,43.49 130.16,249.04 160.39,291.49l199.96 242.09c120.64,123.28 153.63,191.67 161.79,91.32 4.52,-55.65 13.68,-104.61 11.17,-163.57z"/>
   <path class="fil0" d="M10289.97 5028.42c40.45,81.26 32.47,70.52 122.25,105.46 61.93,24.1 87.55,7.56 135.55,-64.95 50.41,-76.16 113.62,-232.78 105.21,-347.45 -43.33,34.37 -46.62,71.14 -172.23,157.22 -53.36,36.57 -163.64,106.82 -190.78,149.71z"/>
   <path class="fil0" d="M10885.95 4997.58c16.02,44.3 27.37,-2.39 31.16,69.87l-6.43 65.12c-12.42,42.79 15.95,-41.29 -4.67,13.23l-6.11 13.23c-42.67,-19.27 -19.52,-46.28 -49.3,-88.07l-104.76 -11.35c-17.05,29.3 -27.46,38.03 -47.93,59.99 -5.68,-39.26 0.44,-59.17 -21.26,-87.78 -28.45,17.72 -116.77,98.07 -110.08,135.18 66.66,42.95 332.19,24.37 394.86,-16.41 36.51,-23.75 56.97,-66.41 74.62,-94.72 37.66,-60.38 48.13,-144.61 67.03,-210.01 -29.15,15.2 -73.8,54.86 -107.33,77.59l-109.82 74.15z"/>
   <path class="fil3" d="M12628.19 7374.98c98.81,19.91 223.08,-10.11 302.82,-42.26 62.13,-25.05 177.63,-82.76 178.29,-159.33 -101.19,-82.82 -204.45,-3.48 -268.43,49.14 -50.96,41.89 -187.56,116.05 -212.67,152.45z"/>
   <path class="fil0" d="M11796.74 3443.46c82.84,80.9 416.43,129.21 426.37,15.19 7.18,-82.36 -125.35,-88.81 -206.14,-86.01 -80.4,2.78 -187.98,17.92 -220.23,70.82z"/>
  </g>
  <g id="_1702036268960">
   <path class="fil0" d="M18042.34 12158.57l0 -3436.92 1481.48 0 2632.08 3436.92 1895.1 0 -2647.12 -3444.56c1473.97,-114.56 2647.12,-1367.14 2647.12,-2887.03 0,-1580.99 -1278.44,-2887.03 -2842.64,-2887.03l-3166.01 0 -1481.48 0 0 5781.7 0 3436.92 1481.48 0zm0 -4949.18l0 -2757.19 3166.01 0c736.98,0 1353.64,618.65 1353.64,1374.77 0,756.12 -609.14,1382.41 -1353.64,1382.41l-962.59 0 -774.58 0 -1428.84 0z"/>
   <path class="fil0" d="M31541.13 8696.72l0 -5756.78 1622.97 0 0 2299.42 1834.01 0 0 1552.28 -1834.01 0 0 1905.07c0,1007.54 802.29,1830.31 1834.01,1907.03l0 1554.82c-677.59,-28.4 -1306.32,-238.58 -1834.01,-576.81 -972.53,-623.39 -1622.97,-1677.72 -1622.97,-2885.05z"/>
   <path class="fil0" d="M27515.81 10613.3c-1057.05,0 -1910.53,-853.47 -1910.53,-1910.54 0,-1049.24 853.47,-1902.71 1910.53,-1902.71 1049.24,0 1902.72,853.47 1902.72,1902.71 0,1057.06 -853.48,1910.54 -1902.72,1910.54zm-1910.53 970.93c548.1,368.03 1205.83,579.44 1910.53,579.44 704.72,0 1354.62,-211.41 1902.72,-579.44l0 579.44 1550.35 0 0 -3460.9 0 -3453.07 -1550.35 0 0 571.59c-548.1,-360.19 -1198.01,-571.59 -1902.72,-571.59 -704.69,0 -1362.42,211.39 -1910.53,571.59 -931.78,618.57 -1550.36,1683.47 -1550.36,2881.48 0,1205.83 618.58,2262.9 1550.36,2881.46z"/>
   <path class="fil0" d="M36742.4 8661.69c32.09,-616.65 364.93,-1193.15 941.68,-1521.21 570.09,-324.27 1243.27,-319.97 1793.63,-52.22 3.86,6.59 10.58,2.77 14.46,9.37l-20.14 11.45 -2729.63 1552.61zm4963.02 1160.82c130.87,-360.3 200.59,-740.15 206.66,-1121.54l-1537.82 0c-6.55,602.93 -302.68,1187.19 -844.14,1539.51 -332.39,216.28 -711.26,315.25 -1083.8,305.59 -421.3,-16.04 -832.15,-169.8 -1156.23,-442.82l4439 -2524.23c-37.7,-92.58 -86.39,-195.56 -142.92,-303.11l0.65 -0.43c-70.05,-146.33 -155.08,-301.2 -248.76,-441.3 -75.04,-112.24 -157.04,-219.93 -244.54,-321.88 -89.57,-113.23 -179.76,-213.69 -265.54,-291.84 -237.18,-216.1 -502.89,-400.35 -781.95,-540.83 -130.44,-62.84 -264.6,-117.48 -401.51,-163.83 -10.21,-3.45 -20.4,-6.95 -30.63,-10.31 -972.14,-325.69 -2078.43,-227.34 -3000.8,372.82 -581.03,378.06 -1008.33,902.85 -1257.9,1485.62 -303.81,709.47 -357.07,1502.66 -146.33,2261.14 97.14,311.51 243.58,627.49 435.21,914.05 93.67,140.1 204.53,278.16 306.86,403.49 600.27,649.36 1405.08,1026.17 2244.88,1096.24 36.24,3.18 72.53,5.87 108.91,7.92 644.53,46.98 1312.33,-95.26 1915.94,-438.59 731.26,-415.93 1243.43,-1060.21 1508.71,-1785.68l-23.95 0z"/>
   <polygon class="fil0" points="44002.34,2941.1 44002.34,12148.42 42488.24,12148.42 42488.24,2941.1 "/>
  </g>
 </g>
</svg>
