<?xml version="1.0" encoding="UTF-8"?>
<!DOCTYPE svg PUBLIC "-//W3C//DTD SVG 1.1//EN" "http://www.w3.org/Graphics/SVG/1.1/DTD/svg11.dtd">
<!-- Creator: CorelDRAW -->
<svg xmlns="http://www.w3.org/2000/svg" xml:space="preserve" width="113.123mm" height="50mm" version="1.1" style="shape-rendering:geometricPrecision; text-rendering:geometricPrecision; image-rendering:optimizeQuality; fill-rule:evenodd; clip-rule:evenodd"
viewBox="0 0 678.82 300.04"
 xmlns:xlink="http://www.w3.org/1999/xlink"
 xmlns:xodm="http://www.corel.com/coreldraw/odm/2003">
 <defs>
  <style type="text/css">
   <![CDATA[
    .fil0 {fill:#000205}
    .fil4 {fill:#BCBCBC}
    .fil2 {fill:#C6D4D4}
    .fil3 {fill:#CF0C3D}
    .fil5 {fill:#DDE1E2}
    .fil1 {fill:#FDFDFD}
   ]]>
  </style>
 </defs>
 <g id="Camada_x0020_1">
  <metadata id="CorelCorpID_0Corel-Layer"/>
  <g id="_2341566222896">
   <path class="fil0" d="M494.04 270.5c-0.49,-7.03 -1.74,-6.45 -4.9,-10.47 -2.03,-2.59 -4.24,-11.55 2.64,-9.08 5.33,1.91 9.9,11.06 2.26,19.56zm142.66 -21.71c8.41,-4.75 19.24,5.05 15.15,15.12 -0.11,-0.13 -0.24,-0.51 -0.28,-0.41 -0.13,0.35 -1.18,-5.19 -8.08,-6.64 -4.29,-0.9 -8.33,-2.69 -6.78,-8.08zm-139.41 -7.91c2.35,0.35 11.85,4.96 14.8,8.8 5.53,7.18 2.77,11.1 0.47,17.9 -1.17,-1.68 -0.89,-3.21 -3.43,-7.24 -1.7,-2.7 -2.9,-3.01 -4.48,-6.03l-7.36 -13.44zm143.67 -3.16c6.4,-0.1 12.27,-0.64 17.49,2.11 1.83,0.96 4.38,3.27 5.37,4.45 1.71,2.03 1.58,4.87 2.32,8.46l-25.18 -15.02zm-134.43 -4.28c4.39,0.11 14.23,4.66 17.11,6.79 6.46,4.79 6.69,8.04 7.96,17.71l-1.54 -1.69c-0.68,-0.85 -0.6,-0.9 -1.21,-1.64 -2.59,-3.16 -7.36,-5.31 -10.18,-8.71 -4.29,-5.16 -6.29,-8.64 -12.14,-12.45zm139.85 -3.71c10.14,-1.59 18.48,-1.71 22.9,6.98 1.01,1.98 2.71,4.76 3.91,6.6l-12.13 -7.49c-5.57,-3.05 -9.76,-3.67 -14.68,-6.09zm-131.89 -1.18c13.85,-0.03 19.24,4.85 21.89,16.78 -2.71,-1.38 -2.56,-2.51 -4.86,-4.59l-10.83 -8.07c-2.7,-1.62 -4.47,-1.93 -6.19,-4.13zm-423.97 -5.1c4.63,-0.43 4.59,0.37 7.98,-1.75 2.45,-1.53 4.68,-1.73 5.71,2.33 -3.5,4.93 -12.13,0.72 -13.69,-0.58zm1 -16.12c1.95,-1.45 5.61,-1.3 7.77,-3.07 3.27,-2.68 0.54,-4.68 6.69,-4.72 2.74,3.83 2.15,6.75 -1.6,8.39 -4.19,1.84 -9.05,0.34 -12.86,-0.6zm493.29 -14.2c-3.97,-0.63 -6.57,-1.79 -8.56,-4.11 1.79,-2.49 4.3,-3.77 6.94,-5.66 4.32,-3.08 3.83,-3.81 6.48,-6.54 0.2,7.93 -1.38,11.71 -4.86,16.31zm2.38 0.31c0.84,-2.67 1.95,-2.78 3.47,-5.21 3.33,1.52 0.22,0.75 3.15,2.31 1.26,-1.86 0.68,-1.5 3.43,-2.27l2.95 2.94c0.24,-2.43 -0.16,-4.08 -0.85,-5.84 2.81,-1.32 4.6,-3.81 6.72,-4.51 -0.68,11.14 -6.97,15.6 -18.88,12.56zm-221.85 12.72c0.66,0.75 0.48,-0.25 1.37,1.97 0.59,1.48 0.39,1.58 0.49,2.98 1.95,1.61 3.25,5.46 4.24,8.08 3.17,4.46 6.66,9.95 10.75,12.28l-2.94 -7.48c2.57,0.94 4.76,3.65 6.62,5.6 7.55,7.89 14.29,10 22.25,15.28 -7.67,-0.5 -34.32,-11.18 -38.31,-19.63 -0.06,0.13 -0.09,0.23 -0.11,0.43l-0.69 2.36c-18.79,-14.02 -23.2,-57.14 -16.93,-73.85 0.82,9.78 0.14,17.44 2.04,27.37 1.13,5.87 3.87,19.58 7.01,22.86 0.1,-6.58 -0.26,-9.03 1.07,-15.43 0.56,1.41 3.25,16.2 3.14,17.17zm-194.43 -32.45c-2.36,-2.47 -3.33,-4.9 -8.41,-5.23 -11.05,-0.72 -22.31,7.84 -30.31,10.16l1.96 -1.85c0.66,-0.5 1.37,-0.9 2.12,-1.38 1.28,-0.81 2.86,-1.83 4.3,-2.69 8.92,-5.37 22.76,-14.12 32.16,-6l-1.81 6.99zm114.64 10.79c20.94,1.62 32.6,7.9 49.31,14.16 2.45,0.92 4.97,2 7.64,2.87 2.75,0.89 2.44,-0 3.66,1.86 0.35,0.54 1.24,4.27 1.42,5.01 -8.45,-2.12 -25.36,-10.31 -35.78,-14 -3.5,-1.24 -11.29,-2.91 -13.13,-4.2 -8.28,1.43 -18.34,-4.97 -25.31,1.19 -0.73,0.64 -1.17,0.89 -1.97,1.55 -16.3,13.26 -35.07,18.2 -57.68,16.84 3.41,-1.71 18.22,-2.4 33.59,-10.13 2.39,-1.2 7.95,-4.34 10.19,-4.97 2.84,-2.66 6.96,-4.67 9.64,-6.7 2.99,-2.27 6.7,-6.23 9.67,-7.55 0.18,-0.31 10.45,-11.38 14.29,-16.74l2.41 -2.89c-1.84,8.8 -10.51,18 -13.64,23.56l5.67 0.14zm260.09 -24l10.46 1.84 0.71 8.81 7.56 -0.63 0.95 8.69c3.16,0.38 4.3,-0.61 7.5,-0.95l0.49 9.18c-8.3,-4.05 -22.8,-19.5 -27.67,-26.95zm74.66 1.98c0.8,-10.13 2.86,-4.49 4.36,-10.65 -1.07,0.96 -1.2,1.37 -2.91,2.45l-1 -2.2 -3.78 1.88c-0.06,-0.1 -0.2,-0.34 -0.27,-0.46l-1.25 -2.11c-0.73,1.38 -0.48,1.28 -1.46,2.52 -1.27,1.62 -1.21,1.51 -2.74,2.22 -0.91,-1.94 -0.97,-4.5 -0.86,-7.01 7.49,0.35 12.43,-0.68 19.13,-0.86 -1.19,5.84 -5.7,12.81 -9.23,14.21zm-22.26 -15.44l9.89 1.95c-0.19,4.88 -3.55,10.39 -7.17,13.43 -2.28,1.91 -0.15,0.56 -2.33,1.58 0.86,-6.79 0.23,-10.54 -0.39,-16.96zm-30.89 0.53l-4.44 -4.43c9.64,-2.7 11.29,-3.28 20.21,-0.61 0.92,0.28 2.57,0.64 3.85,0.98 1.18,0.32 2.57,0.73 3.72,1.13l3.33 1.68c-2.09,2.31 -3.98,4.59 -6.36,6.13l-3.29 -9.29c-4.21,2.17 -2.25,3.15 -7.29,5.42 -0.52,-1.32 -0.85,-1.93 -1.63,-3.33l-2.65 -3.24c-1.7,2.46 -3.3,3.53 -5.44,5.57zm-501.4 -15.3c10.37,2.68 17.42,7.95 36.46,11.15 16.28,2.74 29.67,1.53 45.82,2.69 -5.99,5.39 -27.39,3.98 -33.61,3.41 3.46,1.59 5.7,2.22 9.83,3.43 3.86,1.13 8.15,1.47 11.51,2.89 -14.03,1.72 -28.05,-2.01 -39.91,-6.61 -6.85,-2.66 -26.59,-11.64 -30.1,-16.96zm556.59 -4.71c3.01,-4.96 17.15,-6.44 17.21,-2.35 0.08,5.25 -10.05,5.06 -17.21,2.35zm-428.94 24.03c3.18,-1.23 7.15,-3.5 10.84,-3.68l-29.24 24.24c-1.62,1.55 -2.5,3.11 -3.97,4.18 1.81,-10.22 13.68,-25.57 21.59,-33.47 7.67,-7.65 20.95,-17.65 34,-21.45 -2.96,1.78 -6.64,4.05 -9.4,6.13 -3.11,2.34 -6.64,4.79 -8.91,7.2 -4.83,5.12 -6.55,6.3 -11.38,12.42 -0.8,1.01 -2.7,2.98 -3.52,4.43zm186.44 -34.03c14.85,1.99 28.78,10.41 34.6,23.93 1.76,4.09 3.34,10.98 3.44,15.8 -2.46,-3.55 -3.96,-7.72 -6.79,-11.75 -6.26,-8.87 -18.33,-20.41 -28.09,-25.79l-3.15 -2.2zm15.12 -7.66c9.35,1.64 19.87,10.55 26.26,16.4 5.1,4.67 13.37,21.89 9.39,32.77 -2.42,-3.45 -2.55,-10.64 -5.6,-14.22l-1.14 3.11c-1.28,-6.07 -3.28,-7.36 -5.17,-11.42 -5.42,-11.62 -5.12,-9.66 -14.34,-19.29 -3.27,-3.41 -6.31,-4.41 -9.4,-7.35zm-50.38 -78.9c9.36,-2.18 73.46,11.26 88.3,13.09 -4.7,-3.75 -18.15,-11.02 -21.01,-14.69l28.06 6.71c22.64,4.36 48.15,10.26 69.91,17.72 3.72,1.28 9.83,4.18 12.98,4.78l-12.09 -12.2 32.45 13.24c22.27,10.18 38.13,21.74 53.3,39.82 5.08,6.06 5.03,6.02 12.6,10.51 5.23,3.09 9.84,6.34 15.56,8.42 -1.41,0.97 -3.37,1.54 -5.2,2.51 -2.28,1.22 -2.97,2.09 -4.7,3.29 -7.5,-0.89 -26.61,-8.85 -30.84,-12.85 -7.91,-7.48 -14.1,-14.91 -26.04,-18.5 1.89,3.57 7.03,6.8 9.87,13.48 -15.99,-8.19 -13.11,-8.25 -32.47,-14.9 -9.99,-3.43 -30.25,-7.16 -41.51,-6.01 1.35,1.69 4.21,3.17 6.03,4.78 -12.69,-3.17 -24.87,-6.77 -33.29,3.6 -0.5,2.08 -0.4,0.69 0.51,1.19 2.36,-1.23 5.27,-1.29 8.18,-0.93 -2.78,3.63 -0.42,-1.74 -5.93,6.24 -1.05,1.52 -0.28,0.52 -1.09,1.39 1.13,7.6 1.39,6.52 3.69,12.64 -7.2,-2.66 -14.84,-14.6 -9.23,-24.92 5.18,-9.52 14.21,-11.38 27.78,-10.89 -1.88,-2.13 -5.17,-3.49 -8.06,-3.89 -17.5,-2.63 -26.61,4.85 -29.85,19.92l-0.87 2.9c-1.83,-3.08 -1.57,-7.42 -2.08,-11.22 -14.82,-5.32 -8.3,-4.63 -27.82,-8.76 -10.2,-2.16 -21.03,-4.66 -31.88,-5.32 3.44,1.76 11.91,3.4 16.5,6.08 1.17,0.68 0.82,0.49 1.42,0.94 -43.22,-5.29 -75.5,-14.58 -121.35,-2.77l-14.96 4.94c14.56,0.13 19.28,-1.89 36.2,1.45 3.41,0.67 7.9,1.37 10.07,3.68 -28.69,-0.2 -38.83,-1.7 -67.85,6.89l-18.81 7.54c1.25,-2.02 9.7,-8.92 12.8,-9.49 2.54,-4.3 13.23,-7.78 17.47,-10.78 -27.36,3.36 -46.89,21.53 -89.64,26.51 -19.18,2.23 -26.77,-0.97 -36.92,-0.47 18.16,10.67 43.95,13.83 47.45,15.87 -31.98,3.77 -69.69,-3.25 -97.85,-17.11 -6.82,-3.36 -12.96,-6.19 -18.95,-10.47l-6.13 -4.17c1.5,4.87 10.7,17.18 13.57,20.53 1.5,1.75 2.38,3.12 3.88,4.53l13.54 12.16c-5.8,-1.75 -13.92,-6.82 -18.51,-9.98l-12.32 -9.41c-5.61,-5.18 -12.35,-13.62 -16.85,-20.27 -2.86,-4.22 -8.61,-14.27 -9.73,-19.73 3.33,2.41 15.28,13.5 20.54,15.26 -2.13,-5.44 -16.03,-21.29 -18.43,-43.71 -1.51,-6.44 -1.3,-13.93 -0.91,-20.96 1.06,0.41 3.74,5.14 4.73,6.44 1.99,2.63 3.37,4.5 5.66,6.92 10.72,11.33 29.46,25.78 44.84,30.46 -3.16,-5.19 -9.07,-10.88 -10.75,-18.11 1.01,0.61 7.82,6.85 14.42,11.26 5.24,3.5 10.6,6.28 16.57,9.32 7.62,3.88 29.58,12.2 38.85,12.83 -6.28,-3.65 -16.75,-7.74 -20.27,-12.52 28.22,8.81 39.89,9.85 70.13,2.9 28.84,-6.63 29.2,-11.29 66.89,-15.2 -7.71,-2.14 -32.53,-3.02 -36.11,-4.51l5.79 -1.46c2.34,-1.34 11.33,-2.85 13.97,-3.3 4.9,-0.84 9.85,-1.98 14.81,-2.37 23.24,-2.12 29.84,-3.53 53.6,-2.59 5.82,0.23 12.1,1.24 17.53,1.28 -4.89,-3.46 -15.36,-6.11 -21.42,-8.81l-11.18 -3.33c6.9,-1.13 28,0.72 36.88,1.41 2.36,0.18 3.83,0.04 5.57,1.18zm221.39 166.56c-7.02,-2.69 -22.19,-18.35 -46.85,-26.89 -1.06,-0.37 -1.29,-0.43 -2.07,-0.82l-2.17 -1.36c13.22,0.51 28.8,8.52 37.44,14.34 6.92,4.66 20.37,14.71 27.33,17.44 0.9,0.36 1.82,0.6 2.57,0.9l2.74 1.39c4.13,-1.02 7.77,0.35 12.21,-1.69 2.53,-1.16 6.78,-3.94 7.92,-6.06 3.23,-5.98 6.87,-14.47 3.81,-22.32 -4.61,4.29 -3.69,5.97 -10.93,9.32 -5.4,-4.51 -3.32,-4.78 -6.61,-12.11 -3.21,-0.03 0.17,-0.25 -3.31,1.48 -1.05,-3.84 -4.87,-6.5 -2.56,-10.65 0.88,-1.58 6.39,-6.07 8.84,-6.67 0.9,6.92 -0.65,11.03 -0.57,16.8 13.92,-3.61 11.05,-10.93 15.91,-10.08 0.16,0.03 1.13,0.22 1.92,0.1 1.65,-0.25 2.21,-0.97 4.69,-1.38l-1.15 9.85c4.72,-0.63 10.06,-4.71 12.38,-7.26 3.07,-3.35 5.13,-10.63 7.58,-12.72 3.88,-3.31 6.86,-5.9 9.2,-11.1 1.76,-3.9 4.82,-11.09 3.42,-15.64 -1.85,-6 -15.69,-7.56 -26.84,-13.74 -19.49,-10.81 -19.15,-18.24 -32.53,-29.08 -13.38,-10.84 -19.12,-15.47 -36.53,-24.38 -16,-8.19 -42.13,-18.53 -59.91,-22.39 2.54,4.01 6.17,5.64 8.08,9.9 -8.57,-2.07 -17.74,-5.87 -26.89,-8.23 -24.36,-6.27 -64.59,-16.19 -88.05,-17.61 5.12,4.13 11.59,7.06 16.02,11.69 -24.69,-3.23 -31.34,-7.55 -63.58,-8.88 -23.22,-0.96 -47.25,-0.31 -69.16,3.61 6.94,2.13 18.28,3.48 23.19,7.41 -18.9,0.62 -33.39,2.73 -51.02,6.72 -8.71,1.97 -39.13,10.45 -43.91,14.3 9.02,0.08 17.81,0.07 26.42,1.87 -23.55,3.84 -34.29,12.46 -62.65,11.63 -19.34,-0.57 -44.14,-9.9 -55.09,-19.4 1.12,5.12 6.04,8.67 7.83,13.02 -11.13,-3.64 -26.55,-15.09 -34.68,-23.13l-9.66 -9.71c-0.23,8.59 1.25,12.51 3.35,19.58 -6.31,-2.21 -19.38,-14.3 -23.16,-18.21 -6.69,-6.91 -12.26,-14.27 -14.65,-27.39 -4.87,4.9 -8.06,18.52 -8.56,27.29 -0.8,14.21 2.76,19.23 4.81,30.65l-7 -7.24c-0.32,-0.37 -0.67,-0.78 -1.01,-1.13l-1.57 -1.55c1.41,22.83 10.35,42.61 25.09,58.57 2.12,2.29 4.18,3.26 6.22,6.02 -7.95,-0.71 -24.06,-13.95 -31.99,-18.05 7.55,18.9 28.36,38.9 44.24,49.57 32.79,22.03 61.52,24.63 66.45,27.4 -14.16,12.18 -30.97,8.89 -35.44,28.95 -8.63,2.96 -6.48,0.26 -11.25,-1.6 2.54,17.09 5.06,11.43 10.25,18.83 -4.65,1.24 -8.95,1.47 -13.98,0.79 0.59,2.45 5.7,8.71 7.23,10.18 2.39,2.31 7.21,4.74 11.48,6 28.41,8.45 48.5,-13.22 64.01,-21.74 6,-3.3 7.42,-2.22 14.49,-0.79 10.59,2.14 19.47,3.71 30.77,4.45 8.97,0.59 17.33,5.36 27.94,7.51 26.33,5.35 51.6,0.01 74.1,-10.9 4.01,-1.94 7.86,-4.9 11.11,-6.45 3.07,-1.46 20.78,7.14 25.1,8.65 6.3,2.21 4.52,2.84 8.64,8.87 7.23,10.56 19.83,17.34 32.44,21.47 11.38,3.73 17.84,4.29 30.16,3.7 5.81,-0.28 11.12,0.04 16.95,-0.53 21.86,-2.13 13.57,-3.86 27.34,6.39 3.66,2.72 6.38,5.06 11.23,6.92 4.76,1.83 9.77,0.87 13.12,4.42 5.31,5.63 2.82,7.38 -0.21,12.94 11.8,-2.08 11.02,-7.86 15.55,-15.8 9.79,2.02 3.14,13.72 2.77,15.35 8.98,-2.4 15.54,-10.48 14.62,-22.4 7.92,2.03 12.17,5.05 11.53,14.71 8.04,-4.49 3.41,-15.78 3.13,-21.52 5.08,0.69 3.28,4.55 5.06,8.56 6.88,-4.41 0.58,-26.64 -11.91,-33.07 -4.01,-2.06 -8.88,-2.73 -13.87,-3.66 -13.86,-2.58 -30.6,-27.24 -42.89,-25.72 0.8,1.69 5.13,4.28 6.93,5.69 2.54,2 5.15,3.8 7.07,6.16 -4.5,-2.24 -8.34,-4.67 -13.65,-7.3 -19.98,-9.89 -50.22,-10.24 -52.67,-11.6 2.15,-0.99 5.56,-0.68 8.2,-0.83 1.39,-0.08 2.9,-0.17 4.32,-0.3l3.81 -0.86c0.15,-0.06 0.38,-0.16 0.55,-0.28 -5.72,-1.9 -14.77,-4.79 -18.11,-8.76 2.15,-0.1 11.56,4.59 16.61,5.34l-4.54 -15.9c4.2,3.74 4.43,14.84 8.5,16.8 3.57,1.72 15.05,2.98 20.3,4.85 9.22,3.28 4.08,2.37 13.42,0.63 8.34,-1.56 22.57,-2.61 30.81,-1.24 8.46,1.41 18.98,6.29 23.18,11.04 -9.49,-3.52 -13.03,-7.03 -25.04,-7.38l1.46 1.32c7.2,5.16 13.67,4.93 19.46,16.41 -7.46,-3.61 -14.82,-12.95 -29.18,-14.69 0.13,0.15 0.34,0.16 0.41,0.43l7.74 7.31c4.08,4.06 7.53,8.06 12.42,11.37 11.5,7.79 23.68,13.63 36.53,19.48 4.56,2.08 21.04,7.65 23.11,9.17l-10.27 0.01c6.04,2.89 15.21,3.54 20.35,6.64 11.69,7.04 23.36,14.86 38.19,16.47 17.69,1.92 32.42,-8.05 26.37,8.39 10.13,-2.72 10.63,-14.94 11.04,-14.23l5.27 -3.59c3.52,2.55 2.95,6.75 2.37,10.5 2.43,-0.79 5.59,-4.85 6.13,-7.41 1.28,-6.01 -2.29,-9.31 -1.01,-12.13 3.35,-0.77 3.88,4.09 5.02,6.59 0.53,1.16 0.31,0.8 0.78,1.35 5.7,-8.37 0.05,-13.28 -2.29,-18.68 -1.08,-2.47 -0.99,-3.79 -2.65,-5.79 -11.91,-14.32 -25.75,-1.62 -48.85,-18.35 -5.53,-4.01 -14.96,-13.9 -18.32,-15.62l-2.58 2.68c-1.51,1.59 -1.57,1.36 -2.45,3.26 3.35,2.02 13.21,7.37 13.81,10.15 -4.12,-0.67 -6.57,-3.54 -10.03,-5.39 -8.72,-4.67 -2.23,-2.99 -12.03,-1.8 -8.71,1.05 -20.46,-4.24 -24.98,-8.43z"/>
   <path class="fil1" d="M34.96 40.18l8.29 15.33c2.51,4.42 5.99,9.89 9.93,12.43 -1.69,-3.25 -5.49,-8.69 -6.01,-12.91 3.64,5.53 19.41,28.39 26.86,30.7 -1.54,-6.12 -7.34,-9.1 -8.97,-16.43 7.14,5.52 2.34,5.6 24.06,18.77 6.98,4.23 20.73,12.01 29.46,13.68 -0.12,-0.16 -0.29,-0.35 -0.39,-0.45l-0.79 -0.83c-2,-1.77 -3.29,-1.47 -4.49,-3.53 10.5,3.6 36.61,7.22 48.25,3.22 4.61,-1.59 10.97,-1.42 15.23,-2.64 -19.22,-0.72 -25.23,-1.16 -41.03,-7.71 15.6,-0.41 9.35,3.62 32.8,0.19 3.39,-0.5 7.17,-0.46 10.52,-0.73 7.42,-0.6 14.02,-1.88 21,-2.94 3.75,-0.57 17.15,-1.62 20.02,-4.26l-12.83 -0.81c1.23,-0.27 2.61,-0.4 3.9,-0.62l-4.07 -0.52c6.63,-1.06 13.11,-2.11 19.66,-4.35 4.51,-1.54 13.57,-4.33 18.32,-4 -2.48,-0.04 -15.78,4.36 -18,6.82 4.02,0.02 10.22,-1.44 14.05,-2.4 17.64,-4.45 66.52,-11.77 84.88,-11.96 4.84,-0.05 10.57,0.86 14.4,0.64 -7.82,-2.59 -32.59,-8.21 -36.14,-10.21 15.14,-0.5 64.15,5.94 82.82,8.93 7.94,1.27 17.77,4.01 25.59,4.28 -8.07,-7.64 -30.86,-16.44 -38.85,-21.45 9.05,1.12 17.95,5.06 27.01,7.02 9.41,2.04 18.57,3.95 28.81,5.29 10.02,1.31 18.87,3.84 28.42,6.02 4.38,1 9.75,1.99 13.99,3.5 6.49,2.31 9.73,2.98 10.68,6.38 2.89,0.4 6.18,1.76 8.06,3.89 -13.58,-0.48 -22.61,1.38 -27.78,10.89 -5.61,10.32 2.03,22.26 9.23,24.92 -2.3,-6.11 -2.56,-5.04 -3.69,-12.64l-1.63 4.86c-3.46,-1.84 -3.64,-3.91 -3.61,-11.97l1.86 0.76c0.02,0.01 0.11,0.07 0.17,0.07l1.55 -1.61c8.42,-10.37 20.6,-6.77 33.29,-3.6 -1.82,-1.62 -4.67,-3.1 -6.03,-4.78 11.26,-1.15 31.51,2.57 41.51,6.01 19.36,6.65 16.49,6.71 32.47,14.9 -2.84,-6.68 -7.98,-9.91 -9.87,-13.48 11.94,3.6 18.13,11.03 26.04,18.5 4.23,4 23.34,11.96 30.84,12.85 1.73,-1.2 2.42,-2.07 4.7,-3.29 1.83,-0.98 3.78,-1.55 5.2,-2.51 -5.72,-2.08 -10.33,-5.33 -15.56,-8.42 -7.58,-4.48 -7.52,-4.45 -12.6,-10.51 -15.17,-18.08 -31.03,-29.64 -53.3,-39.82l-32.45 -13.24 12.09 12.2c-3.15,-0.61 -9.25,-3.51 -12.98,-4.78 -21.76,-7.47 -47.27,-13.36 -69.91,-17.72l-28.06 -6.71c2.86,3.67 16.31,10.94 21.01,14.69 -14.84,-1.82 -78.94,-15.26 -88.3,-13.09 -5.64,1.42 -10.06,0.71 -16.19,0.35 -3.04,-0.18 -5.45,0.16 -8.43,0.17 -3.58,0.01 -5.43,-0.65 -6.66,0.22 6.06,2.71 16.53,5.35 21.42,8.81 -5.43,-0.04 -11.71,-1.04 -17.53,-1.28 -23.76,-0.94 -30.36,0.47 -53.6,2.59 -0.92,4.19 0.4,1.78 -6.24,3.36 -2.71,0.64 -3.22,1.69 -5.96,2.31 -4.78,1.08 -12.12,0.56 -16.57,-0l-5.79 1.46c3.57,1.49 28.4,2.36 36.11,4.51 -37.69,3.91 -38.05,8.57 -66.89,15.2 -30.24,6.95 -41.91,5.92 -70.13,-2.9 3.52,4.78 13.99,8.87 20.27,12.52 -9.27,-0.62 -31.24,-8.95 -38.85,-12.83 -5.97,-3.04 -11.33,-5.82 -16.57,-9.32 -6.6,-4.41 -13.41,-10.65 -14.42,-11.26 1.68,7.23 7.58,12.92 10.75,18.11 -15.38,-4.68 -34.12,-19.13 -44.84,-30.46 -2.3,-2.42 -3.67,-4.29 -5.66,-6.92 -0.99,-1.3 -3.67,-6.03 -4.73,-6.44 -0.39,7.03 -0.6,14.52 0.91,20.96z"/>
   <path class="fil2" d="M267.65 268.23c-11.58,-1.37 -34.59,-11.4 -43.65,-16.08 -13.16,-6.79 -26.89,-14.74 -43.71,-16.42 1.89,2.23 3.27,2.54 5.85,3.82 7.38,3.67 10.53,8.23 15.6,12.41 7.5,6.18 20.36,12.87 22.53,14.82 -33.21,-2.71 -67.51,-21.85 -84.92,-23.75l21.83 15.22c3.67,2.08 21.93,11.26 26.08,10.91 -24.48,2.43 -68.03,-15.59 -71.18,-15.8l12.79 9.19c3.98,2.7 8.98,5.17 14.48,6.75 -12.79,-0.19 -84.62,-2.19 -90.15,0.25 14.07,8.2 148.44,12.63 172.97,13.77 -0.02,0.08 -0.19,0.14 -0.19,0.17 0.01,0.2 -0.3,-0.17 0.19,0.85 70.13,5.54 141.2,4.58 212.4,8.78l-63.46 2.5c45.82,2.9 72.86,4.1 119.21,4.13 4.04,0 69.89,1.29 73.74,-1.53l-16.97 -2.29c14.19,-0.47 68.79,2.16 78.34,-1.87 -8.95,-5.34 -88.29,-8.41 -107.79,-9.88 -48.62,-3.65 -89.51,-6.35 -135.89,-22.23 -7.16,-2.45 -24.03,-7.95 -31.6,-8.45 2.93,3.4 25.86,15.18 32.35,18.14 4.09,1.87 8.21,3.03 11.79,4.81 -19.12,0.33 -43.65,-8.49 -58.74,-15.26 -12.51,-5.61 -40.16,-19.29 -55.39,-19.15 1.58,1.84 2.37,1.88 4.88,3.17 1.56,0.8 3.32,1.81 4.81,2.87 3.06,2.17 6.15,4.75 8.11,7.29 7.57,9.81 13.26,10.62 17.33,14.22 -41.17,-3.95 -80.62,-33.65 -98.1,-34.95l21.85 18.04c6.4,4.96 13.35,9.96 20.98,13.33 2.15,0.95 2.14,0.74 3.64,2.21z"/>
   <path class="fil2" d="M243.85 91.42c2.76,-0.23 -0.05,-0.45 3.02,0.49 0.09,0.03 1.56,0.51 1.6,0.53 2.02,0.95 -0.17,-0.68 1.39,0.93 29.02,-8.58 39.17,-7.09 67.85,-6.89 -2.17,-2.31 -6.66,-3.01 -10.07,-3.68 -16.92,-3.34 -21.63,-1.32 -36.2,-1.45l14.96 -4.94c45.85,-11.81 78.14,-2.52 121.35,2.77 -0.59,-0.45 -0.25,-0.26 -1.42,-0.94 -4.59,-2.68 -13.07,-4.32 -16.5,-6.08 10.85,0.66 21.68,3.16 31.88,5.32 19.51,4.13 12.99,3.44 27.82,8.76 0.51,3.8 0.25,8.14 2.08,11.22l0.87 -2.9c3.24,-15.07 12.35,-22.56 29.85,-19.92 -0.95,-3.4 -4.19,-4.08 -10.68,-6.38 -4.25,-1.51 -9.61,-2.5 -13.99,-3.5 -9.55,-2.18 -18.4,-4.7 -28.42,-6.02 -10.23,-1.34 -19.4,-3.26 -28.81,-5.29 -9.06,-1.96 -17.96,-5.9 -27.01,-7.02 7.99,5.01 30.78,13.81 38.85,21.45 -7.82,-0.27 -17.65,-3.01 -25.59,-4.28 -18.67,-2.99 -67.68,-9.43 -82.82,-8.93 3.54,2 28.31,7.62 36.14,10.21 -3.83,0.22 -9.56,-0.69 -14.4,-0.64 -18.36,0.2 -67.23,7.51 -84.88,11.96 -3.83,0.97 -10.03,2.42 -14.05,2.4 2.22,-2.47 15.52,-6.86 18,-6.82 -4.75,-0.33 -13.81,2.46 -18.32,4 -6.55,2.24 -13.04,3.29 -19.66,4.35l4.07 0.52c-1.3,0.22 -2.68,0.34 -3.9,0.62l12.83 0.81c-2.87,2.64 -16.27,3.69 -20.02,4.26 -6.97,1.06 -13.58,2.34 -21,2.94 -3.35,0.27 -7.13,0.24 -10.52,0.73 -23.45,3.44 -17.2,-0.6 -32.8,-0.19 15.8,6.55 21.81,6.99 41.03,7.71 -4.26,1.22 -10.62,1.06 -15.23,2.64 -11.64,4 -37.74,0.38 -48.25,-3.22 1.2,2.06 2.49,1.76 4.49,3.53l0.79 0.83c0.1,0.1 0.27,0.29 0.39,0.45 -8.73,-1.67 -22.48,-9.45 -29.46,-13.68 -21.72,-13.17 -16.92,-13.24 -24.06,-18.77 1.62,7.33 7.42,10.31 8.97,16.43 -7.44,-2.3 -23.22,-25.17 -26.86,-30.7 0.51,4.22 4.32,9.66 6.01,12.91 -3.94,-2.54 -7.42,-8.01 -9.93,-12.43l-8.29 -15.33c2.39,22.42 16.3,38.27 18.43,43.71 -5.25,-1.77 -17.2,-12.86 -20.54,-15.26 1.12,5.45 6.87,15.5 9.73,19.73 4.5,6.64 11.25,15.08 16.85,20.27l12.32 9.41c4.6,3.16 12.71,8.24 18.51,9.98l-13.54 -12.16c-1.5,-1.41 -2.38,-2.78 -3.88,-4.53 -2.87,-3.34 -12.06,-15.66 -13.57,-20.53l6.13 4.17c5.99,4.28 12.13,7.11 18.95,10.47 28.16,13.86 65.87,20.88 97.85,17.11 -3.49,-2.04 -29.29,-5.21 -47.45,-15.87 10.15,-0.5 17.74,2.7 36.92,0.47 42.76,-4.98 62.28,-23.15 89.64,-26.51 -4.24,3 -14.93,6.48 -17.47,10.78z"/>
   <path class="fil1" d="M371.43 219.2c-0.13,0.13 -0.31,0.16 -0.38,0.39 -0.01,0.04 -3.06,4.72 -6.93,-6.29 -3.21,-2.68 -5.02,-1.25 -6.7,-5.24 -0.58,-1.38 -0.52,0.52 -0.34,-1.56 0.11,-1.34 0.31,-1.08 0.72,-1.82l3.74 3.85c0.08,0.11 0.2,0.3 0.28,0.41l0.88 1.05c0.62,-0.95 0.78,-0.08 0.38,-3.83 2.7,1.15 0.44,1.47 2.25,0.03 0.11,-0.97 -2.58,-15.76 -3.14,-17.17 -1.33,6.39 -0.98,8.84 -1.07,15.43 -3.14,-3.28 -5.88,-16.99 -7.01,-22.86 -1.9,-9.93 -1.23,-17.59 -2.04,-27.37 -6.27,16.71 -1.86,59.82 16.93,73.85l0.69 -2.36c0.01,-0.2 0.05,-0.3 0.11,-0.43 3.99,8.45 30.64,19.13 38.31,19.63 -7.96,-5.29 -14.7,-7.39 -22.25,-15.28 -1.86,-1.94 -4.05,-4.66 -6.62,-5.6l2.94 7.48c-4.09,-2.33 -7.58,-7.82 -10.75,-12.28z"/>
   <path class="fil2" d="M65.74 132.28c3.51,5.31 23.25,14.3 30.1,16.96 11.86,4.6 25.88,8.33 39.91,6.61 -3.36,-1.42 -7.65,-1.76 -11.51,-2.89 -4.13,-1.21 -6.37,-1.84 -9.83,-3.43 6.22,0.57 27.62,1.98 33.61,-3.41 -16.14,-1.16 -29.54,0.05 -45.82,-2.69 -19.04,-3.2 -26.1,-8.47 -36.46,-11.15z"/>
   <path class="fil2" d="M109.52 266.05l-19.26 -5.56c-14.24,-4.84 -41.66,-18.01 -52.98,-20.36l13.22 11.17c9.9,7.17 22.72,12.58 35.26,14.38 3.99,0.57 7.54,0.81 11.57,1.03 3.44,0.19 9.48,0.99 12.18,-0.65z"/>
   <path class="fil2" d="M96.31 242.58l-3.84 -2.49c-1.44,-0.64 -2.13,-1.05 -3.66,-1.89 -2.36,-1.31 -4.73,-2.63 -7.27,-3.97 -5.27,-2.77 -9.6,-5.76 -14.1,-9 -6.97,-5.02 -21.18,-11.96 -32.11,-12.88 3.66,3.32 6.67,7.53 11.08,10.81 13.74,10.2 32.11,17.74 49.9,19.42z"/>
   <path class="fil1" d="M193.39 151.6c0.82,-1.45 2.72,-3.42 3.52,-4.43 4.83,-6.12 6.55,-7.3 11.38,-12.42 2.27,-2.41 5.81,-4.86 8.91,-7.2 2.76,-2.08 6.44,-4.35 9.4,-6.13 -13.04,3.79 -26.33,13.8 -34,21.45 -7.91,7.9 -19.78,23.25 -21.59,33.47 1.47,-1.07 2.35,-2.63 3.97,-4.18l29.24 -24.24c-3.69,0.18 -7.66,2.45 -10.84,3.68z"/>
   <path class="fil3" d="M581.95 174.2c-4.35,-5.86 -5.99,-16.25 -15.29,-17.32 1.48,2.89 3.47,4.67 4.77,8.65 -1.37,-0.87 -0.34,-0.04 -1.76,-1.4 -0.46,-0.45 -0.6,-0.63 -1.02,-1.14 -6.31,-7.62 -16.67,-11.65 -22.25,-7.29 3.48,0.74 6.33,2.18 9.9,3.57 4.88,1.9 3.1,3.59 5.26,8.06 3.42,1.17 3.79,-0.52 5.19,2.49 1.14,2.45 0.14,2.42 2.21,5.78l5.49 -0.86c0.51,2.71 1.03,5.2 2.28,7.27 3.34,-0.88 5.5,-2.87 7.41,-4.89l-2.21 -2.93z"/>
   <path class="fil1" d="M394.96 109.9c3.09,2.94 6.13,3.94 9.4,7.35 9.22,9.63 8.92,7.66 14.34,19.29 1.9,4.07 3.9,5.36 5.17,11.42l1.14 -3.11c3.06,3.58 3.18,10.77 5.6,14.22 3.98,-10.88 -4.29,-28.1 -9.39,-32.77 -6.39,-5.85 -16.91,-14.76 -26.26,-16.4z"/>
   <path class="fil1" d="M257.49 194.68c-2.24,0.63 -7.8,3.77 -10.19,4.97 -15.37,7.73 -30.18,8.42 -33.59,10.13 22.61,1.36 41.39,-3.57 57.68,-16.84 0.81,-0.66 1.24,-0.9 1.97,-1.55 6.96,-6.16 17.03,0.25 25.31,-1.19l2.31 -0.33c-4.11,-0.29 -5.97,-2.09 -9.35,-2.14 -3.38,-0.07 -5.5,-0.1 -8.15,0.12 -7.43,0.63 -2.97,-1.28 -6.88,-2.23 -4.93,1.23 -3.74,6.78 -16.81,11.56l-1.06 -1.61c-1.32,-1.46 1.29,-0.09 -1.23,-0.91z"/>
   <path class="fil3" d="M544.34 115.93c0.7,1.97 0.91,2.05 2.15,3.43 8.37,9.28 19.03,1.45 26.35,1.07 -2.19,-1.75 -6.33,-3.15 -9.38,-4.74 -3.59,-1.86 -5.1,-3.32 -8,-5.29 -5.02,-3.41 -15.09,-5.84 -21.15,-1.91 2.89,0.29 8.02,0.92 8.8,3.09l1.24 4.35z"/>
   <path class="fil4" d="M565.98 197.56c0.81,-0.67 0.15,-1.04 3.59,0.93 3.8,2.17 11.01,5.51 15.4,4.06l-2.74 -1.39c-0.75,-0.3 -1.67,-0.54 -2.57,-0.9 -6.95,-2.73 -20.41,-12.78 -27.33,-17.44 -8.64,-5.82 -24.22,-13.83 -37.44,-14.34l2.17 1.36c0.78,0.4 1.01,0.46 2.07,0.82 24.66,8.55 39.83,24.2 46.85,26.89z"/>
   <path class="fil2" d="M291.62 187.75c3.39,0.04 5.24,1.84 9.35,2.14l-2.31 0.33c1.84,1.29 9.63,2.96 13.13,4.2 10.42,3.69 27.34,11.88 35.78,14 -0.18,-0.75 -1.07,-4.48 -1.42,-5.01 -1.23,-1.86 -0.91,-0.97 -3.66,-1.86 -2.67,-0.87 -5.19,-1.95 -7.64,-2.87 -16.71,-6.26 -28.38,-12.53 -49.31,-14.16 1.29,2.1 1.69,1.43 4.35,2.4 1.23,0.45 1.04,0.34 1.73,0.85z"/>
   <path class="fil1" d="M382.98 119.77c9.76,5.38 21.84,16.92 28.09,25.79 2.84,4.03 4.33,8.2 6.79,11.75 -0.1,-4.82 -1.68,-11.72 -3.44,-15.8 -5.82,-13.52 -19.75,-21.95 -34.6,-23.93l3.15 2.2z"/>
   <path class="fil1" d="M504.65 254.32c1.58,3.02 2.78,3.33 4.48,6.03 2.54,4.03 2.26,5.55 3.43,7.24 2.3,-6.8 5.06,-10.72 -0.47,-17.9 -2.96,-3.84 -12.45,-8.45 -14.8,-8.8l7.36 13.44z"/>
   <path class="fil2" d="M35.71 170.69c-1.35,-3.2 -6.56,-7.31 -9.47,-9.97 -3.26,-2.98 -9.47,-5.14 -15.77,-4.66 1.78,9.59 14.09,14.13 25.24,14.63z"/>
   <path class="fil1" d="M545.63 160.51c4.87,7.45 19.37,22.91 27.67,26.95l-0.49 -9.18c-3.19,0.34 -4.34,1.33 -7.5,0.95l-0.95 -8.69 -7.56 0.63 -0.71 -8.81 -10.46 -1.84z"/>
   <path class="fil1" d="M506.53 233.45c5.84,3.81 7.85,7.29 12.14,12.45 2.82,3.4 7.59,5.55 10.18,8.71 0.61,0.75 0.53,0.8 1.21,1.64l1.54 1.69c-1.27,-9.67 -1.5,-12.92 -7.96,-17.71 -2.87,-2.13 -12.72,-6.68 -17.11,-6.79z"/>
   <path class="fil1" d="M172.71 166.73c-9.4,-8.12 -23.24,0.63 -32.16,6 -1.43,0.86 -3.02,1.88 -4.3,2.69 -0.75,0.48 -1.46,0.88 -2.12,1.38l-1.96 1.85c8,-2.33 19.26,-10.89 30.31,-10.16 5.07,0.33 6.04,2.76 8.41,5.23l1.81 -6.99z"/>
   <path class="fil1" d="M640.95 237.73l25.18 15.02c-0.74,-3.59 -0.6,-6.43 -2.32,-8.46 -0.99,-1.17 -3.54,-3.48 -5.37,-4.45 -5.22,-2.75 -11.09,-2.21 -17.49,-2.11z"/>
   <path class="fil1" d="M643.49 256.87c6.9,1.45 7.95,6.99 8.08,6.64 0.04,-0.1 0.18,0.28 0.28,0.41 4.09,-10.07 -6.74,-19.87 -15.15,-15.12 -1.54,5.39 2.49,7.18 6.78,8.08z"/>
   <path class="fil2" d="M320.12 229.64c2.88,3.15 3.1,-0.47 6.78,4.18 3.99,5.05 20.33,9.24 24.71,9.21 -2.18,-4.72 -26.33,-15.76 -31.49,-13.39z"/>
   <path class="fil1" d="M567.14 147.58c2.14,-2.04 3.74,-3.12 5.44,-5.57l2.65 3.24c0.78,1.41 1.12,2.02 1.63,3.33 5.05,-2.26 3.08,-3.24 7.29,-5.42l3.29 9.29c2.38,-1.54 4.27,-3.83 6.36,-6.13l-3.33 -1.68c-1.15,-0.4 -2.54,-0.81 -3.72,-1.13 -1.28,-0.35 -2.93,-0.71 -3.85,-0.98 -8.91,-2.67 -10.57,-2.09 -20.21,0.61l4.44 4.43z"/>
   <path class="fil1" d="M494.04 270.5c7.64,-8.5 3.07,-17.64 -2.26,-19.56 -6.88,-2.47 -4.67,6.5 -2.64,9.08 3.16,4.02 4.41,3.45 4.9,10.47z"/>
   <path class="fil1" d="M620.29 162.49c3.53,-1.4 8.04,-8.37 9.23,-14.21 -6.71,0.18 -11.65,1.21 -19.13,0.86 -0.11,2.52 -0.05,5.07 0.86,7.01 1.54,-0.71 1.48,-0.61 2.74,-2.22 0.98,-1.25 0.73,-1.14 1.46,-2.52l1.25 2.11c0.07,0.12 0.21,0.36 0.27,0.46l3.78 -1.88 1 2.2c1.71,-1.08 1.83,-1.49 2.91,-2.45 -1.5,6.16 -3.56,0.52 -4.36,10.65z"/>
   <path class="fil5" d="M276.81 180.44c2.25,2.64 2.11,2.88 -0.22,5.21 3.91,0.95 -0.55,2.86 6.88,2.23 2.65,-0.22 4.77,-0.2 8.15,-0.12 -0.7,-0.5 -0.5,-0.4 -1.73,-0.85 -2.66,-0.97 -3.06,-0.3 -4.35,-2.4l-5.67 -0.14c3.13,-5.56 11.8,-14.76 13.64,-23.56l-2.41 2.89c-3.84,5.36 -14.11,16.43 -14.29,16.74z"/>
   <path class="fil1" d="M673.19 243.32c-1.2,-1.85 -2.9,-4.62 -3.91,-6.6 -4.42,-8.69 -12.76,-8.57 -22.9,-6.98 4.92,2.42 9.11,3.04 14.68,6.09l12.13 7.49z"/>
   <path class="fil1" d="M607.92 148.99l-9.89 -1.95c0.62,6.42 1.25,10.17 0.39,16.96 2.18,-1.02 0.05,0.33 2.33,-1.58 3.63,-3.04 6.98,-8.55 7.17,-13.43z"/>
   <path class="fil1" d="M514.49 228.56c1.72,2.2 3.49,2.51 6.19,4.13l10.83 8.07c2.31,2.07 2.16,3.21 4.86,4.59 -2.65,-11.93 -8.04,-16.81 -21.89,-16.78z"/>
   <path class="fil1" d="M584.81 193.15c3.48,-4.59 5.06,-8.37 4.86,-16.31 -2.65,2.73 -2.17,3.45 -6.48,6.54 -2.65,1.89 -5.15,3.16 -6.94,5.66 1.99,2.32 4.59,3.48 8.56,4.11z"/>
   <path class="fil2" d="M257.49 194.68c2.52,0.82 -0.09,-0.55 1.23,0.91l1.06 1.61c13.07,-4.78 11.88,-10.33 16.81,-11.56 2.33,-2.33 2.47,-2.57 0.22,-5.21 -2.97,1.31 -6.68,5.28 -9.67,7.55 -2.68,2.03 -6.81,4.04 -9.64,6.7z"/>
   <path class="fil1" d="M587.19 193.45c11.91,3.04 18.2,-1.42 18.88,-12.56 -2.12,0.7 -3.92,3.19 -6.72,4.51 0.69,1.75 1.09,3.4 0.85,5.84l-2.95 -2.94c-2.75,0.77 -2.17,0.41 -3.43,2.27 -2.93,-1.56 0.18,-0.79 -3.15,-2.31 -1.53,2.43 -2.63,2.53 -3.47,5.21z"/>
   <path class="fil1" d="M622.34 127.57c7.16,2.7 17.29,2.9 17.21,-2.35 -0.06,-4.09 -14.2,-2.61 -17.21,2.35z"/>
   <path class="fil2" d="M22.43 200.87c-3.69,-4.18 -14.2,-10.79 -22.43,-11.11 3.28,5.12 14.13,10.51 22.43,11.11z"/>
   <path class="fil1" d="M91.51 207.34c3.81,0.93 8.67,2.43 12.86,0.6 3.75,-1.64 4.33,-4.57 1.6,-8.39 -6.16,0.04 -3.43,2.04 -6.69,4.72 -2.16,1.77 -5.82,1.63 -7.77,3.07z"/>
   <path class="fil2" d="M63.73 194.19c-3.61,-5.01 -14.82,-10.16 -21.58,-10.74 3.12,4.4 12.49,10.83 21.58,10.74z"/>
   <path class="fil2" d="M448.97 267.59c-2.85,-5.21 -15.1,-8.1 -22.54,-7.71 1.71,1.92 6.19,3.82 9.33,5.18 4.27,1.85 7.75,2.58 13.22,2.53z"/>
   <path class="fil2" d="M468.15 101.7c0.82,-0.88 0.05,0.13 1.09,-1.39 5.51,-7.98 3.15,-2.61 5.93,-6.24 -2.9,-0.36 -5.82,-0.29 -8.18,0.93 -0.92,-0.5 -1.01,0.89 -0.51,-1.19l-1.55 1.61c-0.06,-0 -0.15,-0.06 -0.17,-0.07l-1.86 -0.76c-0.04,8.06 0.15,10.14 3.61,11.97l1.63 -4.86z"/>
   <path class="fil2" d="M71.07 169.76c1.74,3.07 4.72,4.91 8.07,5.96 7.22,2.28 18.88,2.09 3.85,-3.84 -3.89,-1.54 -7.47,-2.08 -11.92,-2.13z"/>
   <path class="fil1" d="M249.86 93.37c-1.56,-1.61 0.64,0.02 -1.39,-0.93 -0.04,-0.02 -1.51,-0.5 -1.6,-0.53 -3.07,-0.95 -0.26,-0.73 -3.02,-0.49 -3.1,0.57 -11.55,7.47 -12.8,9.49l18.81 -7.54z"/>
   <path class="fil2" d="M555.97 259.05c2.79,2.59 17.65,7.57 22.99,8.4 -2.14,-2.22 -14.77,-7.59 -19.99,-8.64 -2.87,-0.58 -2.49,-0.07 -3,0.24z"/>
   <path class="fil1" d="M90.52 223.46c1.57,1.3 10.19,5.51 13.69,0.58 -1.03,-4.06 -3.26,-3.86 -5.71,-2.33 -3.39,2.12 -3.35,1.32 -7.98,1.75z"/>
   <path class="fil2" d="M364.12 213.3c1.05,-2.83 -0.66,-0.8 1.49,-1.3 2.55,-0.6 1.05,0.05 1.49,0.64l0.09 -1.52c-0.1,-1.4 0.11,-1.49 -0.49,-2.98 -0.89,-2.22 -0.71,-1.22 -1.37,-1.97 -1.82,1.44 0.44,1.12 -2.25,-0.03 0.39,3.75 0.24,2.88 -0.38,3.83l-0.88 -1.05c-0.08,-0.11 -0.2,-0.29 -0.28,-0.41l-3.74 -3.85c-0.41,0.74 -0.61,0.48 -0.72,1.82 -0.18,2.09 -0.24,0.19 0.34,1.56 1.69,3.99 3.5,2.56 6.7,5.24z"/>
   <path class="fil2" d="M59.29 160.24c-1.91,-3.75 -8.08,-6.1 -13.76,-6.89 1.86,3.23 9.12,8.66 13.76,6.89z"/>
   <path class="fil2" d="M364.12 213.3c3.87,11.01 6.92,6.33 6.93,6.29 0.08,-0.23 0.25,-0.26 0.38,-0.39 -0.99,-2.62 -2.29,-6.47 -4.24,-8.08l-0.09 1.52c-0.45,-0.59 1.06,-1.23 -1.49,-0.64 -2.15,0.5 -0.44,-1.53 -1.49,1.3z"/>
   <path class="fil2" d="M47.91 148.67c-1.01,-2.61 -4.27,-3.77 -7.98,-3.97 1.08,2.83 3.57,4.65 7.98,3.97z"/>
  </g>
 </g>
</svg>
