<?xml version="1.0" encoding="UTF-8"?>
<!DOCTYPE svg PUBLIC "-//W3C//DTD SVG 1.1//EN" "http://www.w3.org/Graphics/SVG/1.1/DTD/svg11.dtd">
<!-- Creator: CorelDRAW -->
<svg xmlns="http://www.w3.org/2000/svg" xml:space="preserve" width="123.42mm" height="124.288mm" version="1.1" style="shape-rendering:geometricPrecision; text-rendering:geometricPrecision; image-rendering:optimizeQuality; fill-rule:evenodd; clip-rule:evenodd"
viewBox="0 0 596.53 600.73"
 xmlns:xlink="http://www.w3.org/1999/xlink"
 xmlns:xodm="http://www.corel.com/coreldraw/odm/2003">
 <defs>
  <style type="text/css">
   <![CDATA[
    .fil1 {fill:black}
    .fil2 {fill:#1E1412}
    .fil3 {fill:#C2BDA7}
    .fil0 {fill:#EAE6D0}
   ]]>
  </style>
 </defs>
 <g id="Camada_x0020_1">
  <metadata id="CorelCorpID_0Corel-Layer"/>
  <g id="_2157828376976">
   <path class="fil0" d="M240.36 567.33l-12.58 -6.7 0.11 23.44 -28.39 -13.78c-8.96,-4.35 -17.92,-9.08 -27.25,-12.59 -9.89,-3.72 -20.29,-6.28 -30.45,-9.16 -21.92,-6.2 -43.85,-16.14 -62.9,-28.64 -19.22,-12.62 -34.54,-26.37 -48.01,-45.1 -15.18,-21.11 -29.65,-41.42 -28.27,-68.83l1 -19.78c-6.25,-28.75 -4.6,-56.15 6.11,-84.11l3.68 -9.62c-0.52,-2.72 -1.05,-5.43 -1.51,-8.16 -4.84,-28.89 -2.45,-53.95 5.8,-81.94 18.19,-61.72 62.38,-107.78 114.11,-143.68 26.95,-18.7 56.12,-33.36 88.14,-41.02 1.74,-0.42 3.49,-0.81 5.25,-1.18l12.45 -7.11c18.01,-10.28 62.48,-10.07 83.53,-8.68 23.46,1.56 46.14,7.88 68.01,16.28 59.88,23 106.56,46.7 144.95,100.15 37.77,52.6 59.77,113.8 61.51,178.71l0.87 32.66 -14.85 -7.38c-0.35,5.93 -0.84,11.84 -1.39,17.76 -1.29,13.88 -3.05,27.72 -5.18,41.5 -1.59,10.28 -3.3,20.56 -5.7,30.69 -9.81,41.39 -30.44,74.76 -57.18,107.27 -44.18,53.73 -103.92,77.67 -172.21,82.08 -15.79,1.02 -30.79,-0.28 -45.8,-5.53 -8.05,-2.81 -15.74,-7.19 -23.81,-9.63l-38.96 -11.73 8.92 -6.2zm58.22 -202.37c1.99,5.17 3.3,10.49 4.69,15.87 0.88,3.4 1.89,7.56 3.51,10.62 0.69,1.06 3.3,2.99 4.35,3.77 4.58,3.39 9.23,6.36 13.45,10.26 18.39,17.02 13.85,37.64 -1.69,54.54 -16.85,18.31 -50.02,23.69 -75.33,21.72 7.9,7.53 14.6,16.5 19.35,26.06 2.11,4.24 3.92,8.82 5.18,13.53 1.34,-0.7 2.68,-1.4 4.02,-2.1 8.96,-4.71 17.78,-9.7 26.49,-14.87 4.77,-2.83 9.5,-5.72 14.18,-8.69l6.32 -10.2c3.21,-5.18 7.19,-9.31 12.18,-12.79 2.36,-1.65 4.97,-3.04 7.26,-4.74l1.39 -1.04 1.56 -0.78c46.89,-23.39 65.01,-63.26 55.32,-114.27 -4.38,-23.04 -14.05,-45.72 -26.52,-65.53 -10.46,-16.6 -24.59,-33.87 -40.75,-45.18 -8.66,-6.06 -21.22,-9.64 -30.08,-2.03 -8.83,7.58 -8.5,21.1 -5.78,32.14 1.76,-0.94 3.58,-1.68 5.57,-2.16l29.13 -7.05 -0.07 0.38 5.51 -1.81 2.34 24.48c0.34,3.57 0.56,7.19 0.56,10.81l3.42 -1.09 -9.42 34.8c-4.06,15 -16.05,26.73 -29.98,32.98 -2,0.9 -4.05,1.69 -6.14,2.37z"/>
   <path class="fil1" d="M284.2 357.94c1.63,2.74 3.15,5.61 4.48,8.74 2.28,5.35 3.63,11 5.08,16.61 1.09,4.23 2.32,8.95 4.37,12.82 1.41,2.64 4.79,5.25 7.15,7.01 4.25,3.15 8.72,5.97 12.62,9.58 14.11,13.06 9.74,27.64 -2.25,40.67 -16.08,17.48 -51.54,21.09 -74.08,17.84 -11.95,-1.72 -23.73,-4.79 -35.51,-7.42 -3.02,-0.67 -6.1,-1.34 -9.21,-1.95 1.22,0.82 2.51,1.7 3.89,2.7 3.88,2.8 8.21,4.83 12.54,6.82 5.5,2.53 10.82,4.98 15.91,8.3 12.04,7.86 22.5,19.65 28.9,32.52 3.47,6.98 6.32,15.64 6.06,23.87 5.6,-2.39 11.25,-5.35 16.52,-8.12 9.11,-4.79 18.09,-9.87 26.93,-15.12 5.48,-3.26 10.95,-6.6 16.33,-10.06l7.49 -12.09c2.52,-4.07 5.54,-7.18 9.45,-9.91 2.45,-1.71 5.11,-3.14 7.5,-4.91l0.7 -0.52 0.78 -0.39c51.27,-25.6 71.02,-69.94 60.58,-124.9 -4.6,-24.23 -14.75,-48.12 -27.86,-68.93 -11.13,-17.66 -26.22,-35.95 -43.43,-47.99 -12.56,-8.78 -29.64,-12.14 -42.12,-1.43 -14.14,12.15 -12.36,33.41 -6.67,49.4 5.69,6.44 8.27,-0.75 15.18,-2.43l14.57 -3.53 -0.31 1.75 9.39 -3.09 1.17 12.24c0.74,7.73 0.89,16.07 -0.92,23.77l0.48 -0.15 -4.71 17.4c-3.28,12.12 -13.32,21.55 -24.52,26.58 -5.28,2.37 -10.86,3.81 -16.5,4.31zm-36.74 196.34l0.17 5.8 -30.45 -16.22c0.49,2.81 0.72,5.71 0.73,8.71l0.08 15.78 -14.19 -6.89c-9.1,-4.42 -18.61,-9.39 -28.08,-12.95 -9.97,-3.76 -20.98,-6.51 -31.24,-9.42 -20.86,-5.9 -42.08,-15.52 -60.18,-27.4 -18.35,-12.05 -32.58,-24.76 -45.42,-42.62 -13.69,-19.05 -27.69,-37.68 -26.43,-62.6l0.95 -18.79 0.81 0.63c-6.71,-27.47 -6.18,-54.26 4.71,-82.71l4.68 -12.22c-0.67,-3.57 -1.4,-7.14 -1.99,-10.69 -4.6,-27.47 -2.36,-50.76 5.53,-77.54 17.52,-59.46 60.42,-103.78 110.28,-138.39 25.98,-18.03 53.97,-32.16 84.83,-39.54 2.17,-0.52 4.33,-1 6.49,-1.44l13.8 -7.87c15.63,-8.92 59.43,-8.64 78.01,-7.41 22.47,1.49 44.2,7.61 65.14,15.65 58.2,22.35 103.33,44.97 140.49,96.71 36.6,50.97 57.98,110.24 59.67,173.24l0.44 16.33 -13.84 -6.88c-0.14,12.35 -1.18,24.48 -1.92,32.41 -1.27,13.67 -3.01,27.34 -5.11,40.9 -1.54,9.94 -3.23,20.14 -5.55,29.93 -9.48,39.99 -29.43,71.95 -55.21,103.3 -42.35,51.5 -99.53,74.28 -165.26,78.52 -14.51,0.94 -28.15,-0.18 -41.92,-5 -8.2,-2.87 -16.03,-7.29 -24.22,-9.76l-19.48 -5.87 7.46 -5.18c-3.61,-1.97 -7.11,-4.38 -10.63,-7.64l-3.12 -2.89z"/>
   <g>
    <path class="fil2" d="M247.63 26.42l20.41 2.15c-15.48,6.29 -58.36,0.14 -124.8,46.24 -48.51,33.66 -89.72,76.3 -106.46,133.09 -19.98,67.81 7.27,87.54 -4,119.06l-4.47 -17.88c-13.06,34.11 -10.14,65.55 2.94,100 1.97,5.19 3.67,9.67 5.75,14.37 2.27,5.11 6.19,9.24 7.32,13.63 -7.82,-7.93 -13.83,-23.94 -21.84,-30.15 -1.16,22.89 14.22,41.93 24.6,56.37 12.05,16.76 25.02,28.45 42.83,40.14 15.93,10.46 36.55,20.24 57.46,26.16 33.88,9.59 31.21,8.56 60.93,22.98 -0.08,-16.32 -7.61,-20.54 -13.12,-28.71 7.08,2.11 14.62,5.31 21.84,8.62l20.51 10.92c-0.27,-9.1 -2.19,-9.74 -3.78,-15.78 3.22,2.69 6.07,3.7 9.27,6.53 5.77,5.11 2.92,6.48 9.44,9.39 7.54,-12.52 -5.9,-41.02 -28.4,-55.71 -9.72,-6.34 -19.72,-8.81 -28.83,-15.39 -11.1,-8.01 -16.65,-10.03 -21.48,-23.13 22.22,-0.06 47.12,8.9 69.45,12.12 23.49,3.38 53.51,-1.8 65.45,-14.77 24.19,-26.29 -10.39,-29.87 -18.97,-45.99 -4.78,-8.99 -5.84,-20.87 -9.82,-30.19 -4.19,-9.84 -10.46,-17.11 -15.71,-25.38 22.77,9.57 47.28,-3.99 51.8,-20.67l-9.47 3.02c3.69,-6.18 8.69,-6.05 12.47,-16.12 2.69,-7.16 2.64,-16.13 1.85,-24.41 -5.65,1.86 -2.53,11.57 -15.25,15.7l2.52 -14.46c-2.63,0.64 -14.44,13.04 -26.15,-2.19 -21.25,-56.17 24.02,-88.29 63.07,-60.96 64.59,45.19 133.09,196.95 9.47,258.66 -5.48,4.07 -10.32,5.44 -14.46,12.12l15.21 -4.03c-12.12,13.2 -70.66,47.08 -90.64,54.77 -2.1,0.81 -1.74,0.52 -3.72,1.45 -3.74,1.75 -1.78,0.73 -3.4,1.93 8.02,7.41 15.54,9.41 27.26,13.86 -3,0.54 -4.28,-0.26 -8.44,2.63 16.62,5.01 28.16,16.59 62.68,14.36 67.18,-4.34 119.89,-28.25 158.3,-74.96 21.72,-26.41 43.37,-57.69 53.24,-99.33 6.18,-26.06 19.02,-114.24 7.93,-134.92 2.13,1.63 6.1,9.37 7.94,12.56 1.29,2.24 2.47,4.31 3.81,6.25 3.03,4.38 2.05,3.95 6.04,5.94 -1.67,-62.22 -23.09,-119.4 -57.82,-167.77 -34.76,-48.4 -76.19,-70.28 -136.03,-93.27 -18.6,-7.15 -39.81,-13.53 -62.27,-15.02 -17.34,-1.15 -59.61,-1.21 -72.49,6.14z"/>
    <path class="fil0" d="M201.79 277.76l-2.67 -3.51c-0.51,-0.92 -1.14,-2.74 -1.5,-3.79 -0.9,-2.64 -1.45,-4.9 -2.31,-7.58 -1.58,-4.98 -1.07,-10.7 -1.86,-16.28 -10.61,-75.3 40.5,-142.82 117.31,-155.73 44.53,-7.48 92.43,5.42 122.11,33.39 18.99,28.23 46.4,64.8 40.97,93.16 -10.27,-24.48 -7.95,-45.59 -35.52,-59.83 2.81,9.29 29.33,50.21 21.66,60.54 -2.4,-7 -11.39,-11.68 -16.65,-17.31 0.89,11.24 18.37,36.28 27.29,81.83 6.5,-6 12.22,-23.54 13.8,-31.52 1.06,-5.34 2.25,-18.68 2.74,-19.61 3.05,5.26 4.8,10.51 6.61,17.5 8.98,34.6 5.5,74.03 4.95,109.29 1.68,-2.02 1.2,-0.19 3.66,-4.78 0.2,-0.37 0.89,-1.09 1.08,-1.49l3.57 -13.16c0.86,7.29 -6.49,35.03 -7.97,41.14 -6.17,28.22 -12.33,46.05 -26.58,67.53 -25.2,37.98 -32.83,44.23 -71.22,72.46 -10.15,7.46 -17.68,12.23 -30.57,18.74l-49.34 23.99c-6.27,2.48 -14.74,2.37 -20.12,5.23 33.13,13.69 103.88,-1.21 131.06,-16.83 43.98,-25.28 50.87,-40.27 80.5,-76.72 16.71,-20.56 37.18,-81.88 41.11,-114.3 12,-99.24 -11.61,-106.88 -13.99,-133.22 6.34,5.07 14.51,21.32 19.3,28.38 0.21,-0.42 0.39,-1.56 0.44,-1.34 0.05,0.22 0.33,-1.01 0.39,-1.35 1.58,-9.72 -0.27,7.99 0.46,-2.85 0.16,-2.43 -0.18,-4.92 -0.59,-7.28 -0.74,-4.34 -1.74,-7.83 -3.21,-11.76l-28.06 -62.37c-12.83,-22.56 -35.1,-53.21 -55.3,-67.86 -29.55,-21.42 -35.13,-31.89 -77.93,-46.23 -29.66,-9.94 -72.5,-18.04 -106.51,-18.52 -38.57,-0.54 -73.26,6.67 -104.36,20.68 -37.71,16.99 -46.94,22.67 -74.73,49.33 -45.96,44.11 -52.11,99.11 -33.12,156.52l6.53 16.88c1.72,9.45 1.83,2.09 -1.29,6.02 -4.63,-11.81 -12.97,-22.28 -18.03,-37.54 -4.93,-14.87 -6.37,-32.71 -5.55,-50.55 -15.73,26.33 -6.29,77.3 8.21,106.03 7.81,15.48 18.43,28.81 28.44,38.82 7,7.01 29.66,26.35 37.4,29.38 -7.02,-5.95 -17.05,-14 -20.82,-23.29 4.75,2.28 0.55,-0.23 4.9,3.02 25.67,19.1 31.63,25.18 73.53,30.37 72.62,9 78.92,18.77 91.82,20.65 1.88,-28.09 -14.23,-51.02 -34.35,-68.4 -5.99,-5.17 -8.18,-8.05 -13.34,-12.06 -16.41,-12.76 -23.56,-21.38 -32.35,-43.8z"/>
    <path class="fil3" d="M201.79 277.76c-7.19,-43.46 -5.7,-59.8 13.26,-96.66 14.74,-28.66 33.58,-41.53 67.55,-52.8 39.52,-13.11 89.6,-0.84 121.68,19.78 13.32,8.56 44.16,29.13 48.07,43.45 -8.02,-5.32 -11.4,-9.87 -17.9,-16.09 -16.68,-15.93 -44.02,-34.9 -70.32,-37.17l11.86 8.6c19.66,10.94 36.98,25.46 50.29,42.98 25.06,32.99 42.7,106.29 41.39,144.26 7.51,-3.67 12.92,-22.5 15.08,-30.14 4.48,-15.92 1.27,-27.74 4,-42.28 5.48,10.52 10.13,103.07 -4.99,131.41 4.64,-1.14 5.95,-3.34 9.2,-7.17 0.8,-0.94 2.82,-3.87 3.83,-4.96 3.81,-4.13 0.8,-6.04 4.28,-0.97 3.47,-4.49 10.16,-39.91 9.3,-47.19l-5.36 18.56c-0.19,0.4 -0.41,0.83 -0.61,1.2 -2.46,4.59 -0.56,1.33 -2.24,3.36 1.78,-34.74 5.76,-77.78 -3.22,-112.38 -1.81,-6.99 -7.47,-24.06 -10.52,-29.32 -0.49,0.93 -2.9,27.75 -3.96,33.09 -1.59,7.98 -4,25.04 -10.5,31.04 -8.92,-45.55 -27.74,-66.32 -28.63,-77.56 5.26,5.63 18.16,25.44 20.56,32.44 7.67,-10.33 -17.16,-61.2 -19.97,-70.49 9.22,4.76 17.26,22.05 21.33,31.47 5.32,12.32 9.22,30.48 12.5,38.31 6.61,-29.1 -18.54,-85.7 -44.12,-109.8 -29.68,-27.97 -77.96,-40.88 -122.49,-33.39 -76.81,12.91 -130,82.13 -119.39,157.43 0.79,5.58 1.99,11.11 3.57,16.09 0.85,2.68 1.41,4.94 2.31,7.58 0.36,1.05 0.99,2.87 1.5,3.79l2.67 3.51z"/>
    <path class="fil0" d="M258.07 414.53c0,0.9 -1.53,3.06 -3.73,5.01 -2.2,1.95 -3.39,2.56 -6.34,3.43 -2.95,0.86 -5.99,0.31 -8.79,-0.64 -3.28,-1.11 -6.64,-4.27 -9.9,-7.88 -0.67,-0.75 -6.75,-7.32 -1.5,-7.32 5.25,0 8.48,-0.06 13.39,0.94 6.65,1.36 8.65,2.19 14.85,4.58 0.81,0.45 2.01,0.99 2.01,1.89z"/>
   </g>
  </g>
 </g>
</svg>
